<svg width="62" height="67" viewBox="0 0 62 67" fill="none" xmlns="http://www.w3.org/2000/svg">
<g filter="url(#filter0_d_60_161)">
<path fill-rule="evenodd" clip-rule="evenodd" d="M26.8406 10.3991C26.3084 10.3991 25.8728 9.96342 25.8728 9.42965C25.8728 8.89753 26.3084 8.462 26.8406 8.462H31.1614C31.6935 8.462 32.1292 8.89753 32.1292 9.42965C32.1292 9.96342 31.6935 10.3991 31.1614 10.3991H26.8406ZM32.8371 11.7332C34.9219 14.0311 36.4699 16.0202 37.4827 17.7989C41.1271 24.1982 35.9442 30.6979 29.0009 30.5812C22.0578 30.6979 16.8748 24.1982 20.5169 17.7989C21.532 16.02 23.0804 14.0307 25.1639 11.7325C25.6353 12.0774 26.2154 12.2814 26.8406 12.2814H31.1614C31.7861 12.2814 32.3658 12.0778 32.8371 11.7332ZM30.2512 16.1622L29.8508 15.1202H28.1518L27.7496 16.1622C27.1953 16.294 26.6666 16.5131 26.1807 16.8125L25.1609 16.3591L23.9599 17.5602L24.4133 18.5799C24.1138 19.0659 23.8948 19.5946 23.7613 20.1506L22.7211 20.5511V22.25L23.7613 22.6504C23.8948 23.2048 24.1138 23.7352 24.4133 24.2194L23.9599 25.2392L25.1609 26.4402L26.1807 25.9886C26.6666 26.2862 27.1953 26.5071 27.7514 26.6387L28.1518 27.6791H29.8508L30.2512 26.6387C30.8055 26.5071 31.336 26.288 31.8201 25.9886L32.8399 26.4402L34.0411 25.2392L33.5893 24.2194C33.8871 23.7335 34.1078 23.2048 34.2395 22.6504L35.2798 22.25V20.5511L34.2395 20.1506C34.1078 19.5946 33.8888 19.0659 33.5893 18.5799L34.0411 17.5602L32.8399 16.3591L31.8201 16.8125C31.3342 16.5131 30.8055 16.294 30.2512 16.1622ZM29.0005 18.4362C30.6379 18.4362 31.9657 19.7622 31.9657 21.3997C31.9657 23.0371 30.6379 24.3648 29.0005 24.3648C27.3631 24.3648 26.0369 23.0371 26.0369 21.3997C26.0369 19.7622 27.3631 18.4362 29.0005 18.4362ZM25.7325 6.80518L24.5932 5.66589C24.0212 5.09624 24.0212 4.16236 24.5932 3.59036C25.0765 3.10718 25.8446 3.02542 26.4235 3.39424C26.6384 3.532 26.8834 3.55542 27.1193 3.4573C27.3551 3.3593 27.5138 3.17012 27.5675 2.92036C27.7099 2.262 28.3006 1.76471 29.0009 1.76471C29.6874 1.76471 30.2874 2.25036 30.4345 2.92036C30.4881 3.17012 30.6469 3.3593 30.8827 3.4573C31.1185 3.55542 31.3636 3.532 31.5785 3.39424C32.1458 3.03012 32.9139 3.09542 33.4088 3.59036C33.9785 4.16236 33.9785 5.09624 33.4088 5.66589L32.2695 6.80518C31.9284 6.66 31.5538 6.57965 31.1614 6.57965H26.8406C26.4481 6.57965 26.0735 6.66 25.7325 6.80518ZM42.6028 57.6692V58.2353H11.9876V55.8744C11.9876 54.5778 13.3179 53.5166 14.9418 53.5166H20.214V48.0119H8.22918C6.32388 48.0119 4.76424 46.4522 4.76424 44.5471V20.7179C4.76424 18.8127 6.32388 17.2531 8.22918 17.2531H18.6705C18.1618 18.2237 17.816 19.1954 17.6168 20.1521H8.14353C7.87741 20.1521 7.66035 20.3662 7.66035 20.6322V42.1769H35.4566V48.0119H34.3764V53.5166H35.4566V55.2654C35.4566 56.5949 36.5415 57.6692 37.8605 57.6692H42.6028ZM46.9269 28.1177V20.6322C46.9269 20.3662 46.7099 20.1521 46.4468 20.1521H40.3838C40.1844 19.1954 39.8382 18.2237 39.3293 17.2531H46.3581C48.2634 17.2531 49.8231 18.8127 49.8231 20.7179V28.1177H46.9269ZM53.3001 30.0461C53.3679 30.0732 53.43 30.1101 53.4865 30.1594L57.0598 33.2736C57.1162 33.3229 57.1586 33.3795 57.1895 33.4361H53.6191C53.4441 33.4361 53.3001 33.3131 53.3001 33.1604V30.0461ZM57.2358 35.3179V55.2654C57.2358 55.5539 57.0004 55.7868 56.7144 55.7868H37.8605C37.5744 55.7868 37.3389 55.5539 37.3389 55.2654V30.5214C37.3389 30.2353 37.5744 30 37.8605 30H51.4184C51.418 30.0154 51.4178 30.0307 51.4178 30.0461V33.1604C51.4178 34.2765 52.3395 35.3185 53.6191 35.3185H57.1895C57.2049 35.3185 57.2204 35.3184 57.2358 35.3179ZM38.6934 36.6704L39.7493 37.7209C40.1045 38.0744 40.6741 38.0875 41.0453 37.7511L43.6028 35.4322C43.9878 35.0834 44.0168 34.4876 43.668 34.1028C43.3191 33.718 42.7234 33.6888 42.3386 34.0378L40.4433 35.7561L40.0211 35.336C39.6528 34.9696 39.0565 34.9711 38.69 35.3393C38.3236 35.7075 38.3252 36.304 38.6934 36.6704ZM38.6934 50.2191L39.7493 51.2696C40.1045 51.6231 40.6741 51.6362 41.0453 51.2998L43.6028 48.9809C43.9878 48.6321 44.0168 48.0364 43.668 47.6515C43.3191 47.2667 42.7234 47.2375 42.3386 47.5865L40.4433 49.3048L40.0211 48.8847C39.6528 48.5184 39.0565 48.5198 38.69 48.888C38.3236 49.2562 38.3252 49.8527 38.6934 50.2191ZM45.4947 36.4169H49.2514C49.7708 36.4169 50.1926 35.9952 50.1926 35.4758C50.1926 34.9562 49.7708 34.5346 49.2514 34.5346H45.4947C44.9753 34.5346 44.5535 34.9562 44.5535 35.4758C44.5535 35.9952 44.9753 36.4169 45.4947 36.4169ZM45.4947 45.0109H53.9573C54.4767 45.0109 54.8985 44.5893 54.8985 44.0698C54.8985 43.5504 54.4767 43.1286 53.9573 43.1286H45.4947C44.9753 43.1286 44.5535 43.5504 44.5535 44.0698C44.5535 44.5893 44.9753 45.0109 45.4947 45.0109ZM38.6934 43.7718L39.7493 44.8224C40.1045 45.1758 40.6741 45.1889 41.0453 44.8525L43.6028 42.5337C43.9878 42.1848 44.0168 41.5891 43.668 41.2042C43.3191 40.8194 42.7234 40.7902 42.3386 41.1392L40.4433 42.8575L40.0211 42.4374C39.6528 42.0711 39.0565 42.0726 38.69 42.4407C38.3236 42.8089 38.3252 43.4054 38.6934 43.7718ZM45.4947 42.8631H53.9573C54.4767 42.8631 54.8985 42.4413 54.8985 41.9219C54.8985 41.4024 54.4767 40.9807 53.9573 40.9807H45.4947C44.9753 40.9807 44.5535 41.4024 44.5535 41.9219C44.5535 42.4413 44.9753 42.8631 45.4947 42.8631ZM45.4947 38.5648H53.9573C54.4767 38.5648 54.8985 38.1431 54.8985 37.6237C54.8985 37.1042 54.4767 36.6825 53.9573 36.6825H45.4947C44.9753 36.6825 44.5535 37.1042 44.5535 37.6237C44.5535 38.1431 44.9753 38.5648 45.4947 38.5648ZM45.4947 51.4571H53.9573C54.4767 51.4571 54.8985 51.0354 54.8985 50.5159C54.8985 49.9965 54.4767 49.5747 53.9573 49.5747H45.4947C44.9753 49.5747 44.5535 49.9965 44.5535 50.5159C44.5535 51.0354 44.9753 51.4571 45.4947 51.4571ZM45.4947 49.3092H53.9573C54.4767 49.3092 54.8985 48.8874 54.8985 48.368C54.8985 47.8486 54.4767 47.4268 53.9573 47.4268H45.4947C44.9753 47.4268 44.5535 47.8486 44.5535 48.368C44.5535 48.8874 44.9753 49.3092 45.4947 49.3092Z" fill="white"/>
</g>
<defs>
<filter id="filter0_d_60_161" x="-3" y="0" width="68" height="68" filterUnits="userSpaceOnUse" color-interpolation-filters="sRGB">
<feFlood flood-opacity="0" result="BackgroundImageFix"/>
<feColorMatrix in="SourceAlpha" type="matrix" values="0 0 0 0 0 0 0 0 0 0 0 0 0 0 0 0 0 0 127 0" result="hardAlpha"/>
<feOffset dy="4"/>
<feGaussianBlur stdDeviation="2"/>
<feComposite in2="hardAlpha" operator="out"/>
<feColorMatrix type="matrix" values="0 0 0 0 0 0 0 0 0 0 0 0 0 0 0 0 0 0 0.25 0"/>
<feBlend mode="normal" in2="BackgroundImageFix" result="effect1_dropShadow_60_161"/>
<feBlend mode="normal" in="SourceGraphic" in2="effect1_dropShadow_60_161" result="shape"/>
</filter>
</defs>
</svg>
