<svg width="20" height="20" viewBox="0 0 20 20" fill="#e50c55" xmlns="http://www.w3.org/2000/svg">
<path d="M19.4871 16.1876L3.81314 0.512719C3.12955 -0.170906 2.02128 -0.170906 1.33876 0.512719L0.51269 1.33756C-0.170897 2.02139 -0.170897 3.12972 0.51269 3.81228L16.1867 19.4872C16.8705 20.1708 17.9788 20.1708 18.6613 19.4872L19.4861 18.6623C20.171 17.9798 20.171 16.8712 19.4871 16.1876Z" fill="#e50c55"/>
<path d="M16.1867 0.512894L0.51269 16.1878C-0.170897 16.8714 -0.170897 17.9799 0.51269 18.6625L1.33748 19.4873C2.02128 20.171 3.12955 20.171 3.81207 19.4873L19.4871 3.81352C20.171 3.1299 20.171 2.02157 19.4871 1.33901L18.6624 0.514176C17.9788 -0.170731 16.8705 -0.170731 16.1867 0.512894Z" fill="#e50c55"/>
</svg>
