<svg width="134" height="65" viewBox="0 0 134 65" fill="none" xmlns="http://www.w3.org/2000/svg">
<path d="M3.61076 34.6533V9.09332H13.4748C15.8748 9.09332 17.8308 9.86132 19.3428 11.3973C20.8548 12.9333 21.6108 14.9373 21.6108 17.4093C21.6108 19.8813 20.8548 21.9093 19.3428 23.4933C17.8308 25.0533 15.8748 25.8333 13.4748 25.8333H8.25476V34.6533H3.61076ZM8.25476 21.8013H12.6108C13.9548 21.8013 14.9988 21.4053 15.7428 20.6133C16.5108 19.8213 16.8948 18.7533 16.8948 17.4093C16.8948 16.0893 16.5108 15.0453 15.7428 14.2773C14.9988 13.4853 13.9788 13.0893 12.6828 13.0893H8.25476V21.8013ZM24.752 28.9293V9.09332H29.288V28.2453C29.288 29.2053 29.432 29.8653 29.72 30.2253C30.032 30.5853 30.512 30.7653 31.16 30.7653L31.844 30.7293V34.7253C31.388 34.7973 30.908 34.8333 30.404 34.8333C29.66 34.8333 29 34.7733 28.424 34.6533C27.848 34.5093 27.26 34.2573 26.66 33.8973C26.06 33.5133 25.592 32.9013 25.256 32.0613C24.92 31.2213 24.752 30.1773 24.752 28.9293ZM34.9825 28.1013V16.2933H39.5545V27.1653C39.5545 28.3893 39.7585 29.3253 40.1665 29.9733C40.5985 30.5973 41.3425 30.9093 42.3985 30.9093C43.9825 30.9093 45.2305 30.3093 46.1425 29.1093C47.0785 27.9093 47.5465 26.4453 47.5465 24.7173V16.2933H52.1185V34.6533H47.7265V32.5653L47.7985 31.2693H47.7265C47.2225 32.3013 46.3945 33.2013 45.2425 33.9693C44.1145 34.7133 42.8185 35.0853 41.3545 35.0853C37.1065 35.0853 34.9825 32.7573 34.9825 28.1013ZM57.964 27.9213V20.2173H55.588V16.5813H58.072V11.2893H62.536V16.5813H66.712V20.2173H62.536V27.3453C62.536 28.6653 62.908 29.5773 63.652 30.0813C64.42 30.5613 65.26 30.8013 66.172 30.8013L67 30.7293V34.7253C66.64 34.7973 66.172 34.8333 65.596 34.8333C64.972 34.8333 64.372 34.7853 63.796 34.6893C63.22 34.6173 62.56 34.4373 61.816 34.1493C61.072 33.8613 60.424 33.4893 59.872 33.0333C59.344 32.5533 58.888 31.8813 58.504 31.0173C58.144 30.1293 57.964 29.0973 57.964 27.9213ZM79.4903 35.0853C76.6343 35.0853 74.2343 34.1853 72.2903 32.3853C70.3463 30.5613 69.3743 28.2573 69.3743 25.4733C69.3743 22.6893 70.3463 20.3973 72.2903 18.5973C74.2343 16.7733 76.6223 15.8613 79.4543 15.8613C82.2863 15.8613 84.6743 16.7733 86.6183 18.5973C88.5863 20.3973 89.5703 22.6893 89.5703 25.4733C89.5703 28.2573 88.5983 30.5613 86.6543 32.3853C84.7103 34.1853 82.3223 35.0853 79.4903 35.0853ZM74.0183 25.4733C74.0183 27.1533 74.5463 28.5333 75.6023 29.6133C76.6583 30.6693 77.9543 31.1973 79.4903 31.1973C81.0023 31.1973 82.2863 30.6693 83.3423 29.6133C84.3983 28.5333 84.9263 27.1533 84.9263 25.4733C84.9263 23.8173 84.3983 22.4493 83.3423 21.3693C82.2863 20.2893 81.0023 19.7493 79.4903 19.7493C77.9783 19.7493 76.6823 20.2893 75.6023 21.3693C74.5463 22.4493 74.0183 23.8173 74.0183 25.4733ZM93.9623 34.6533V9.09332H103.826C106.226 9.09332 108.182 9.86132 109.694 11.3973C111.206 12.9333 111.962 14.9373 111.962 17.4093C111.962 19.8813 111.206 21.9093 109.694 23.4933C108.182 25.0533 106.226 25.8333 103.826 25.8333H98.6063V34.6533H93.9623ZM98.6063 21.8013H102.962C104.306 21.8013 105.35 21.4053 106.094 20.6133C106.862 19.8213 107.246 18.7533 107.246 17.4093C107.246 16.0893 106.862 15.0453 106.094 14.2773C105.35 13.4853 104.33 13.0893 103.034 13.0893H98.6063V21.8013ZM114.06 25.4733C114.06 22.6413 114.924 20.3373 116.652 18.5613C118.404 16.7613 120.648 15.8613 123.384 15.8613C125.952 15.8613 127.944 16.6893 129.36 18.3453C130.8 19.9773 131.52 22.0533 131.52 24.5733L131.412 26.3373H118.74C118.884 27.8733 119.472 29.0733 120.504 29.9373C121.56 30.7773 122.808 31.1973 124.248 31.1973C125.112 31.1973 125.988 31.0293 126.876 30.6933C127.764 30.3573 128.436 30.0213 128.892 29.6853L129.54 29.1813L131.304 32.4573C131.232 32.5293 131.124 32.6253 130.98 32.7453C130.836 32.8653 130.512 33.0813 130.008 33.3933C129.528 33.6813 129.024 33.9453 128.496 34.1853C127.968 34.4013 127.284 34.6053 126.444 34.7973C125.628 34.9893 124.788 35.0853 123.924 35.0853C120.972 35.0853 118.584 34.1613 116.76 32.3133C114.96 30.4413 114.06 28.1613 114.06 25.4733ZM118.884 23.2053H126.912C126.888 22.0053 126.528 21.0693 125.832 20.3973C125.16 19.7253 124.308 19.3893 123.276 19.3893C122.1 19.3893 121.128 19.7253 120.36 20.3973C119.592 21.0693 119.1 22.0053 118.884 23.2053Z" fill="#0000FF"/>
<path d="M51.7821 58.9331C51.5061 58.9331 51.1761 58.8371 50.7921 58.6451C50.4201 58.4411 50.0901 58.2011 49.8021 57.9251C49.5261 57.6491 49.3881 57.4211 49.3881 57.2411C49.3761 57.0491 49.4301 56.6471 49.5501 56.0351C49.6821 55.4111 49.7661 55.0091 49.8021 54.8291C49.8501 54.5891 49.9401 54.1511 50.0721 53.5151C50.2041 52.8671 50.3121 52.2671 50.3961 51.7151L50.5401 50.8691C50.7681 49.5251 50.9781 48.4331 51.1701 47.5931C51.3741 46.7531 51.5781 46.3331 51.7821 46.3331C51.9861 46.3331 52.2621 46.4171 52.6101 46.5851C52.9701 46.7531 53.3061 46.9691 53.6181 47.2331C53.9301 47.4851 54.1401 47.7251 54.2481 47.9531C54.4401 48.3851 54.6921 49.3091 55.0041 50.7251C55.2201 51.7091 55.3821 52.3871 55.4901 52.7591C56.0061 51.9791 56.6661 50.7851 57.4701 49.1771C57.9861 48.1571 58.3761 47.4311 58.6401 46.9991C58.9161 46.5551 59.1621 46.3331 59.3781 46.3331C59.6061 46.3331 59.9121 46.4351 60.2961 46.6391C60.6921 46.8431 61.0341 47.0831 61.3221 47.3591C61.6221 47.6351 61.7721 47.8751 61.7721 48.0791C61.7721 48.2471 61.7001 48.7211 61.5561 49.5011C61.4121 50.2691 61.3221 50.7491 61.2861 50.9411L60.8181 53.4791C60.6981 54.1871 60.5721 55.1171 60.4401 56.2691C60.3201 57.2531 60.2121 57.9431 60.1161 58.3391C60.0321 58.7351 59.8941 58.9331 59.7021 58.9331C59.4261 58.9331 59.0961 58.8371 58.7121 58.6451C58.3401 58.4411 58.0101 58.2011 57.7221 57.9251C57.4461 57.6491 57.3081 57.4211 57.3081 57.2411C57.2961 57.0851 57.3381 56.7551 57.4341 56.2511C57.5421 55.7351 57.6621 55.1531 57.7941 54.5051C57.9021 53.9891 57.9621 53.6951 57.9741 53.6231L58.6221 51.6251L58.3701 51.5351L58.1901 51.8951C57.7221 52.8551 57.3441 53.6051 57.0561 54.1451C56.7801 54.6731 56.5521 55.0511 56.3721 55.2791C56.2521 55.4231 56.0361 55.5431 55.7241 55.6391C55.4121 55.7231 55.1061 55.7651 54.8061 55.7651C54.4941 55.7651 54.2841 55.7111 54.1761 55.6031C54.0681 55.5071 53.9721 55.3091 53.8881 55.0091C53.8161 54.6971 53.7141 54.2171 53.5821 53.5691C53.5581 53.4371 53.4921 53.1191 53.3841 52.6151C53.2761 52.0991 53.1561 51.6311 53.0241 51.2111L52.8981 53.4791C52.7781 54.1871 52.6521 55.1171 52.5201 56.2691C52.4001 57.2531 52.2921 57.9431 52.1961 58.3391C52.1121 58.7351 51.9741 58.9331 51.7821 58.9331ZM66.0198 58.9331C65.4438 58.9331 64.8438 58.7471 64.2198 58.3751C63.5958 57.9911 63.0798 57.5231 62.6718 56.9711C62.2638 56.4191 62.0598 55.8971 62.0598 55.4051C62.0598 54.5291 62.2638 53.5691 62.6718 52.5251C63.0918 51.4811 63.6678 50.5991 64.3998 49.8791C65.1318 49.1471 65.9598 48.7811 66.8838 48.7811C67.5438 48.7811 68.1378 48.9251 68.6658 49.2131C69.2058 49.5011 69.6258 49.8611 69.9258 50.2931C70.2258 50.7251 70.3758 51.1451 70.3758 51.5531C70.3758 52.0571 70.1478 52.5551 69.6918 53.0471C69.2358 53.5271 68.5998 53.9531 67.7838 54.3251C66.9678 54.6851 66.0378 54.9431 64.9938 55.0991C64.9818 55.2431 64.9758 55.4591 64.9758 55.7471C64.9758 56.1071 64.9878 56.3771 65.0118 56.5571C65.6118 56.4971 66.2058 56.3351 66.7938 56.0711C67.3818 55.8071 68.0238 55.4351 68.7198 54.9551C69.1878 55.0991 69.5418 55.3271 69.7818 55.6391C70.0218 55.9511 70.1418 56.3231 70.1418 56.7551C70.1418 57.1151 69.9198 57.4691 69.4758 57.8171C69.0438 58.1531 68.5038 58.4231 67.8558 58.6271C67.2078 58.8311 66.5958 58.9331 66.0198 58.9331ZM65.2638 53.7491C65.9958 53.4851 66.6078 53.1491 67.0998 52.7411C67.5918 52.3331 67.8378 51.9851 67.8378 51.6971C67.8378 51.3611 67.6038 51.1331 67.1358 51.0131C66.6798 51.3491 66.2898 51.7511 65.9658 52.2191C65.6538 52.6871 65.4198 53.1971 65.2638 53.7491ZM74.3814 58.9331C74.0574 58.9331 73.7034 58.8311 73.3194 58.6271C72.9354 58.4111 72.6054 58.1651 72.3294 57.8891C72.0534 57.6011 71.9154 57.3611 71.9154 57.1691C71.9154 56.9411 71.9634 56.6471 72.0594 56.2871C72.1554 55.9151 72.2994 55.4351 72.4914 54.8471C72.6834 54.2351 72.8274 53.7491 72.9234 53.3891C73.0194 53.0171 73.0674 52.7171 73.0674 52.4891C73.0674 52.3931 73.0134 52.2911 72.9054 52.1831C72.7974 52.0751 72.6294 51.9311 72.4014 51.7511C72.1374 51.5351 71.9454 51.3671 71.8254 51.2471C71.7054 51.1271 71.6454 51.0071 71.6454 50.8871C71.6454 50.6351 71.7654 50.3411 72.0054 50.0051C72.2454 49.6691 72.5274 49.3811 72.8514 49.1411C73.1754 48.9011 73.4514 48.7811 73.6794 48.7811C73.9314 48.7811 74.2194 48.8951 74.5434 49.1231C74.8674 49.3511 75.1494 49.6151 75.3894 49.9151C75.6294 50.2031 75.7494 50.4251 75.7494 50.5811C75.7494 51.0371 75.6594 51.6371 75.4794 52.3811L75.6954 52.4891C75.9714 52.0451 76.2714 51.5171 76.5954 50.9051C76.9314 50.2811 77.1354 49.8971 77.2074 49.7531L77.5494 49.1051C78.3774 49.0811 78.9954 49.2311 79.4034 49.5551C79.8114 49.8791 80.0154 50.3111 80.0154 50.8511C80.0154 51.3791 79.8414 51.9071 79.4934 52.4351C78.6294 52.7231 77.8914 53.0111 77.2794 53.2991C76.6794 53.5751 76.0734 53.9051 75.4614 54.2891C75.4254 55.6211 75.3174 56.7311 75.1374 57.6191C74.9694 58.4951 74.7174 58.9331 74.3814 58.9331ZM83.2052 56.5571C84.3332 56.5091 85.3772 55.9271 86.3372 54.8111C86.9252 54.9191 87.3932 55.1411 87.7412 55.4771C88.1012 55.8131 88.2812 56.2391 88.2812 56.7551C88.2812 57.1271 88.0652 57.4811 87.6332 57.8171C87.2132 58.1531 86.6852 58.4231 86.0492 58.6271C85.4132 58.8311 84.8012 58.9331 84.2132 58.9331C83.6372 58.9331 83.0372 58.7471 82.4132 58.3751C81.7892 57.9911 81.2732 57.5231 80.8652 56.9711C80.4572 56.4191 80.2532 55.8971 80.2532 55.4051C80.2532 54.4571 80.4692 53.4671 80.9012 52.4351C81.3452 51.3911 81.9572 50.5211 82.7372 49.8251C83.5172 49.1291 84.3932 48.7811 85.3652 48.7811C85.9652 48.7811 86.5352 48.8891 87.0752 49.1051C87.6152 49.3211 88.0472 49.6091 88.3712 49.9691C88.6952 50.3291 88.8572 50.7011 88.8572 51.0851C88.8572 51.4571 88.6952 51.7931 88.3712 52.0931C88.0472 52.3811 87.6212 52.5251 87.0932 52.5251C86.9252 52.5251 86.7512 52.5071 86.5712 52.4711C86.2712 51.7391 85.9412 51.2231 85.5812 50.9231C84.7892 51.4391 84.1892 52.1591 83.7812 53.0831C83.3732 54.0071 83.1692 54.9491 83.1692 55.9091C83.1692 56.0531 83.1812 56.2691 83.2052 56.5571ZM92.6167 55.1531C92.5807 56.0891 92.4907 56.9531 92.3467 57.7451C92.2027 58.5371 92.0047 58.9331 91.7527 58.9331C91.4527 58.9331 91.1047 58.8311 90.7087 58.6271C90.3127 58.4231 89.9707 58.1831 89.6827 57.9071C89.4067 57.6191 89.2687 57.3731 89.2687 57.1691C89.2687 57.0251 89.3167 56.7791 89.4127 56.4311C89.5087 56.0711 89.6227 55.6751 89.7547 55.2431C90.2227 53.7071 90.5887 52.3331 90.8527 51.1211C90.9967 50.4491 91.1227 49.7531 91.2307 49.0331C91.3987 48.0731 91.5427 47.3351 91.6627 46.8191C91.7827 46.3031 91.9327 45.8711 92.1127 45.5231C92.3047 45.1631 92.5387 44.9831 92.8147 44.9831C93.0187 44.9831 93.3187 45.1091 93.7147 45.3611C94.1227 45.6011 94.4827 45.8831 94.7947 46.2071C95.1067 46.5191 95.2627 46.7771 95.2627 46.9811C95.2627 47.1611 95.1967 47.3651 95.0647 47.5931C94.9447 47.8091 94.7407 48.1211 94.4527 48.5291C94.3927 48.6131 94.2787 48.7811 94.1107 49.0331C93.9547 49.2851 93.8407 49.4951 93.7687 49.6631C93.6247 50.0111 93.4627 50.4551 93.2827 50.9951C93.1147 51.5351 92.9707 52.0631 92.8507 52.5791L93.1747 52.7591C93.9547 51.7031 94.6327 50.8571 95.2087 50.2211C95.7967 49.5851 96.2527 49.2671 96.5767 49.2671C96.8047 49.2671 97.0807 49.3811 97.4047 49.6091C97.7287 49.8371 98.0107 50.1011 98.2507 50.4011C98.4907 50.6891 98.6107 50.9111 98.6107 51.0671C98.5987 51.2831 98.5267 51.5951 98.3947 52.0031C98.2747 52.3991 98.0827 52.9571 97.8187 53.6771C97.4827 54.5411 97.1827 55.3871 96.9187 56.2151C97.2907 56.0711 97.6027 55.9271 97.8547 55.7831C98.1067 55.6391 98.4007 55.4411 98.7367 55.1891C99.2407 55.4051 99.6067 55.6751 99.8347 55.9991C100.075 56.3231 100.183 56.7191 100.159 57.1871C100.159 57.4751 99.9367 57.7511 99.4927 58.0151C99.0607 58.2791 98.5567 58.5011 97.9807 58.6811C97.4167 58.8491 96.9667 58.9331 96.6307 58.9331C96.3547 58.9331 96.0367 58.8251 95.6767 58.6091C95.3167 58.3931 95.0047 58.1471 94.7407 57.8711C94.4767 57.5831 94.3507 57.3611 94.3627 57.2051C94.3627 57.1091 94.4227 56.8811 94.5427 56.5211C94.6627 56.1491 94.7407 55.8971 94.7767 55.7651C95.0047 55.0451 95.1727 54.4751 95.2807 54.0551C95.4007 53.6231 95.4607 53.3051 95.4607 53.1011C95.4607 52.9571 95.4307 52.8851 95.3707 52.8851C95.1067 52.8851 94.7107 53.1131 94.1827 53.5691C93.6547 54.0251 93.1327 54.5531 92.6167 55.1531ZM109.383 56.2871C110.115 55.9271 110.733 55.5431 111.237 55.1351C111.765 55.3151 112.155 55.5671 112.407 55.8911C112.671 56.2031 112.803 56.5631 112.803 56.9711C112.803 57.2591 112.599 57.5591 112.191 57.8711C111.783 58.1711 111.297 58.4231 110.733 58.6271C110.169 58.8311 109.689 58.9331 109.293 58.9331C109.017 58.9331 108.699 58.8311 108.339 58.6271C107.991 58.4231 107.685 58.1831 107.421 57.9071C107.169 57.6311 107.043 57.4151 107.043 57.2591C107.043 57.1391 107.091 56.9771 107.187 56.7731C107.295 56.5691 107.409 56.3591 107.529 56.1431C107.649 55.9271 107.727 55.7831 107.763 55.7111L107.313 55.4591C106.677 56.5031 106.065 57.3431 105.477 57.9791C104.901 58.6151 104.331 58.9331 103.767 58.9331C103.383 58.9331 102.975 58.7651 102.543 58.4291C102.123 58.0931 101.763 57.6851 101.463 57.2051C101.175 56.7251 101.031 56.2991 101.031 55.9271C101.031 54.8591 101.253 53.7671 101.697 52.6511C102.141 51.5351 102.759 50.6111 103.551 49.8791C104.355 49.1471 105.261 48.7811 106.269 48.7811C106.629 48.7811 106.995 48.9431 107.367 49.2671C107.739 49.5911 107.979 49.9211 108.087 50.2571C108.147 49.9931 108.231 49.7651 108.339 49.5731C108.459 49.3691 108.585 49.2671 108.717 49.2671C109.029 49.2671 109.371 49.3811 109.743 49.6091C110.127 49.8251 110.451 50.0831 110.715 50.3831C110.979 50.6711 111.111 50.8991 111.111 51.0671C111.099 51.2951 111.003 51.6731 110.823 52.2011C110.655 52.7291 110.379 53.5331 109.995 54.6131C109.767 55.2011 109.563 55.7591 109.383 56.2871ZM103.857 56.4311C104.829 55.8311 105.675 55.0931 106.395 54.2171C107.115 53.3291 107.607 52.3511 107.871 51.2831C107.547 51.1391 107.241 51.0671 106.953 51.0671C106.389 51.0671 105.885 51.3191 105.441 51.8231C104.997 52.3271 104.643 52.9871 104.379 53.8031C104.115 54.6191 103.941 55.4951 103.857 56.4311ZM123.12 55.1351C123.648 55.3151 124.038 55.5671 124.29 55.8911C124.554 56.2031 124.686 56.5631 124.686 56.9711C124.686 57.2591 124.482 57.5591 124.074 57.8711C123.666 58.1711 123.18 58.4231 122.616 58.6271C122.052 58.8311 121.572 58.9331 121.176 58.9331C120.9 58.9331 120.582 58.8251 120.222 58.6091C119.862 58.3931 119.55 58.1471 119.286 57.8711C119.034 57.5831 118.908 57.3611 118.908 57.2051C118.908 57.0851 119.04 56.6171 119.304 55.8011C119.772 54.3731 120.006 53.4731 120.006 53.1011C120.006 52.9571 119.97 52.8851 119.898 52.8851C119.418 52.8851 118.524 53.7251 117.216 55.4051C117.168 55.5971 117.114 55.8371 117.054 56.1251C117.006 56.4131 116.97 56.6171 116.946 56.7371C116.814 57.4451 116.688 57.9911 116.568 58.3751C116.46 58.7471 116.316 58.9331 116.136 58.9331C115.824 58.9331 115.47 58.8311 115.074 58.6271C114.69 58.4111 114.354 58.1651 114.066 57.8891C113.79 57.6011 113.652 57.3611 113.652 57.1691C113.652 56.9531 113.73 56.6351 113.886 56.2151C114.042 55.7951 114.276 55.2191 114.588 54.4871C114.828 53.9231 115.008 53.4851 115.128 53.1731C115.248 52.8491 115.308 52.6211 115.308 52.4891C115.308 52.3931 115.248 52.2911 115.128 52.1831C115.02 52.0631 114.852 51.9191 114.624 51.7511C114.36 51.5471 114.162 51.3851 114.03 51.2651C113.91 51.1451 113.85 51.0191 113.85 50.8871C113.85 50.6351 113.964 50.3411 114.192 50.0051C114.432 49.6691 114.708 49.3811 115.02 49.1411C115.344 48.9011 115.62 48.7811 115.848 48.7811C116.1 48.7811 116.388 48.8951 116.712 49.1231C117.048 49.3511 117.336 49.6151 117.576 49.9151C117.828 50.2031 117.954 50.4251 117.954 50.5811C117.954 50.8691 117.918 51.2231 117.846 51.6431C117.786 52.0631 117.702 52.4771 117.594 52.8851C118.47 51.7331 119.196 50.8451 119.772 50.2211C120.348 49.5851 120.798 49.2671 121.122 49.2671C121.35 49.2671 121.626 49.3811 121.95 49.6091C122.274 49.8371 122.55 50.1011 122.778 50.4011C123.018 50.6891 123.138 50.9111 123.138 51.0671C123.126 51.2711 123.042 51.6191 122.886 52.1111C122.73 52.6031 122.508 53.2571 122.22 54.0731C121.836 55.1291 121.59 55.8431 121.482 56.2151C121.854 56.0231 122.142 55.8611 122.346 55.7291C122.562 55.5851 122.82 55.3871 123.12 55.1351ZM129.495 51.8591C129.099 53.6711 128.841 55.1471 128.721 56.2871C129.489 55.9151 130.107 55.5311 130.575 55.1351C131.103 55.3151 131.493 55.5671 131.745 55.8911C132.009 56.2031 132.141 56.5631 132.141 56.9711C132.141 57.2591 131.937 57.5591 131.529 57.8711C131.121 58.1711 130.635 58.4231 130.071 58.6271C129.507 58.8311 129.027 58.9331 128.631 58.9331C128.283 58.9331 127.893 58.8311 127.461 58.6271C127.041 58.4111 126.681 58.1651 126.381 57.8891C126.081 57.6011 125.931 57.3551 125.931 57.1511C125.931 56.9831 125.991 56.6231 126.111 56.0711C126.243 55.5071 126.357 55.0271 126.453 54.6311C126.561 54.2231 126.639 53.9231 126.687 53.7311L127.119 52.0031L126.021 52.0751C125.817 51.9791 125.661 51.8291 125.553 51.6251C125.445 51.4211 125.391 51.1871 125.391 50.9231C125.391 50.4431 125.565 50.0351 125.913 49.6991C126.345 49.7231 126.873 49.7471 127.497 49.7711C127.497 49.0031 127.581 48.1571 127.749 47.2331C127.917 46.2971 128.103 45.8291 128.307 45.8291C128.559 45.8291 128.877 45.9371 129.261 46.1531C129.645 46.3691 129.981 46.6211 130.269 46.9091C130.557 47.1971 130.701 47.4491 130.701 47.6651C130.701 47.9411 130.647 48.2231 130.539 48.5111C130.443 48.7871 130.281 49.1711 130.053 49.6631C130.257 49.6391 130.773 49.5551 131.601 49.4111L132.015 49.3391C132.231 49.4591 132.393 49.6331 132.501 49.8611C132.621 50.0891 132.681 50.3351 132.681 50.5991C132.681 50.8151 132.639 51.0251 132.555 51.2291C132.471 51.4331 132.345 51.6071 132.177 51.7511L129.495 51.8591Z" fill="#94ACF9"/>
</svg>
