
<svg width="273" height="37" viewBox="0 0 273 37" fill="none" xmlns="http://www.w3.org/2000/svg">
<path d="M2.84078 19.24C3.34745 19.64 4.21411 20.1867 5.44078 20.88C6.69411 21.5733 7.88078 21.92 9.00078 21.92C10.1474 21.92 10.7208 21.48 10.7208 20.6C10.7208 20.2 10.5608 19.8533 10.2408 19.56C9.92078 19.24 9.33412 18.88 8.48078 18.48C7.62745 18.08 6.98745 17.7733 6.56078 17.56C6.13412 17.32 5.56078 16.9467 4.84078 16.44C4.14745 15.9067 3.61411 15.36 3.24078 14.8C2.17411 13.28 1.64078 11.3467 1.64078 9C1.64078 6.65333 2.50745 4.68 4.24078 3.08C6.00078 1.45333 8.29411 0.639998 11.1208 0.639998C13.0408 0.639998 14.8141 0.853332 16.4408 1.28C18.0674 1.68 18.9074 2.21333 18.9608 2.88C18.9608 2.96 18.9608 3.04 18.9608 3.12C18.9608 4.05333 18.6674 5.24 18.0808 6.68C17.4941 8.09333 17.0808 8.88 16.8408 9.04C15.1341 8.16 13.6008 7.72 12.2408 7.72C10.9074 7.72 10.2408 8.2 10.2408 9.16C10.2408 9.74667 10.7341 10.2667 11.7208 10.72C11.9341 10.8267 12.2408 10.9733 12.6408 11.16C13.0408 11.3467 13.4941 11.5733 14.0008 11.84C14.5341 12.08 15.0941 12.4 15.6808 12.8C16.2941 13.1733 16.9474 13.68 17.6408 14.32C19.0541 15.6533 19.7608 17.4133 19.7608 19.6C19.7608 22.4533 18.9741 24.7867 17.4008 26.6C15.8274 28.4133 13.4008 29.3467 10.1208 29.4C8.52078 29.4 7.06745 29.2667 5.76078 29C4.48078 28.7333 3.36078 28.2133 2.40078 27.44C1.44078 26.6667 0.960781 25.7333 0.960781 24.64C0.960781 23.5467 1.16078 22.4667 1.56078 21.4C1.96078 20.3067 2.38745 19.5867 2.84078 19.24ZM32.0508 28.76C32.0508 29.08 30.9308 29.24 28.6908 29.24C26.0241 29.1333 24.6908 28.96 24.6908 28.72V14.56H22.6508C22.1174 14.56 21.8508 13.64 21.8508 11.8C21.8508 11.32 21.8908 10.7333 21.9708 10.04C22.0774 9.34667 22.2774 9 22.5708 9H24.6908V5.48C24.6908 4.94667 25.8108 4.68 28.0508 4.68C30.3174 4.68 31.4508 4.89333 31.4508 5.32V7.88L31.4908 9H34.8908C35.3441 9 35.5708 9.93333 35.5708 11.8C35.5708 13.6667 35.3441 14.6 34.8908 14.6H32.0508V28.76ZM52.6973 27.92C51.0173 28.9067 48.8573 29.4 46.2173 29.4C43.5773 29.4 41.3507 28.5067 39.5373 26.72C37.724 24.9067 36.8173 22.4133 36.8173 19.24C36.8173 16.04 37.684 13.4667 39.4173 11.52C41.1773 9.57333 43.3907 8.6 46.0573 8.6C48.724 8.6 50.7773 9.28 52.2173 10.64C53.684 12 54.4173 13.6533 54.4173 15.6C54.4173 19.92 51.9373 22.08 46.9773 22.08H44.2173C44.2173 22.88 44.4307 23.44 44.8573 23.76C45.3107 24.0533 45.964 24.2 46.8173 24.2C48.684 24.2 50.4573 23.7733 52.1373 22.92C52.164 22.8933 52.284 23.08 52.4973 23.48C53.1373 24.6267 53.4573 25.6 53.4573 26.4C53.4573 27.1733 53.204 27.68 52.6973 27.92ZM47.6973 16.36C47.6973 15.24 47.1507 14.68 46.0573 14.68C45.5507 14.68 45.1107 14.84 44.7373 15.16C44.3907 15.4533 44.2173 15.8933 44.2173 16.48V17.72H46.3773C47.2573 17.72 47.6973 17.2667 47.6973 16.36ZM64.3105 28.68C64.3105 28.92 62.9505 29.04 60.2305 29.04C58.0971 29.0133 57.0305 28.9067 57.0305 28.72V1.48C57.0305 1.08 58.3238 0.88 60.9105 0.88C63.1771 0.959999 64.3105 1.09333 64.3105 1.28V28.68ZM75.2089 28.68C75.2089 28.92 73.8489 29.04 71.1289 29.04C68.9956 29.0133 67.9289 28.9067 67.9289 28.72V1.48C67.9289 1.08 69.2222 0.88 71.8089 0.88C74.0756 0.959999 75.2089 1.09333 75.2089 1.28V28.68ZM81.3473 14.48C80.6007 13.1467 80.2273 12.0667 80.2273 11.24C80.2273 10.3867 80.454 9.84 80.9073 9.6C82.4273 8.93333 84.5073 8.6 87.1473 8.6C89.814 8.6 91.694 9.22666 92.7873 10.48C93.8807 11.7067 94.4273 13.5333 94.4273 15.96V22.28H95.7873C96.2407 22.28 96.5873 22.5467 96.8273 23.08C97.094 23.6133 97.2273 24.3467 97.2273 25.28C97.2273 26.2133 96.9873 27.1333 96.5073 28.04C96.054 28.9467 95.4273 29.4 94.6273 29.4C93.1873 29.4 92.0273 29.0133 91.1473 28.24C90.7473 27.92 90.4407 27.5333 90.2273 27.08C89.0007 28.6267 87.094 29.4 84.5073 29.4C82.5607 29.4 80.9207 28.7067 79.5873 27.32C78.254 25.9333 77.5873 24.2933 77.5873 22.4C77.5873 18.0533 80.1873 15.88 85.3873 15.88H87.5873V15.48C87.5873 14.7867 87.4673 14.3467 87.2273 14.16C87.014 13.9467 86.494 13.84 85.6673 13.84C84.654 13.84 83.214 14.0533 81.3473 14.48ZM84.5473 21.84C84.5473 22.4267 84.7073 22.88 85.0273 23.2C85.3473 23.4933 85.7473 23.64 86.2273 23.64C86.734 23.64 87.1873 23.44 87.5873 23.04V19.96H86.4673C85.1873 19.96 84.5473 20.5867 84.5473 21.84ZM108.251 28.96C108.251 29.1467 107.038 29.24 104.611 29.24C102.185 29.1867 100.971 29.08 100.971 28.92V15.64H99.8914C99.4647 15.64 99.1181 15.3867 98.8514 14.88C98.6114 14.3467 98.4914 13.6933 98.4914 12.92C98.4914 10.04 99.3447 8.6 101.051 8.6C102.251 8.6 103.251 8.97333 104.051 9.72C104.851 10.44 105.251 11.2667 105.251 12.2C105.811 11.1067 106.558 10.24 107.491 9.6C108.451 8.93333 109.425 8.6 110.411 8.6C111.958 8.6 112.891 9 113.211 9.8C113.291 10.0133 113.331 10.3333 113.331 10.76C113.331 11.16 113.198 11.8933 112.931 12.96C112.691 14.0267 112.438 14.8 112.171 15.28C111.905 15.76 111.745 16 111.691 16C111.638 16 111.385 15.9067 110.931 15.72C110.505 15.5067 110.118 15.4 109.771 15.4C108.758 15.4 108.251 16.2 108.251 17.8V28.96Z" fill="url(#paint0_linear_67_7)"/>
<path d="M130.391 2.08C130.711 1.28 132.377 0.88 135.391 0.88C136.164 0.88 137.111 0.946666 138.231 1.08C139.377 1.18667 139.951 1.29333 139.951 1.4L133.151 15.24L140.191 28.48C140.271 28.6133 139.697 28.7467 138.471 28.88C137.244 28.9867 136.204 29.04 135.351 29.04C131.964 29.04 130.111 28.5867 129.791 27.68L126.791 20.04L124.071 27.92C123.804 28.6667 122.097 29.04 118.951 29.04C118.177 29.04 117.217 28.9867 116.071 28.88C114.924 28.7733 114.404 28.6267 114.511 28.44L120.751 14.6L114.271 1.4C114.191 1.26666 114.737 1.14666 115.911 1.04C117.111 0.906664 118.124 0.839998 118.951 0.839998C122.311 0.839998 124.151 1.32 124.471 2.28L127.231 9L130.391 2.08Z" fill="black"/>
<path d="M146.335 29.08C143.909 29.08 142.695 28.8133 142.695 28.28V2.36C142.695 1.45333 143.109 0.999998 143.935 0.999998H150.975C154.922 0.999998 157.762 1.81333 159.495 3.44C161.255 5.06667 162.135 7.42667 162.135 10.52C162.135 13.08 161.309 15.4267 159.655 17.56C158.829 18.6267 157.615 19.48 156.015 20.12C154.415 20.76 152.549 21.08 150.415 21.08V28.24C150.415 28.56 149.909 28.7867 148.895 28.92C147.909 29.0267 147.055 29.08 146.335 29.08ZM150.415 7.96V14.28H150.935C151.869 14.28 152.655 13.9867 153.295 13.4C153.935 12.8133 154.255 11.9867 154.255 10.92C154.255 9.85333 154.029 9.09333 153.575 8.64C153.149 8.18667 152.375 7.96 151.255 7.96H150.415ZM172.748 28.68C172.748 28.92 171.388 29.04 168.668 29.04C166.535 29.0133 165.468 28.9067 165.468 28.72V1.48C165.468 1.08 166.761 0.88 169.348 0.88C171.615 0.959999 172.748 1.09333 172.748 1.28V28.68ZM176.166 9.24C176.166 8.94667 177.313 8.8 179.606 8.8C181.9 8.8 183.046 8.94667 183.046 9.24V20.92C183.046 22.2533 183.473 22.92 184.326 22.92C184.966 22.92 185.686 22.64 186.486 22.08V9.24C186.486 8.97333 187.62 8.84 189.886 8.84C192.153 8.84 193.286 8.97333 193.286 9.24V22.36H194.326C195.233 22.36 195.686 23.2267 195.686 24.96C195.686 25.84 195.5 26.7333 195.126 27.64C194.593 28.8133 193.873 29.4 192.966 29.4C191.18 29.4 189.86 28.6667 189.006 27.2L188.966 27.24C187.34 28.68 185.593 29.4 183.726 29.4C181.14 29.4 179.233 28.76 178.006 27.48C176.78 26.1733 176.166 24.0267 176.166 21.04V9.24ZM207.324 28.76C207.324 29.08 206.204 29.24 203.964 29.24C201.298 29.1333 199.964 28.96 199.964 28.72V14.56H197.924C197.391 14.56 197.124 13.64 197.124 11.8C197.124 11.32 197.164 10.7333 197.244 10.04C197.351 9.34667 197.551 9 197.844 9H199.964V5.48C199.964 4.94667 201.084 4.68 203.324 4.68C205.591 4.68 206.724 4.89333 206.724 5.32V7.88L206.764 9H210.164C210.618 9 210.844 9.93333 210.844 11.8C210.844 13.6667 210.618 14.6 210.164 14.6H207.324V28.76ZM214.571 26.64C212.917 24.8 212.091 22.2533 212.091 19C212.091 15.7467 212.917 13.2 214.571 11.36C216.251 9.52 218.504 8.6 221.331 8.6C224.157 8.6 226.397 9.52 228.051 11.36C229.704 13.2 230.531 15.7467 230.531 19C230.531 22.2533 229.704 24.8 228.051 26.64C226.397 28.48 224.157 29.4 221.331 29.4C218.504 29.4 216.251 28.48 214.571 26.64ZM221.331 15.28C219.837 15.28 219.091 16.5067 219.091 18.96C219.091 21.4133 219.837 22.64 221.331 22.64C222.851 22.64 223.611 21.4133 223.611 18.96C223.611 16.5067 222.851 15.28 221.331 15.28ZM241.959 36.28C241.959 36.4667 240.812 36.56 238.519 36.56C236.252 36.56 235.119 36.4667 235.119 36.28V15.68H233.759C233.119 15.68 232.679 15.0933 232.439 13.92C232.359 13.5467 232.319 13.0667 232.319 12.48C232.319 11.8933 232.505 11.2 232.879 10.4C233.412 9.22667 234.265 8.64 235.439 8.64C236.212 8.64 236.919 8.82667 237.559 9.2C238.225 9.54667 238.679 9.88 238.919 10.2C239.185 10.4933 239.319 10.6667 239.319 10.72C241.105 9.33333 243.039 8.64 245.119 8.64C247.199 8.64 248.985 9.45333 250.479 11.08C251.972 12.68 252.719 15.1733 252.719 18.56C252.719 21.92 251.972 24.5333 250.479 26.4C248.985 28.24 247.092 29.16 244.799 29.16C243.759 29.16 242.812 29.1067 241.959 29V36.28ZM243.599 15.64C243.145 15.64 242.705 15.7867 242.279 16.08V23.16C242.732 23.2133 243.092 23.24 243.359 23.24C243.652 23.24 243.879 23.24 244.039 23.24C245.132 23.1333 245.679 21.7333 245.679 19.04C245.679 16.7733 244.985 15.64 243.599 15.64ZM270.666 27.92C268.986 28.9067 266.826 29.4 264.186 29.4C261.546 29.4 259.319 28.5067 257.506 26.72C255.693 24.9067 254.786 22.4133 254.786 19.24C254.786 16.04 255.653 13.4667 257.386 11.52C259.146 9.57333 261.359 8.6 264.026 8.6C266.693 8.6 268.746 9.28 270.186 10.64C271.653 12 272.386 13.6533 272.386 15.6C272.386 19.92 269.906 22.08 264.946 22.08H262.186C262.186 22.88 262.399 23.44 262.826 23.76C263.279 24.0533 263.933 24.2 264.786 24.2C266.653 24.2 268.426 23.7733 270.106 22.92C270.133 22.8933 270.253 23.08 270.466 23.48C271.106 24.6267 271.426 25.6 271.426 26.4C271.426 27.1733 271.173 27.68 270.666 27.92ZM265.666 16.36C265.666 15.24 265.119 14.68 264.026 14.68C263.519 14.68 263.079 14.84 262.706 15.16C262.359 15.4533 262.186 15.8933 262.186 16.48V17.72H264.346C265.226 17.72 265.666 17.2667 265.666 16.36Z" fill="url(#paint1_linear_67_7)"/>
<defs>
<linearGradient id="paint0_linear_67_7" x1="-3" y1="18" x2="276" y2="18" gradientUnits="userSpaceOnUse">
<stop stop-color="#0093E9"/>
<stop offset="0.528857" stop-color="#44B3D7"/>
<stop offset="1" stop-color="#80D0C7"/>
</linearGradient>
<linearGradient id="paint1_linear_67_7" x1="-3" y1="18" x2="276" y2="18" gradientUnits="userSpaceOnUse">
<stop stop-color="#80D0C7"/>
<stop offset="1" stop-color="#0093E9"/>
</linearGradient>
</defs>
</svg>
