
<svg width="70" height="30" viewBox="0 0 70 30" fill="none" xmlns="http://www.w3.org/2000/svg">
<path d="M2.85641 19.24C3.36307 19.64 4.22974 20.1867 5.45641 20.88C6.70974 21.5733 7.89641 21.92 9.01641 21.92C10.1631 21.92 10.7364 21.48 10.7364 20.6C10.7364 20.2 10.5764 19.8533 10.2564 19.56C9.93641 19.24 9.34974 18.88 8.49641 18.48C7.64307 18.08 7.00307 17.7733 6.57641 17.56C6.14974 17.32 5.57641 16.9467 4.85641 16.44C4.16307 15.9067 3.62974 15.36 3.25641 14.8C2.18974 13.28 1.65641 11.3467 1.65641 9C1.65641 6.65333 2.52307 4.68 4.25641 3.08C6.01641 1.45333 8.30974 0.639998 11.1364 0.639998C13.0564 0.639998 14.8297 0.853332 16.4564 1.28C18.0831 1.68 18.9231 2.21333 18.9764 2.88C18.9764 2.96 18.9764 3.04 18.9764 3.12C18.9764 4.05333 18.6831 5.24 18.0964 6.68C17.5097 8.09333 17.0964 8.88 16.8564 9.04C15.1497 8.16 13.6164 7.72 12.2564 7.72C10.9231 7.72 10.2564 8.2 10.2564 9.16C10.2564 9.74667 10.7497 10.2667 11.7364 10.72C11.9497 10.8267 12.2564 10.9733 12.6564 11.16C13.0564 11.3467 13.5097 11.5733 14.0164 11.84C14.5497 12.08 15.1097 12.4 15.6964 12.8C16.3097 13.1733 16.9631 13.68 17.6564 14.32C19.0697 15.6533 19.7764 17.4133 19.7764 19.6C19.7764 22.4533 18.9897 24.7867 17.4164 26.6C15.8431 28.4133 13.4164 29.3467 10.1364 29.4C8.53641 29.4 7.08307 29.2667 5.77641 29C4.49641 28.7333 3.37641 28.2133 2.41641 27.44C1.45641 26.6667 0.976406 25.7333 0.976406 24.64C0.976406 23.5467 1.17641 22.4667 1.57641 21.4C1.97641 20.3067 2.40307 19.5867 2.85641 19.24Z" fill="url(#paint0_linear_67_7)"/>
<path d="M37.9064 2.08C38.2264 1.28 39.8931 0.88 42.9064 0.88C43.6797 0.88 44.6264 0.946666 45.7464 1.08C46.8931 1.18667 47.4664 1.29333 47.4664 1.4L40.6664 15.24L47.7064 28.48C47.7864 28.6133 47.2131 28.7467 45.9864 28.88C44.7597 28.9867 43.7197 29.04 42.8664 29.04C39.4797 29.04 37.6264 28.5867 37.3064 27.68L34.3064 20.04L31.5864 27.92C31.3197 28.6667 29.6131 29.04 26.4664 29.04C25.6931 29.04 24.7331 28.9867 23.5864 28.88C22.4397 28.7733 21.9197 28.6267 22.0264 28.44L28.2664 14.6L21.7864 1.4C21.7064 1.26666 22.2531 1.14666 23.4264 1.04C24.6264 0.906664 25.6397 0.839998 26.4664 0.839998C29.8264 0.839998 31.6664 1.32 31.9864 2.28L34.7464 9L37.9064 2.08Z" fill="black"/>
<path d="M53.8511 29.08C51.4244 29.08 50.2111 28.8133 50.2111 28.28V2.36C50.2111 1.45333 50.6244 0.999998 51.4511 0.999998H58.4911C62.4378 0.999998 65.2778 1.81333 67.0111 3.44C68.7711 5.06667 69.6511 7.42667 69.6511 10.52C69.6511 13.08 68.8244 15.4267 67.1711 17.56C66.3444 18.6267 65.1311 19.48 63.5311 20.12C61.9311 20.76 60.0644 21.08 57.9311 21.08V28.24C57.9311 28.56 57.4244 28.7867 56.4111 28.92C55.4244 29.0267 54.5711 29.08 53.8511 29.08ZM57.9311 7.96V14.28H58.4511C59.3844 14.28 60.1711 13.9867 60.8111 13.4C61.4511 12.8133 61.7711 11.9867 61.7711 10.92C61.7711 9.85333 61.5444 9.09333 61.0911 8.64C60.6644 8.18667 59.8911 7.96 58.7711 7.96H57.9311Z" fill="url(#paint1_linear_67_7)"/>
<defs>
<linearGradient id="paint0_linear_67_7" x1="-2" y1="15" x2="73" y2="15" gradientUnits="userSpaceOnUse">
<stop stop-color="#0093E9"/>
<stop offset="0.528857" stop-color="#44B3D7"/>
<stop offset="1" stop-color="#80D0C7"/>
</linearGradient>
<linearGradient id="paint1_linear_67_7" x1="-2" y1="15" x2="73" y2="15" gradientUnits="userSpaceOnUse">
<stop stop-color="#80D0C7"/>
<stop offset="1" stop-color="#0093E9"/>
</linearGradient>
</defs>
</svg>
