<svg width="236" height="100" viewBox="0 0 236 100" fill="none" xmlns="http://www.w3.org/2000/svg">
<path d="M10.2592 58.8236H0.362305L9.03666 18.0716H25.8614C29.9366 18.0716 33.2744 19.2359 35.8748 21.5646C38.5139 23.8545 39.8335 26.6683 39.8335 30.0061C39.8335 34.8187 38.1258 38.7387 34.7104 41.766C31.3338 44.7932 26.9675 46.3069 21.6116 46.3069H12.9372L10.2592 58.8236ZM17.0706 26.8042L14.8001 37.5744H22.7759C24.6388 37.5744 26.2301 36.9146 27.5497 35.5949C28.9081 34.2753 29.5873 32.7035 29.5873 30.8794C29.5873 29.6374 29.1798 28.6477 28.3648 27.9103C27.5497 27.1729 26.4436 26.8042 25.0463 26.8042H17.0706ZM49.5353 58.8236H40.2206L49.3606 15.7429H58.6753L49.5353 58.8236ZM60.6993 44.735L64.0759 28.5507H73.3906L69.7227 45.8994C69.4122 47.413 69.6259 48.6356 70.3632 49.567C71.1397 50.4597 72.3233 50.9061 73.9148 50.9061C75.4285 50.9061 76.7671 50.4403 77.9318 49.5089C79.1344 48.5774 79.8913 47.3742 80.2018 45.8994L83.8697 28.5507H93.1848L89.2841 47.0637C88.4691 51.0225 86.5671 54.0692 83.5789 56.2038C80.6292 58.3384 76.9998 59.4057 72.6919 59.4057C68.3841 59.4057 65.085 58.028 62.7951 55.2723C60.5053 52.5167 59.8067 49.0043 60.6993 44.735ZM103.131 36.7011H97.3089L99.0553 28.5507H104.877L106.623 20.4003L116.521 17.4895L114.192 28.5507H121.469L119.723 36.7011H112.446L110.233 47.1802C109.767 49.5089 110.68 50.6732 112.969 50.6732H116.753L115.007 58.8236H111.863C107.672 58.8236 104.625 57.6786 102.723 55.3887C100.821 53.0989 100.297 49.9746 101.151 46.0158L103.131 36.7011ZM122.998 46.1904C122.998 41.2226 124.823 36.9534 128.471 33.3827C132.158 29.7732 136.563 27.9685 141.686 27.9685C145.917 27.9685 149.351 29.1717 151.991 31.578C154.63 33.9455 155.949 37.1474 155.949 41.1838C155.949 46.1517 154.125 50.4403 150.477 54.0498C146.829 57.6204 142.463 59.4057 137.378 59.4057C133.109 59.4057 129.635 58.222 126.957 55.8545C124.318 53.4482 122.998 50.2268 122.998 46.1904ZM132.663 45.4336C132.663 47.0637 133.128 48.3833 134.06 49.3924C135.03 50.4015 136.311 50.9061 137.902 50.9061C140.192 50.9061 142.152 50.0134 143.782 48.2281C145.451 46.4039 146.285 44.3081 146.285 41.9406C146.285 40.3105 145.8 38.991 144.83 37.9819C143.898 36.9727 142.637 36.4682 141.046 36.4682C138.756 36.4682 136.776 37.3803 135.108 39.2044C133.478 40.9897 132.663 43.0661 132.663 45.4336ZM220.555 27.9685C225.716 27.9685 229.539 29.8702 232.023 33.6738C234.546 37.4385 234.934 41.9018 233.187 47.0637H211.123C211.395 48.4997 212.035 49.6059 213.044 50.3821C214.053 51.1195 215.295 51.4882 216.77 51.4882C219.72 51.4882 222.146 50.3627 224.048 48.1116L231.325 51.6047C229.772 53.8557 227.638 55.7187 224.921 57.1935C222.243 58.6683 219.351 59.4057 216.246 59.4057C211.977 59.4057 208.504 58.222 205.825 55.8545C203.186 53.4482 201.866 50.2268 201.866 46.1904C201.866 41.2226 203.691 36.9534 207.339 33.3827C211.026 29.7732 215.431 27.9685 220.555 27.9685ZM223.116 37.1086C222.146 36.2936 220.981 35.8861 219.623 35.8861C218.264 35.8861 216.925 36.2547 215.606 36.9921C214.325 37.7296 213.278 38.7581 212.462 40.0777H224.921C224.688 38.8745 224.086 37.8848 223.116 37.1086Z" fill="white"/>
<mask id="mask0_3_84" style="mask-type:luminance" maskUnits="userSpaceOnUse" x="158" y="29" width="40" height="71">
<path d="M197.136 29.1085H158.325V99.4543H197.136V29.1085Z" fill="white"/>
</mask>
<g mask="url(#mask0_3_84)">
<path d="M168.866 68.9725L163.765 61.5743C162.853 60.2523 162.422 58.6275 162.623 57.0188C162.663 56.6975 162.719 56.4456 162.795 56.3324L169.701 49.7892L176.841 49.3801C177.653 49.3339 178.432 49.0658 179.106 48.5919C179.878 48.0488 180.399 47.2815 180.961 46.5211C181.706 45.5134 182.429 44.4894 183.129 43.4494C183.619 42.719 184.205 42.0071 184.527 41.1728C184.597 40.9902 184.65 40.773 184.552 40.6042C184.469 40.4632 184.301 40.4008 184.144 40.3731C183.605 40.276 183.006 40.3685 182.462 40.3869C181.869 40.4054 181.274 40.4217 180.678 40.3985C179.793 40.3662 178.906 40.313 178.02 40.2783C176.004 40.202 174.458 40.1928 172.442 40.1304C170.535 40.068 168.484 39.8969 166.577 39.8345C162.599 39.7005 159.005 33.155 158.325 29.1149C164.033 29.1149 169.741 29.1149 175.452 29.1149C179.034 29.1149 182.614 29.1149 186.197 29.1149C188.105 29.1149 189.68 28.9924 191.482 29.7713C193.144 30.4901 194.646 31.6319 195.7 33.1527C197.742 36.1019 197.36 39.1111 196.096 42.2313C195.304 44.1867 194.422 46.1051 193.467 47.9794C192.206 50.4479 190.864 53.3208 188.933 55.2923C184.559 59.76 179.117 59.7068 173.418 59.9957C174.955 62.2377 177.436 64.7061 177.28 67.6254C177.157 69.9503 176 71.7163 174.825 73.5627C173.422 75.7699 172.021 77.9751 170.618 80.1823L160.421 96.2294L158.374 99.4536" fill="white"/>
<path opacity="0.54" d="M169.644 49.7919C169.644 49.7919 168.487 55.5238 173.358 59.9962L178.509 59.6864C178.509 59.6864 186.22 59.4299 189.785 54.2457L184.951 50.9399L180.156 47.6632C180.156 47.6632 178.943 49.1207 177.38 49.3435C175.37 49.466 169.644 49.7919 169.644 49.7919Z" fill="url(#paint0_linear_3_84)"/>
<path opacity="0.62" d="M183.818 40.3297C183.818 40.3297 193.847 39.5485 195.292 44.1364C195.292 44.1364 191.714 52.0385 189.843 54.2459C187.433 52.7591 180.215 47.6634 180.215 47.6634C180.215 47.6634 183.872 42.6849 184.619 40.9376C184.749 40.6371 184.185 40.3181 183.818 40.3297Z" fill="url(#paint1_linear_3_84)"/>
</g>
<defs>
<linearGradient id="paint0_linear_3_84" x1="174.839" y1="60.8444" x2="182.047" y2="48.7552" gradientUnits="userSpaceOnUse">
<stop/>
<stop offset="0.24" stop-color="#121619"/>
<stop offset="0.5" stop-color="#23282F"/>
<stop offset="0.76" stop-color="#2C343C"/>
<stop offset="1" stop-color="#303841"/>
</linearGradient>
<linearGradient id="paint1_linear_3_84" x1="190.826" y1="40.3528" x2="183.89" y2="51.9827" gradientUnits="userSpaceOnUse">
<stop/>
<stop offset="0.04" stop-color="#020304"/>
<stop offset="0.44" stop-color="#1B2025"/>
<stop offset="0.78" stop-color="#2A3139"/>
<stop offset="1" stop-color="#303841"/>
</linearGradient>
</defs>
</svg>
