<svg width="146" height="152" viewBox="0 0 146 152" fill="none" xmlns="http://www.w3.org/2000/svg">
<circle cx="74.638" cy="75.8753" r="37.638" fill="#2B5AF3"/>
<path d="M82.0665 59.5707H67.9332C63.3332 59.5707 61.6665 61.2373 61.6665 65.9207V86.554C61.6665 91.2373 63.3332 92.904 67.9332 92.904H82.0498C86.6665 92.904 88.3332 91.2373 88.3332 86.554V65.9207C88.3332 61.2373 86.6665 59.5707 82.0665 59.5707ZM74.9998 88.404C73.3998 88.404 72.0832 87.0873 72.0832 85.4873C72.0832 83.8873 73.3998 82.5707 74.9998 82.5707C76.5998 82.5707 77.9165 83.8873 77.9165 85.4873C77.9165 87.0873 76.5998 88.404 74.9998 88.404ZM78.3332 66.654H71.6665C70.9832 66.654 70.4165 66.0873 70.4165 65.404C70.4165 64.7207 70.9832 64.154 71.6665 64.154H78.3332C79.0165 64.154 79.5832 64.7207 79.5832 65.404C79.5832 66.0873 79.0165 66.654 78.3332 66.654Z" fill="white"/>
<circle cx="74.5876" cy="75.8275" r="48.9294" stroke="black" stroke-opacity="0.15" stroke-linecap="round" stroke-dasharray="5 5"/>
<circle cx="74.5887" cy="75.8275" r="61.4754" stroke="black" stroke-opacity="0.15" stroke-linecap="round" stroke-dasharray="5 5"/>
<path d="M109.835 135.664V147.139" stroke="#38FF8E" stroke-width="2" stroke-linecap="round" stroke-linejoin="round"/>
<path d="M104.098 141.401H115.573" stroke="#38FF8E" stroke-width="2" stroke-linecap="round" stroke-linejoin="round"/>
<path d="M46.7217 1.2373V12.7127" stroke="#38FF8E" stroke-width="2" stroke-linecap="round" stroke-linejoin="round"/>
<path d="M40.9829 6.97498H52.4583" stroke="#38FF8E" stroke-width="2" stroke-linecap="round" stroke-linejoin="round"/>
<path d="M16.3052 89.2128L10.5675 99.1508" stroke="#2B5AF3" stroke-width="2" stroke-linecap="round" stroke-linejoin="round"/>
<path d="M8.46729 91.313L18.4053 97.0507" stroke="#2B5AF3" stroke-width="2" stroke-linecap="round" stroke-linejoin="round"/>
<path d="M140.164 45.4996L130.328 55.3357" stroke="#2B5AF3" stroke-width="2" stroke-linecap="round" stroke-linejoin="round"/>
<path d="M130.328 45.4996L140.164 55.3357" stroke="#2B5AF3" stroke-width="2" stroke-linecap="round" stroke-linejoin="round"/>
</svg>
