<svg width="22" height="22" viewBox="0 0 22 22" fill="none" xmlns="http://www.w3.org/2000/svg">
<g clip-path="url(#clip0_102_381)">
<mask id="path-1-outside-1_102_381" maskUnits="userSpaceOnUse" x="-0.794922" y="-0.0696411" width="23" height="22" fill="black">
<rect fill="white" x="-0.794922" y="-0.0696411" width="23" height="22"/>
<path d="M4.52299 10.9999C4.16716 10.9999 3.81931 11.1054 3.52344 11.3031C3.22758 11.5008 2.99698 11.7818 2.8608 12.1105C2.72463 12.4393 2.689 12.801 2.75842 13.15C2.82784 13.499 2.99919 13.8196 3.25081 14.0712C3.50242 14.3228 3.823 14.4942 4.172 14.5636C4.521 14.633 4.88274 14.5974 5.21149 14.4612C5.54024 14.325 5.82123 14.0944 6.01892 13.7986C6.21662 13.5027 6.32213 13.1549 6.32213 12.799C6.32157 12.322 6.13184 11.8647 5.79456 11.5274C5.45728 11.1902 4.99998 11.0004 4.52299 10.9999ZM4.52299 13.8785C4.30949 13.8785 4.10078 13.8152 3.92326 13.6966C3.74574 13.578 3.60738 13.4094 3.52568 13.2121C3.44398 13.0149 3.4226 12.7978 3.46425 12.5884C3.5059 12.379 3.60871 12.1867 3.75968 12.0357C3.91065 11.8847 4.103 11.7819 4.3124 11.7403C4.5218 11.6986 4.73884 11.72 4.93609 11.8017C5.13334 11.8834 5.30194 12.0218 5.42055 12.1993C5.53917 12.3768 5.60248 12.5855 5.60248 12.799C5.60216 13.0852 5.48833 13.3596 5.28596 13.562C5.08358 13.7644 4.80919 13.8782 4.52299 13.8785ZM7.76145 14.958C7.40561 14.958 7.05776 15.0635 6.7619 15.2612C6.46603 15.4589 6.23543 15.7399 6.09926 16.0686C5.96308 16.3974 5.92745 16.7591 5.99688 17.1081C6.0663 17.4571 6.23765 17.7777 6.48926 18.0293C6.74088 18.2809 7.06145 18.4523 7.41045 18.5217C7.75945 18.5911 8.1212 18.5555 8.44995 18.4193C8.7787 18.2831 9.05969 18.0525 9.25738 17.7567C9.45507 17.4608 9.56059 17.113 9.56059 16.7571C9.56003 16.2801 9.3703 15.8228 9.03301 15.4856C8.69573 15.1483 8.23844 14.9585 7.76145 14.958ZM7.76145 17.8366C7.54794 17.8366 7.33924 17.7733 7.16172 17.6547C6.9842 17.5361 6.84584 17.3675 6.76413 17.1702C6.68243 16.973 6.66105 16.7559 6.7027 16.5465C6.74436 16.3371 6.84717 16.1448 6.99814 15.9938C7.1491 15.8428 7.34145 15.74 7.55085 15.6984C7.76025 15.6567 7.9773 15.6781 8.17455 15.7598C8.3718 15.8415 8.54039 15.9799 8.65901 16.1574C8.77762 16.3349 8.84093 16.5436 8.84093 16.7571C8.84062 17.0433 8.72679 17.3177 8.52441 17.5201C8.32204 17.7225 8.04765 17.8363 7.76145 17.8366ZM5.60248 9.56056C5.95831 9.56056 6.30616 9.45504 6.60203 9.25735C6.89789 9.05966 7.12849 8.77867 7.26467 8.44992C7.40084 8.12117 7.43647 7.75942 7.36705 7.41042C7.29763 7.06142 7.12628 6.74085 6.87466 6.48923C6.62305 6.23762 6.30247 6.06627 5.95347 5.99685C5.60447 5.92743 5.24273 5.96306 4.91398 6.09923C4.58523 6.2354 4.30424 6.466 4.10655 6.76187C3.90885 7.05774 3.80334 7.40558 3.80334 7.76142C3.8039 8.23841 3.99363 8.6957 4.33091 9.03299C4.66819 9.37027 5.12549 9.56 5.60248 9.56056ZM5.60248 6.68193C5.81598 6.68193 6.02469 6.74524 6.20221 6.86386C6.37973 6.98248 6.51809 7.15107 6.59979 7.34832C6.68149 7.54557 6.70287 7.76262 6.66122 7.97202C6.61957 8.18142 6.51676 8.37376 6.36579 8.52473C6.21482 8.6757 6.02247 8.77851 5.81307 8.82016C5.60367 8.86181 5.38663 8.84044 5.18938 8.75873C4.99213 8.67703 4.82353 8.53867 4.70492 8.36115C4.5863 8.18363 4.52299 7.97492 4.52299 7.76142C4.5233 7.47522 4.63714 7.20083 4.83951 6.99845C5.04189 6.79608 5.31628 6.68225 5.60248 6.68193ZM10.2802 7.04176C10.6361 7.04176 10.9839 6.93624 11.2798 6.73855C11.5757 6.54086 11.8063 6.25987 11.9424 5.93112C12.0786 5.60237 12.1142 5.24063 12.0448 4.89163C11.9754 4.54263 11.804 4.22205 11.5524 3.97044C11.3008 3.71882 10.9802 3.54747 10.6312 3.47805C10.2822 3.40863 9.92049 3.44426 9.59174 3.58043C9.26299 3.71661 8.982 3.94721 8.78431 4.24307C8.58662 4.53894 8.4811 4.88679 8.4811 5.24262C8.48166 5.71961 8.67139 6.17691 9.00868 6.51419C9.34596 6.85147 9.80325 7.0412 10.2802 7.04176ZM10.2802 4.16314C10.4937 4.16314 10.7025 4.22645 10.88 4.34506C11.0575 4.46368 11.1959 4.63227 11.2776 4.82952C11.3593 5.02677 11.3806 5.24382 11.339 5.45322C11.2973 5.66262 11.1945 5.85496 11.0436 6.00593C10.8926 6.1569 10.7002 6.25971 10.4908 6.30136C10.2814 6.34302 10.0644 6.32164 9.86714 6.23994C9.66989 6.15823 9.5013 6.01987 9.38268 5.84235C9.26407 5.66483 9.20076 5.45612 9.20076 5.24262C9.20107 4.95642 9.3149 4.68203 9.51728 4.47966C9.71965 4.27728 9.99404 4.16345 10.2802 4.16314ZM21.5656 1.15379C20.6427 0.230899 17.8906 2.36439 16.2022 3.9511C15.0094 2.93971 13.59 2.23124 12.0648 1.8859C10.5395 1.54056 8.95345 1.56856 7.44133 1.96751C5.92922 2.36646 4.53577 3.12457 3.37941 4.17742C2.22305 5.23027 1.33797 6.54673 0.799376 8.01492C0.260786 9.48311 0.0846117 11.0596 0.285826 12.6105C0.48704 14.1613 1.05969 15.6407 1.95512 16.9228C2.85055 18.205 4.04228 19.252 5.42903 19.9749C6.81578 20.6978 8.35656 21.0752 9.92042 21.0751C10.9465 21.0751 11.7522 20.723 12.1317 20.1087C12.3703 19.7229 12.5485 19.0496 12.0414 18.0355C11.8614 17.7073 11.7655 17.3397 11.7622 16.9654C11.759 16.5911 11.8485 16.2218 12.0228 15.8906C12.3999 15.2806 13.1659 14.958 14.2384 14.958C16.9072 14.958 19.6358 14.5303 19.6358 11.3597C19.6337 9.77048 19.2419 8.20602 18.4946 6.80345C20.0933 5.15901 22.5429 2.13177 21.5656 1.15379ZM21.0568 1.66261C21.2821 1.90543 20.4373 3.84688 17.7755 6.50835C17.1285 7.1577 16.4426 7.76711 15.7217 8.33323C15.3795 7.79579 14.9236 7.33992 14.3862 6.99773C14.9523 6.27678 15.5617 5.59092 16.2111 4.94394C18.8729 2.28212 20.8147 1.43807 21.0568 1.66261ZM13.2039 8.80056C13.4223 8.37306 13.6736 7.96318 13.9555 7.57463C14.4393 7.87279 14.8466 8.28009 15.1448 8.76392C14.7562 9.04585 14.3464 9.29714 13.9189 9.51553C13.7401 9.22426 13.4952 8.9793 13.2039 8.80056ZM13.5187 10.64C13.5187 11.4911 12.6321 12.4392 11.3597 12.4392C10.583 12.4728 9.82203 12.2129 9.22817 11.7111C9.98964 11.5463 10.3322 10.9029 10.6207 10.3614C11.0041 9.64173 11.2796 9.20073 12.0794 9.20073C12.461 9.20111 12.8269 9.35288 13.0967 9.62272C13.3666 9.89256 13.5183 10.2584 13.5187 10.64ZM14.2384 14.2383C12.552 14.2383 11.7698 14.9309 11.4107 15.5121C11.1692 15.9469 11.0414 16.4357 11.0391 16.9331C11.0369 17.4304 11.1602 17.9203 11.3977 18.3574C11.6858 18.9333 11.7269 19.3954 11.5196 19.7306C11.2779 20.1217 10.6801 20.3554 9.92042 20.3554C8.47419 20.3578 7.04871 20.0114 5.76482 19.3457C4.48092 18.68 3.37646 17.7145 2.54505 16.5312C1.71365 15.3478 1.17981 13.9814 0.988787 12.5479C0.797766 11.1143 0.955196 9.65585 1.44773 8.29608C1.94027 6.93631 2.75339 5.71533 3.81817 4.73665C4.88295 3.75797 6.168 3.05044 7.56438 2.67403C8.96076 2.29763 10.4273 2.26344 11.8397 2.57437C13.2521 2.88531 14.5687 3.53219 15.678 4.4602C14.2205 5.92128 13.0759 7.41003 12.5356 8.5306C12.3857 8.49792 12.2328 8.48132 12.0794 8.48108C10.8066 8.48108 10.3516 9.33603 9.98577 10.023C9.59257 10.7613 9.34975 11.139 8.54014 11.0048C8.47467 10.9939 8.40747 11.0013 8.34596 11.0262C8.28445 11.0512 8.23103 11.0926 8.19161 11.146C8.15219 11.1994 8.1283 11.2626 8.12258 11.3288C8.11687 11.3949 8.12955 11.4613 8.15923 11.5206C8.19261 11.5874 9.00537 13.1588 11.3597 13.1588C13.0816 13.1588 14.2384 11.8566 14.2384 10.64C14.2381 10.4867 14.2215 10.3337 14.1888 10.1838C15.5787 9.42292 16.8492 8.46193 17.9597 7.33164C18.5874 8.5817 18.9149 9.96092 18.9161 11.3597C18.9161 13.4312 17.6047 14.2383 14.2384 14.2383Z"/>
</mask>
<path d="M4.52299 10.9999C4.16716 10.9999 3.81931 11.1054 3.52344 11.3031C3.22758 11.5008 2.99698 11.7818 2.8608 12.1105C2.72463 12.4393 2.689 12.801 2.75842 13.15C2.82784 13.499 2.99919 13.8196 3.25081 14.0712C3.50242 14.3228 3.823 14.4942 4.172 14.5636C4.521 14.633 4.88274 14.5974 5.21149 14.4612C5.54024 14.325 5.82123 14.0944 6.01892 13.7986C6.21662 13.5027 6.32213 13.1549 6.32213 12.799C6.32157 12.322 6.13184 11.8647 5.79456 11.5274C5.45728 11.1902 4.99998 11.0004 4.52299 10.9999ZM4.52299 13.8785C4.30949 13.8785 4.10078 13.8152 3.92326 13.6966C3.74574 13.578 3.60738 13.4094 3.52568 13.2121C3.44398 13.0149 3.4226 12.7978 3.46425 12.5884C3.5059 12.379 3.60871 12.1867 3.75968 12.0357C3.91065 11.8847 4.103 11.7819 4.3124 11.7403C4.5218 11.6986 4.73884 11.72 4.93609 11.8017C5.13334 11.8834 5.30194 12.0218 5.42055 12.1993C5.53917 12.3768 5.60248 12.5855 5.60248 12.799C5.60216 13.0852 5.48833 13.3596 5.28596 13.562C5.08358 13.7644 4.80919 13.8782 4.52299 13.8785ZM7.76145 14.958C7.40561 14.958 7.05776 15.0635 6.7619 15.2612C6.46603 15.4589 6.23543 15.7399 6.09926 16.0686C5.96308 16.3974 5.92745 16.7591 5.99688 17.1081C6.0663 17.4571 6.23765 17.7777 6.48926 18.0293C6.74088 18.2809 7.06145 18.4523 7.41045 18.5217C7.75945 18.5911 8.1212 18.5555 8.44995 18.4193C8.7787 18.2831 9.05969 18.0525 9.25738 17.7567C9.45507 17.4608 9.56059 17.113 9.56059 16.7571C9.56003 16.2801 9.3703 15.8228 9.03301 15.4856C8.69573 15.1483 8.23844 14.9585 7.76145 14.958ZM7.76145 17.8366C7.54794 17.8366 7.33924 17.7733 7.16172 17.6547C6.9842 17.5361 6.84584 17.3675 6.76413 17.1702C6.68243 16.973 6.66105 16.7559 6.7027 16.5465C6.74436 16.3371 6.84717 16.1448 6.99814 15.9938C7.1491 15.8428 7.34145 15.74 7.55085 15.6984C7.76025 15.6567 7.9773 15.6781 8.17455 15.7598C8.3718 15.8415 8.54039 15.9799 8.65901 16.1574C8.77762 16.3349 8.84093 16.5436 8.84093 16.7571C8.84062 17.0433 8.72679 17.3177 8.52441 17.5201C8.32204 17.7225 8.04765 17.8363 7.76145 17.8366ZM5.60248 9.56056C5.95831 9.56056 6.30616 9.45504 6.60203 9.25735C6.89789 9.05966 7.12849 8.77867 7.26467 8.44992C7.40084 8.12117 7.43647 7.75942 7.36705 7.41042C7.29763 7.06142 7.12628 6.74085 6.87466 6.48923C6.62305 6.23762 6.30247 6.06627 5.95347 5.99685C5.60447 5.92743 5.24273 5.96306 4.91398 6.09923C4.58523 6.2354 4.30424 6.466 4.10655 6.76187C3.90885 7.05774 3.80334 7.40558 3.80334 7.76142C3.8039 8.23841 3.99363 8.6957 4.33091 9.03299C4.66819 9.37027 5.12549 9.56 5.60248 9.56056ZM5.60248 6.68193C5.81598 6.68193 6.02469 6.74524 6.20221 6.86386C6.37973 6.98248 6.51809 7.15107 6.59979 7.34832C6.68149 7.54557 6.70287 7.76262 6.66122 7.97202C6.61957 8.18142 6.51676 8.37376 6.36579 8.52473C6.21482 8.6757 6.02247 8.77851 5.81307 8.82016C5.60367 8.86181 5.38663 8.84044 5.18938 8.75873C4.99213 8.67703 4.82353 8.53867 4.70492 8.36115C4.5863 8.18363 4.52299 7.97492 4.52299 7.76142C4.5233 7.47522 4.63714 7.20083 4.83951 6.99845C5.04189 6.79608 5.31628 6.68225 5.60248 6.68193ZM10.2802 7.04176C10.6361 7.04176 10.9839 6.93624 11.2798 6.73855C11.5757 6.54086 11.8063 6.25987 11.9424 5.93112C12.0786 5.60237 12.1142 5.24063 12.0448 4.89163C11.9754 4.54263 11.804 4.22205 11.5524 3.97044C11.3008 3.71882 10.9802 3.54747 10.6312 3.47805C10.2822 3.40863 9.92049 3.44426 9.59174 3.58043C9.26299 3.71661 8.982 3.94721 8.78431 4.24307C8.58662 4.53894 8.4811 4.88679 8.4811 5.24262C8.48166 5.71961 8.67139 6.17691 9.00868 6.51419C9.34596 6.85147 9.80325 7.0412 10.2802 7.04176ZM10.2802 4.16314C10.4937 4.16314 10.7025 4.22645 10.88 4.34506C11.0575 4.46368 11.1959 4.63227 11.2776 4.82952C11.3593 5.02677 11.3806 5.24382 11.339 5.45322C11.2973 5.66262 11.1945 5.85496 11.0436 6.00593C10.8926 6.1569 10.7002 6.25971 10.4908 6.30136C10.2814 6.34302 10.0644 6.32164 9.86714 6.23994C9.66989 6.15823 9.5013 6.01987 9.38268 5.84235C9.26407 5.66483 9.20076 5.45612 9.20076 5.24262C9.20107 4.95642 9.3149 4.68203 9.51728 4.47966C9.71965 4.27728 9.99404 4.16345 10.2802 4.16314ZM21.5656 1.15379C20.6427 0.230899 17.8906 2.36439 16.2022 3.9511C15.0094 2.93971 13.59 2.23124 12.0648 1.8859C10.5395 1.54056 8.95345 1.56856 7.44133 1.96751C5.92922 2.36646 4.53577 3.12457 3.37941 4.17742C2.22305 5.23027 1.33797 6.54673 0.799376 8.01492C0.260786 9.48311 0.0846117 11.0596 0.285826 12.6105C0.48704 14.1613 1.05969 15.6407 1.95512 16.9228C2.85055 18.205 4.04228 19.252 5.42903 19.9749C6.81578 20.6978 8.35656 21.0752 9.92042 21.0751C10.9465 21.0751 11.7522 20.723 12.1317 20.1087C12.3703 19.7229 12.5485 19.0496 12.0414 18.0355C11.8614 17.7073 11.7655 17.3397 11.7622 16.9654C11.759 16.5911 11.8485 16.2218 12.0228 15.8906C12.3999 15.2806 13.1659 14.958 14.2384 14.958C16.9072 14.958 19.6358 14.5303 19.6358 11.3597C19.6337 9.77048 19.2419 8.20602 18.4946 6.80345C20.0933 5.15901 22.5429 2.13177 21.5656 1.15379ZM21.0568 1.66261C21.2821 1.90543 20.4373 3.84688 17.7755 6.50835C17.1285 7.1577 16.4426 7.76711 15.7217 8.33323C15.3795 7.79579 14.9236 7.33992 14.3862 6.99773C14.9523 6.27678 15.5617 5.59092 16.2111 4.94394C18.8729 2.28212 20.8147 1.43807 21.0568 1.66261ZM13.2039 8.80056C13.4223 8.37306 13.6736 7.96318 13.9555 7.57463C14.4393 7.87279 14.8466 8.28009 15.1448 8.76392C14.7562 9.04585 14.3464 9.29714 13.9189 9.51553C13.7401 9.22426 13.4952 8.9793 13.2039 8.80056ZM13.5187 10.64C13.5187 11.4911 12.6321 12.4392 11.3597 12.4392C10.583 12.4728 9.82203 12.2129 9.22817 11.7111C9.98964 11.5463 10.3322 10.9029 10.6207 10.3614C11.0041 9.64173 11.2796 9.20073 12.0794 9.20073C12.461 9.20111 12.8269 9.35288 13.0967 9.62272C13.3666 9.89256 13.5183 10.2584 13.5187 10.64ZM14.2384 14.2383C12.552 14.2383 11.7698 14.9309 11.4107 15.5121C11.1692 15.9469 11.0414 16.4357 11.0391 16.9331C11.0369 17.4304 11.1602 17.9203 11.3977 18.3574C11.6858 18.9333 11.7269 19.3954 11.5196 19.7306C11.2779 20.1217 10.6801 20.3554 9.92042 20.3554C8.47419 20.3578 7.04871 20.0114 5.76482 19.3457C4.48092 18.68 3.37646 17.7145 2.54505 16.5312C1.71365 15.3478 1.17981 13.9814 0.988787 12.5479C0.797766 11.1143 0.955196 9.65585 1.44773 8.29608C1.94027 6.93631 2.75339 5.71533 3.81817 4.73665C4.88295 3.75797 6.168 3.05044 7.56438 2.67403C8.96076 2.29763 10.4273 2.26344 11.8397 2.57437C13.2521 2.88531 14.5687 3.53219 15.678 4.4602C14.2205 5.92128 13.0759 7.41003 12.5356 8.5306C12.3857 8.49792 12.2328 8.48132 12.0794 8.48108C10.8066 8.48108 10.3516 9.33603 9.98577 10.023C9.59257 10.7613 9.34975 11.139 8.54014 11.0048C8.47467 10.9939 8.40747 11.0013 8.34596 11.0262C8.28445 11.0512 8.23103 11.0926 8.19161 11.146C8.15219 11.1994 8.1283 11.2626 8.12258 11.3288C8.11687 11.3949 8.12955 11.4613 8.15923 11.5206C8.19261 11.5874 9.00537 13.1588 11.3597 13.1588C13.0816 13.1588 14.2384 11.8566 14.2384 10.64C14.2381 10.4867 14.2215 10.3337 14.1888 10.1838C15.5787 9.42292 16.8492 8.46193 17.9597 7.33164C18.5874 8.5817 18.9149 9.96092 18.9161 11.3597C18.9161 13.4312 17.6047 14.2383 14.2384 14.2383Z" fill="black" fill-opacity="0.75"/>
<path d="M4.52299 10.9999C4.16716 10.9999 3.81931 11.1054 3.52344 11.3031C3.22758 11.5008 2.99698 11.7818 2.8608 12.1105C2.72463 12.4393 2.689 12.801 2.75842 13.15C2.82784 13.499 2.99919 13.8196 3.25081 14.0712C3.50242 14.3228 3.823 14.4942 4.172 14.5636C4.521 14.633 4.88274 14.5974 5.21149 14.4612C5.54024 14.325 5.82123 14.0944 6.01892 13.7986C6.21662 13.5027 6.32213 13.1549 6.32213 12.799C6.32157 12.322 6.13184 11.8647 5.79456 11.5274C5.45728 11.1902 4.99998 11.0004 4.52299 10.9999ZM4.52299 13.8785C4.30949 13.8785 4.10078 13.8152 3.92326 13.6966C3.74574 13.578 3.60738 13.4094 3.52568 13.2121C3.44398 13.0149 3.4226 12.7978 3.46425 12.5884C3.5059 12.379 3.60871 12.1867 3.75968 12.0357C3.91065 11.8847 4.103 11.7819 4.3124 11.7403C4.5218 11.6986 4.73884 11.72 4.93609 11.8017C5.13334 11.8834 5.30194 12.0218 5.42055 12.1993C5.53917 12.3768 5.60248 12.5855 5.60248 12.799C5.60216 13.0852 5.48833 13.3596 5.28596 13.562C5.08358 13.7644 4.80919 13.8782 4.52299 13.8785ZM7.76145 14.958C7.40561 14.958 7.05776 15.0635 6.7619 15.2612C6.46603 15.4589 6.23543 15.7399 6.09926 16.0686C5.96308 16.3974 5.92745 16.7591 5.99688 17.1081C6.0663 17.4571 6.23765 17.7777 6.48926 18.0293C6.74088 18.2809 7.06145 18.4523 7.41045 18.5217C7.75945 18.5911 8.1212 18.5555 8.44995 18.4193C8.7787 18.2831 9.05969 18.0525 9.25738 17.7567C9.45507 17.4608 9.56059 17.113 9.56059 16.7571C9.56003 16.2801 9.3703 15.8228 9.03301 15.4856C8.69573 15.1483 8.23844 14.9585 7.76145 14.958ZM7.76145 17.8366C7.54794 17.8366 7.33924 17.7733 7.16172 17.6547C6.9842 17.5361 6.84584 17.3675 6.76413 17.1702C6.68243 16.973 6.66105 16.7559 6.7027 16.5465C6.74436 16.3371 6.84717 16.1448 6.99814 15.9938C7.1491 15.8428 7.34145 15.74 7.55085 15.6984C7.76025 15.6567 7.9773 15.6781 8.17455 15.7598C8.3718 15.8415 8.54039 15.9799 8.65901 16.1574C8.77762 16.3349 8.84093 16.5436 8.84093 16.7571C8.84062 17.0433 8.72679 17.3177 8.52441 17.5201C8.32204 17.7225 8.04765 17.8363 7.76145 17.8366ZM5.60248 9.56056C5.95831 9.56056 6.30616 9.45504 6.60203 9.25735C6.89789 9.05966 7.12849 8.77867 7.26467 8.44992C7.40084 8.12117 7.43647 7.75942 7.36705 7.41042C7.29763 7.06142 7.12628 6.74085 6.87466 6.48923C6.62305 6.23762 6.30247 6.06627 5.95347 5.99685C5.60447 5.92743 5.24273 5.96306 4.91398 6.09923C4.58523 6.2354 4.30424 6.466 4.10655 6.76187C3.90885 7.05774 3.80334 7.40558 3.80334 7.76142C3.8039 8.23841 3.99363 8.6957 4.33091 9.03299C4.66819 9.37027 5.12549 9.56 5.60248 9.56056ZM5.60248 6.68193C5.81598 6.68193 6.02469 6.74524 6.20221 6.86386C6.37973 6.98248 6.51809 7.15107 6.59979 7.34832C6.68149 7.54557 6.70287 7.76262 6.66122 7.97202C6.61957 8.18142 6.51676 8.37376 6.36579 8.52473C6.21482 8.6757 6.02247 8.77851 5.81307 8.82016C5.60367 8.86181 5.38663 8.84044 5.18938 8.75873C4.99213 8.67703 4.82353 8.53867 4.70492 8.36115C4.5863 8.18363 4.52299 7.97492 4.52299 7.76142C4.5233 7.47522 4.63714 7.20083 4.83951 6.99845C5.04189 6.79608 5.31628 6.68225 5.60248 6.68193ZM10.2802 7.04176C10.6361 7.04176 10.9839 6.93624 11.2798 6.73855C11.5757 6.54086 11.8063 6.25987 11.9424 5.93112C12.0786 5.60237 12.1142 5.24063 12.0448 4.89163C11.9754 4.54263 11.804 4.22205 11.5524 3.97044C11.3008 3.71882 10.9802 3.54747 10.6312 3.47805C10.2822 3.40863 9.92049 3.44426 9.59174 3.58043C9.26299 3.71661 8.982 3.94721 8.78431 4.24307C8.58662 4.53894 8.4811 4.88679 8.4811 5.24262C8.48166 5.71961 8.67139 6.17691 9.00868 6.51419C9.34596 6.85147 9.80325 7.0412 10.2802 7.04176ZM10.2802 4.16314C10.4937 4.16314 10.7025 4.22645 10.88 4.34506C11.0575 4.46368 11.1959 4.63227 11.2776 4.82952C11.3593 5.02677 11.3806 5.24382 11.339 5.45322C11.2973 5.66262 11.1945 5.85496 11.0436 6.00593C10.8926 6.1569 10.7002 6.25971 10.4908 6.30136C10.2814 6.34302 10.0644 6.32164 9.86714 6.23994C9.66989 6.15823 9.5013 6.01987 9.38268 5.84235C9.26407 5.66483 9.20076 5.45612 9.20076 5.24262C9.20107 4.95642 9.3149 4.68203 9.51728 4.47966C9.71965 4.27728 9.99404 4.16345 10.2802 4.16314ZM21.5656 1.15379C20.6427 0.230899 17.8906 2.36439 16.2022 3.9511C15.0094 2.93971 13.59 2.23124 12.0648 1.8859C10.5395 1.54056 8.95345 1.56856 7.44133 1.96751C5.92922 2.36646 4.53577 3.12457 3.37941 4.17742C2.22305 5.23027 1.33797 6.54673 0.799376 8.01492C0.260786 9.48311 0.0846117 11.0596 0.285826 12.6105C0.48704 14.1613 1.05969 15.6407 1.95512 16.9228C2.85055 18.205 4.04228 19.252 5.42903 19.9749C6.81578 20.6978 8.35656 21.0752 9.92042 21.0751C10.9465 21.0751 11.7522 20.723 12.1317 20.1087C12.3703 19.7229 12.5485 19.0496 12.0414 18.0355C11.8614 17.7073 11.7655 17.3397 11.7622 16.9654C11.759 16.5911 11.8485 16.2218 12.0228 15.8906C12.3999 15.2806 13.1659 14.958 14.2384 14.958C16.9072 14.958 19.6358 14.5303 19.6358 11.3597C19.6337 9.77048 19.2419 8.20602 18.4946 6.80345C20.0933 5.15901 22.5429 2.13177 21.5656 1.15379ZM21.0568 1.66261C21.2821 1.90543 20.4373 3.84688 17.7755 6.50835C17.1285 7.1577 16.4426 7.76711 15.7217 8.33323C15.3795 7.79579 14.9236 7.33992 14.3862 6.99773C14.9523 6.27678 15.5617 5.59092 16.2111 4.94394C18.8729 2.28212 20.8147 1.43807 21.0568 1.66261ZM13.2039 8.80056C13.4223 8.37306 13.6736 7.96318 13.9555 7.57463C14.4393 7.87279 14.8466 8.28009 15.1448 8.76392C14.7562 9.04585 14.3464 9.29714 13.9189 9.51553C13.7401 9.22426 13.4952 8.9793 13.2039 8.80056ZM13.5187 10.64C13.5187 11.4911 12.6321 12.4392 11.3597 12.4392C10.583 12.4728 9.82203 12.2129 9.22817 11.7111C9.98964 11.5463 10.3322 10.9029 10.6207 10.3614C11.0041 9.64173 11.2796 9.20073 12.0794 9.20073C12.461 9.20111 12.8269 9.35288 13.0967 9.62272C13.3666 9.89256 13.5183 10.2584 13.5187 10.64ZM14.2384 14.2383C12.552 14.2383 11.7698 14.9309 11.4107 15.5121C11.1692 15.9469 11.0414 16.4357 11.0391 16.9331C11.0369 17.4304 11.1602 17.9203 11.3977 18.3574C11.6858 18.9333 11.7269 19.3954 11.5196 19.7306C11.2779 20.1217 10.6801 20.3554 9.92042 20.3554C8.47419 20.3578 7.04871 20.0114 5.76482 19.3457C4.48092 18.68 3.37646 17.7145 2.54505 16.5312C1.71365 15.3478 1.17981 13.9814 0.988787 12.5479C0.797766 11.1143 0.955196 9.65585 1.44773 8.29608C1.94027 6.93631 2.75339 5.71533 3.81817 4.73665C4.88295 3.75797 6.168 3.05044 7.56438 2.67403C8.96076 2.29763 10.4273 2.26344 11.8397 2.57437C13.2521 2.88531 14.5687 3.53219 15.678 4.4602C14.2205 5.92128 13.0759 7.41003 12.5356 8.5306C12.3857 8.49792 12.2328 8.48132 12.0794 8.48108C10.8066 8.48108 10.3516 9.33603 9.98577 10.023C9.59257 10.7613 9.34975 11.139 8.54014 11.0048C8.47467 10.9939 8.40747 11.0013 8.34596 11.0262C8.28445 11.0512 8.23103 11.0926 8.19161 11.146C8.15219 11.1994 8.1283 11.2626 8.12258 11.3288C8.11687 11.3949 8.12955 11.4613 8.15923 11.5206C8.19261 11.5874 9.00537 13.1588 11.3597 13.1588C13.0816 13.1588 14.2384 11.8566 14.2384 10.64C14.2381 10.4867 14.2215 10.3337 14.1888 10.1838C15.5787 9.42292 16.8492 8.46193 17.9597 7.33164C18.5874 8.5817 18.9149 9.96092 18.9161 11.3597C18.9161 13.4312 17.6047 14.2383 14.2384 14.2383Z" stroke="black" stroke-opacity="0.75" stroke-width="0.4" mask="url(#path-1-outside-1_102_381)"/>
</g>
<defs>
<clipPath id="clip0_102_381">
<rect width="22" height="22" fill="white"/>
</clipPath>
</defs>
</svg>
