<svg width="40" height="40" viewBox="0 0 40 40" fill="none" xmlns="http://www.w3.org/2000/svg">
<rect width="40" height="40" rx="20" fill="black" fill-opacity="0.04"/>
<path fill-rule="evenodd" clip-rule="evenodd" d="M14.25 17C14.25 16.5858 14.5858 16.25 15 16.25H21C21.4142 16.25 21.75 16.5858 21.75 17C21.75 17.4142 21.4142 17.75 21 17.75H15C14.5858 17.75 14.25 17.4142 14.25 17Z" fill="#404040"/>
<path fill-rule="evenodd" clip-rule="evenodd" d="M26.9202 18.7002C26.5612 18.7002 26.2454 18.8394 26.0176 19.0734L26.0041 19.0869C25.7381 19.3466 25.5895 19.7163 25.6269 20.1091L25.6277 20.1179C25.6806 20.7529 26.2911 21.3002 27.0402 21.3002H28.983C29.1447 21.2897 29.2502 21.1633 29.2502 21.0302V18.9702C29.2502 18.837 29.1447 18.7106 28.983 18.7002H26.9202ZM24.9495 18.0201C25.4612 17.4983 26.1626 17.2002 26.9202 17.2002H29.0002C29.0092 17.2002 29.0181 17.2003 29.027 17.2007C29.98 17.2347 30.7502 18.0059 30.7502 18.9702V21.0302C30.7502 21.9945 29.98 22.7657 29.027 22.7997C29.0181 22.8 29.0092 22.8002 29.0002 22.8002H27.0402C25.6307 22.8002 24.2626 21.7695 24.1332 20.2469C24.0525 19.3847 24.3807 18.5792 24.9495 18.0201Z" fill="#404040"/>
<path fill-rule="evenodd" clip-rule="evenodd" d="M15 12.25C14.7558 12.25 14.524 12.2674 14.304 12.3013L14.2834 12.3042C13.1761 12.4431 12.3056 12.9172 11.7095 13.6165C11.112 14.3176 10.75 15.2929 10.75 16.5V23.5C10.75 24.8296 11.1899 25.8793 11.9053 26.5947C12.6207 27.3101 13.6704 27.75 15 27.75H24C25.3296 27.75 26.3793 27.3101 27.0947 26.5947C27.8101 25.8793 28.25 24.8296 28.25 23.5V22.8H27.04C25.6304 22.8 24.2623 21.7693 24.133 20.2467C24.0522 19.3845 24.3805 18.579 24.9493 18.02C25.4609 17.4982 26.1623 17.2 26.92 17.2H28.25V16.5C28.25 15.2847 27.8817 14.3034 27.2747 13.6C26.6691 12.8982 25.7851 12.4254 24.6634 12.295C24.6511 12.2935 24.6389 12.2918 24.6267 12.2898C24.4468 12.2598 24.2446 12.25 24 12.25H15ZM14.0863 10.8171C14.3831 10.772 14.6879 10.75 15 10.75H24C24.2697 10.75 24.5608 10.7598 24.8545 10.8071C26.305 10.9797 27.5395 11.6109 28.4103 12.62C29.2833 13.6316 29.75 14.9753 29.75 16.5V17.95C29.75 18.3642 29.4142 18.7 29 18.7H26.92C26.5609 18.7 26.2451 18.8392 26.0173 19.0732L26.0039 19.0867C25.7378 19.3464 25.5892 19.7162 25.6266 20.1089L25.6275 20.1177C25.6804 20.7527 26.2909 21.3 27.04 21.3H29C29.4142 21.3 29.75 21.6358 29.75 22.05V23.5C29.75 25.1704 29.1899 26.6207 28.1553 27.6553C27.1207 28.6899 25.6704 29.25 24 29.25H15C13.3296 29.25 11.8792 28.6899 10.8447 27.6553C9.81009 26.6207 9.25 25.1704 9.25 23.5V16.5C9.25 14.9871 9.70803 13.6524 10.568 12.6435C11.4274 11.6352 12.6481 10.9999 14.0863 10.8171Z" fill="#404040"/>
</svg>
