<?xml version="1.0" encoding="UTF-8"?>
<svg version="1.1" viewBox="0 0 2048 2048" width="20" height="20" xmlns="http://www.w3.org/2000/svg">
<path transform="translate(114,219)" d="m0 0h801l25 2 15 4 15 6 15 9 10 8 13 13 10 14 8 16 6 20 2 16v596l19-4 13-1 259-1-6-11-14-22-16-25-14-22-16-25-7-12-3-9v-14l4-12 7-9 8-7 8-4 10-2h66v-404l3-14 7-12 8-7 9-5 9-2h219l13 3 10 6 7 7 6 12 2 11v405h65l11 2 10 5 7 6 6 9 4 10v17l-4 11-13 21-14 22-11 17-14 22-10 16-11 17h336l13 3 10 7 8 9 5 12 1 5 1 14v738l-2 25-5 21-5 12-7 13-10 13-5 6-11 9-10 7-10 6-15 6-15 4-16 2h-874l-14-2-14-4-12-5-13-7-9-7h-5l-9 7-14 8-12 5-18 5-21 2h-809l-21-2-15-4-15-6-15-9-13-11-12-13-9-14-7-14-3-8v-1452l7-15 9-16 12-14 7-7 15-11 16-8 15-5 9-2zm-3 81-12 2-9 5-7 7-4 8-2 8-1 16v1121h877v-1136l-3-11-6-9-7-6-7-3-12-2zm1322 80v353l-1 55-3 12-7 11-8 6-9 4-11 2-30 1 1 4 10 15 24 38 13 20 10 16 11 17 14 22 11 17 12 19 22 34 5 9h3l32-50 14-22 11-17 12-19 15-23 10-16 14-22 16-25 10-16v-1l-33-1-12-3-10-6-7-8-5-10-2-11-1-405zm-367 619-9 2-11 7-8 11-3 9v14l4 10 7 9 9 6 5 2 13 2h351l-2-5-15-24-16-25-11-17-1-1zm552 0-12 19-14 22-11 17-8 12v2l360 1 19 2 11 2v-77zm-584 147v567l2 12 5 10 9 8 7 4 8 2h867l10-3 8-5 7-7 4-8 2-9v-99l-312-1-13-4-8-6-9-10-13-18-16-21-10-14-15-20-14-19-12-16-13-18-5-11-2-8 1-11 5-13 8-12 11-16 16-23 11-16 15-22 14-20 13-19 12-17 10-8 11-4 33-1h280l2-1v-83l-2-10-5-10-5-5-5-4-6-3-9-2-856-1-25-2-13-3zm643 205-15 22-13 19-11 16-16 23-10 15 1 5 13 18 12 16 28 38 10 13 1 1h285l1-1v-185zm-1600 197-1 23v142l2 14 6 12 7 6 8 4 10 2h812l12-3 9-6 6-7 4-9 1-7v-171z"/>
<path transform="translate(493,562)" d="m0 0h41l26 2 33 5 36 9 26 9 20 8 29 14 20 12 17 11 21 16 10 8 12 11 10 9 13 13 7 8 12 14 9 12 13 18 13 22 7 12 11 23 10 25 9 27 8 33 5 32 2 31v27l-1 22-4 30-5 25-7 27-10 28-6 15-8 16-12 23-15 24-16 21-7 9-18 21h-2l-2 4-10 10-8 7-10 9-14 11-19 14-13 8-20 12-16 8-21 10-30 11-28 8-23 5-26 4-40 3h-16l-39-3-33-5-34-9-24-8-22-9-31-15-28-17-18-13-14-11-14-12-7-7-8-7-7-7-7-8-12-13-13-17-13-18-15-25-12-23-10-22-10-28-7-25-5-22-5-34-2-35v-11l2-34 6-40 9-35 10-29 9-21 9-19 12-21 13-20 21-28 9-10 11-12 7-8 15-14 8-7 15-12 19-14 21-13 21-12 23-11 29-11 19-6 32-8 33-5zm3 81-22 2-25 4-30 8-25 9-22 10-18 10-19 12-13 10-9 7-12 11-10 9-10 10-7 8-12 15-10 14-10 16-8 14-13 27-10 28-7 26-5 32-2 32 1 24 2 21 5 28 7 26 8 22 8 18 12 23 14 22 10 13 8 10 2 3h2l2 4 15 16 13 12 14 11 13 10 19 12 16 9 25 12 28 10 32 8 27 4 29 2h11l29-2 32-5 30-8 27-10 25-12 16-9 14-9 19-14 13-11 16-15 5-5v-2h2l7-8 11-13 10-14 9-14 9-15 11-22 10-25 9-32 4-20 3-23 1-16v-25l-2-26-5-30-8-30-11-29-8-17-10-18-12-19-10-13-8-10-11-12-7-8-7-7-8-7-13-11-19-14-21-13-23-12-19-8-30-10-26-6-28-4-16-1z"/>
<path transform="translate(505,677)" d="m0 0 13 3 9 6 8 9 4 11 1 6v19l12 1 24 4 14 5 18 8 18 13 8 7 11 12 10 14 8 16 5 13 4 17 2 23-3 26-9 27-13 23-9 10-1 2h-2l-2 4-3 4 12 14 7 9 9 16 4 8 6 19 2 10 2 24-3 24-4 15-7 17-9 15-7 9h-2l-2 4-10 11-19 13-6 4-25 10-25 5-14 2-1 19-2 10-4 8-8 9-10 5-14 3-9-3-8-4-7-6-6-10-3-14v-16l-79-1-13-3-10-7-7-9-4-12v-9l3-10 5-8h2v-2l8-6v-326l-11-10-6-12-1-4v-10l4-12 7-9 11-7 7-2 8-1h76v-17l3-14 6-9 5-5 8-5zm-60 124v124h86l20-1 14-4 13-7 11-10 7-11 4-8 3-14v-15l-4-16-7-13-9-10-10-7-11-5-12-3zm0 194v124h99l16-3 9-4 10-6 10-9 9-14 4-13 1-5v-15l-3-14-7-14-8-10-12-9-11-5-12-3z"/>
<path transform="translate(240,358)" d="m0 0h395l12 3 10 6 7 7 6 12 2 9v7l-3 12-7 11-8 7-8 4-15 3h-390l-13-3-9-6-6-5-6-9-3-9-1-11 3-13 6-10 7-7 8-5z"/>
<path transform="translate(443,1609)" d="m0 0h142l12 3 9 5 6 5 7 11 3 9v14l-3 10-6 9-5 5-9 6-10 3-7 1h-137l-13-3-11-7-7-8-5-10-2-9 1-12 4-11 7-9 7-6 8-4z"/>
<path transform="translate(787,358)" d="m0 0 13 2 11 6 8 8 6 12 2 9-1 12-3 9-7 10-7 6-8 4-11 3h-8l-12-3-11-7-8-10-5-12-1-11 3-13 7-11 7-7 10-5 3-1z"/>
</svg>
