<svg width="16" height="17" viewBox="0 0 16 17" fill="none" xmlns="http://www.w3.org/2000/svg">
<g clip-path="url(#clip0_121_1580)">
<path d="M0.781396 16.2373C0.626858 16.2373 0.475783 16.1915 0.347281 16.1057C0.218778 16.0198 0.118621 15.8978 0.0594776 15.755C0.000334661 15.6123 -0.0151369 15.4551 0.0150198 15.3036C0.0451766 15.152 0.119607 15.0128 0.228896 14.9035L14.6664 0.466036C14.8129 0.319504 15.0117 0.237183 15.2189 0.237183C15.4261 0.237183 15.6249 0.319504 15.7714 0.466036C15.9179 0.612568 16.0002 0.811308 16.0002 1.01854C16.0002 1.22576 15.9179 1.4245 15.7714 1.57104L1.3339 16.0085C1.26141 16.0812 1.17528 16.1388 1.08047 16.178C0.985653 16.2173 0.884016 16.2374 0.781396 16.2373Z" fill="black" fill-opacity="0.5"/>
<path d="M15.2189 16.2373C15.1162 16.2374 15.0146 16.2173 14.9198 16.178C14.825 16.1388 14.7388 16.0812 14.6664 16.0085L0.228853 1.57104C0.0823209 1.4245 0 1.22576 0 1.01854C0 0.811308 0.0823209 0.612568 0.228853 0.466036C0.375385 0.319504 0.574125 0.237183 0.781353 0.237183C0.988581 0.237183 1.18732 0.319504 1.33385 0.466036L15.7714 14.9035C15.8806 15.0128 15.9551 15.152 15.9852 15.3036C16.0154 15.4551 15.9999 15.6123 15.9408 15.755C15.8816 15.8978 15.7815 16.0198 15.653 16.1057C15.5245 16.1915 15.3734 16.2373 15.2189 16.2373Z" fill="black" fill-opacity="0.5"/>
</g>
<defs>
<clipPath id="clip0_121_1580">
<rect width="16" height="16" fill="white" transform="translate(0 0.237305)"/>
</clipPath>
</defs>
</svg>
