<svg width="50" height="50" viewBox="0 0 50 50" fill="none" xmlns="http://www.w3.org/2000/svg">
<circle cx="25" cy="25" r="25" fill="#000" fill-opacity="0.04"/>
<path d="M31.885 33.25H31.75V33.385C31.75 34.1448 31.4482 34.8736 30.9109 35.4109C30.3736 35.9482 29.6448 36.25 28.885 36.25H18.115C17.3552 36.25 16.6264 35.9482 16.0891 35.4109C15.5518 34.8736 15.25 34.1448 15.25 33.385V19.615C15.25 18.8552 15.5518 18.1264 16.0891 17.5891C16.6264 17.0518 17.3552 16.75 18.115 16.75H18.25V16.615C18.25 16.2388 18.3241 15.8662 18.4681 15.5186C18.6121 15.171 18.8231 14.8552 19.0891 14.5891C19.3552 14.3231 19.671 14.1121 20.0186 13.9681C20.3662 13.8241 20.7388 13.75 21.115 13.75H31.885C32.6448 13.75 33.3736 14.0518 33.9109 14.5891C34.4482 15.1264 34.75 15.8552 34.75 16.615V30.385C34.75 31.1448 34.4482 31.8736 33.9109 32.4109C33.3736 32.9482 32.6448 33.25 31.885 33.25ZM18.115 18.25C17.7536 18.252 17.4075 18.3964 17.152 18.652C16.8964 18.9075 16.752 19.2536 16.75 19.615V33.385C16.752 33.7464 16.8964 34.0925 17.152 34.348C17.4075 34.6036 17.7536 34.748 18.115 34.75H28.885C29.2464 34.748 29.5925 34.6036 29.848 34.348C30.1036 34.0925 30.248 33.7464 30.25 33.385V19.615C30.248 19.2536 30.1036 18.9075 29.848 18.652C29.5925 18.3964 29.2464 18.252 28.885 18.25H18.115ZM33.25 16.615C33.248 16.2536 33.1036 15.9075 32.848 15.652C32.5925 15.3964 32.2464 15.252 31.885 15.25H21.115C20.7536 15.252 20.4075 15.3964 20.152 15.652C19.8964 15.9075 19.752 16.2536 19.75 16.615V16.75H28.885C29.6448 16.75 30.3736 17.0518 30.9109 17.5891C31.4482 18.1264 31.75 18.8552 31.75 19.615V31.75H31.885C32.2464 31.748 32.5925 31.6036 32.848 31.348C33.1036 31.0925 33.248 30.7464 33.25 30.385V16.615Z" fill="black"/>
</svg>
