<svg width="40" height="40" viewBox="0 0 40 40" fill="none" xmlns="http://www.w3.org/2000/svg">
<rect width="40" height="40" rx="20" fill="black" fill-opacity="0.04"/>
<path d="M15.92 21.4697C17.33 21.4697 18.46 22.6107 18.46 24.0307V27.4397C18.46 28.8497 17.33 29.9997 15.92 29.9997H12.54C11.14 29.9997 10 28.8497 10 27.4397V24.0307C10 22.6107 11.14 21.4697 12.54 21.4697H15.92ZM27.4601 21.4697C28.8601 21.4697 30.0001 22.6107 30.0001 24.0307V27.4397C30.0001 28.8497 28.8601 29.9997 27.4601 29.9997H24.0801C22.6701 29.9997 21.5401 28.8497 21.5401 27.4397V24.0307C21.5401 22.6107 22.6701 21.4697 24.0801 21.4697H27.4601ZM27.4601 10C28.8601 10 30.0001 11.15 30.0001 12.561V15.97C30.0001 17.39 28.8601 18.53 27.4601 18.53H24.0801C22.6701 18.53 21.5401 17.39 21.5401 15.97V12.561C21.5401 11.15 22.6701 10 24.0801 10H27.4601Z" fill="#404040"/>
<path d="M18.46 12.561C18.46 11.15 17.33 10 15.92 10H12.54C11.14 10 10 11.15 10 12.561V15.97C10 17.39 11.14 18.53 12.54 18.53H15.92C17.33 18.53 18.46 17.39 18.46 15.97V12.561Z" fill="#404040"/>
</svg>
