<svg width="62" height="62" viewBox="0 0 62 62" fill="none" xmlns="http://www.w3.org/2000/svg">
<g clip-path="url(#clip0_60_6560)">
<path fill-rule="evenodd" clip-rule="evenodd" d="M51.7119 4.74082C51.6695 4.20801 52.0679 3.7418 52.6007 3.70062C53.1335 3.65945 53.5997 4.05664 53.6409 4.58945L54.1313 10.7059C54.1737 11.2387 53.7753 11.7049 53.2425 11.7461C53.1856 11.7509 53.1299 11.7497 53.0754 11.7449L46.9747 11.2557C46.4419 11.2133 46.0435 10.7483 46.0859 10.2155C46.1282 9.68266 46.5932 9.28426 47.1261 9.32664L50.5796 9.60394C48.0415 7.28016 45.0905 5.40199 41.8488 4.09297C38.5018 2.74156 34.8399 1.99805 31 1.99805C27.9787 1.99805 25.0688 2.4582 22.3357 3.31313C19.5058 4.19832 16.8611 5.50734 14.4743 7.16512C14.036 7.47027 13.4317 7.36129 13.1278 6.92293C12.8238 6.48457 12.9316 5.88031 13.37 5.57637C15.9141 3.80961 18.7368 2.4134 21.7618 1.46645C24.6813 0.553398 27.785 0.0605469 31 0.0605469C35.0857 0.0605469 38.991 0.856133 42.5681 2.29957C46.0762 3.71516 49.2646 5.75559 51.9952 8.28039L51.7119 4.74082ZM54.8349 14.4743C54.5297 14.036 54.6387 13.4317 55.0771 13.1278C55.5154 12.8226 56.1197 12.9316 56.4236 13.37C58.1904 15.9141 59.5866 18.7368 60.5336 21.7618C61.4466 24.6825 61.9395 27.7862 61.9395 31.0012C61.9395 35.0869 61.1451 38.9922 59.7004 42.5693C58.2848 46.0774 56.2444 49.2658 53.7196 51.9964L57.258 51.7119C57.7908 51.6695 58.257 52.0679 58.2982 52.6007C58.3405 53.1335 57.9421 53.5997 57.4093 53.6409L51.2929 54.1313C50.7601 54.1725 50.2939 53.7753 50.2527 53.2425C50.2478 53.1856 50.2491 53.1299 50.2539 53.0754L50.7431 46.9747C50.7855 46.4419 51.2505 46.0435 51.7833 46.0859C52.3161 46.1282 52.7145 46.5932 52.6721 47.1261L52.3948 50.5796C54.7186 48.0415 56.5968 45.0905 57.9058 41.8488C59.2572 38.5018 60.0007 34.8399 60.0007 31C60.0007 27.9787 59.5406 25.0688 58.6857 22.3357C57.8017 19.5058 56.4927 16.8611 54.8349 14.4743ZM47.5257 54.8349C47.964 54.5297 48.5683 54.6387 48.8722 55.0771C49.1774 55.5154 49.0684 56.1197 48.63 56.4236C46.0859 58.1904 43.2632 59.5866 40.2382 60.5336C37.3175 61.4466 34.2138 61.9395 30.9988 61.9395C26.9131 61.9395 23.0078 61.1451 19.4307 59.7004C15.9226 58.2848 12.7342 56.2444 10.0036 53.7196L10.2881 57.258C10.3305 57.7908 9.93211 58.257 9.3993 58.2982C8.86648 58.3405 8.40027 57.9421 8.3591 57.4093L7.86867 51.2929C7.82629 50.7601 8.22469 50.2939 8.7575 50.2527C8.81441 50.2478 8.87012 50.2491 8.92461 50.2539L15.0253 50.7431C15.5581 50.7855 15.9565 51.2505 15.9141 51.7833C15.8718 52.3161 15.4068 52.7145 14.8739 52.6721L11.4204 52.3948C13.9585 54.7186 16.9095 56.5968 20.1512 57.9058C23.4982 59.2572 27.1601 60.0007 31 60.0007C34.0213 60.0007 36.9312 59.5406 39.6643 58.6857C42.4942 57.8017 45.1389 56.4927 47.5257 54.8349ZM7.16512 47.5257C7.47027 47.964 7.36129 48.5683 6.92293 48.8722C6.48457 49.1774 5.88031 49.0684 5.57637 48.63C3.80961 46.0859 2.4134 43.2632 1.46645 40.2382C0.553398 37.3187 0.0605469 34.215 0.0605469 31C0.0605469 26.9143 0.854922 23.009 2.29957 19.4319C3.71516 15.9238 5.75559 12.7354 8.28039 10.0048L4.74203 10.2893C4.20922 10.3317 3.74301 9.93332 3.70184 9.40051C3.66066 8.86769 4.05785 8.40148 4.59066 8.36031L10.7071 7.86988C11.2399 7.8275 11.7061 8.2259 11.7473 8.75871C11.7521 8.81563 11.7509 8.87133 11.7461 8.92582L11.2569 15.0265C11.2145 15.5593 10.7495 15.9577 10.2167 15.9154C9.68387 15.873 9.28547 15.408 9.32785 14.8752L9.60516 11.4216C7.28137 13.9597 5.4032 16.9107 4.09418 20.1524C2.74156 23.4982 1.99805 27.1601 1.99805 31C1.99805 34.0213 2.4582 36.9312 3.31313 39.6643C4.19832 42.4942 5.50734 45.1389 7.16512 47.5257Z" fill="#2B5AF3"/>
<path d="M31.0001 48.5719C40.7048 48.5719 48.572 40.7047 48.572 31C48.572 21.2953 40.7048 13.4281 31.0001 13.4281C21.2954 13.4281 13.4282 21.2953 13.4282 31C13.4282 40.7047 21.2954 48.5719 31.0001 48.5719Z" fill="#27C679"/>
<path d="M31.7882 43.7895C38.8504 43.3507 44.2199 37.27 43.7811 30.2078C43.3424 23.1455 37.2616 17.7761 30.1994 18.2149C23.1372 18.6536 17.7678 24.7343 18.2065 31.7966C18.6452 38.8588 24.726 44.2282 31.7882 43.7895Z" fill="#37F097"/>
<path fill-rule="evenodd" clip-rule="evenodd" d="M34.5665 26.0849C34.8801 26.5172 34.7833 27.1226 34.351 27.4363C33.9187 27.7499 33.3132 27.653 32.9996 27.2207C32.8312 26.987 32.6133 26.7981 32.3638 26.6697C32.1253 26.5474 31.8516 26.4784 31.5561 26.4784H30.6915C30.2035 26.4784 29.7603 26.6782 29.437 27.0015C29.1149 27.3236 28.9138 27.7681 28.9138 28.2561C28.9138 28.7441 29.1137 29.1873 29.437 29.5106C29.7591 29.8327 30.2035 30.0337 30.6915 30.0337H31.3054C32.3275 30.0337 33.2563 30.4515 33.9296 31.1236C34.6028 31.7968 35.0194 32.7256 35.0194 33.7477C35.0194 34.7697 34.6016 35.6985 33.9296 36.3718C33.4052 36.8961 32.7259 37.2654 31.9678 37.4023V38.2911C31.9678 38.8263 31.5343 39.2599 30.9991 39.2599C30.4638 39.2599 30.0303 38.8263 30.0303 38.2911V37.4374C29.5799 37.3865 29.15 37.2521 28.7564 37.0499C28.2272 36.7774 27.7731 36.3875 27.4329 35.9165C27.1192 35.4841 27.2161 34.8787 27.6484 34.565C28.0807 34.2514 28.6862 34.3483 28.9998 34.7806C29.1681 35.0143 29.3861 35.2032 29.6356 35.3316C29.8741 35.4539 30.1478 35.5229 30.4433 35.5229H31.3079C31.7959 35.5229 32.2391 35.3231 32.5624 34.9998C32.8845 34.6777 33.0855 34.2333 33.0855 33.7452C33.0855 33.2572 32.8857 32.814 32.5624 32.4907C32.2403 32.1686 31.7959 31.9676 31.3079 31.9676H30.6939C29.6719 31.9676 28.7431 31.5498 28.0698 30.8777C27.3965 30.2045 26.98 29.2757 26.98 28.2536C26.98 27.2316 27.3978 26.3028 28.0698 25.6295C28.5942 25.1052 29.2735 24.7359 30.0315 24.599V23.7102C30.0315 23.175 30.4651 22.7415 31.0003 22.7415C31.5355 22.7415 31.969 23.175 31.969 23.7102V24.5639C32.4195 24.6148 32.8494 24.7492 33.2429 24.9514C33.7721 25.2227 34.2262 25.6138 34.5665 26.0849Z" fill="white"/>
</g>
<defs>
<clipPath id="clip0_60_6560">
<rect width="62" height="62" fill="white"/>
</clipPath>
</defs>
</svg>
