<svg width="22" height="22" viewBox="0 0 22 22" fill="none" xmlns="http://www.w3.org/2000/svg">
<g clip-path="url(#clip0_143_646)">
<path d="M0.66808 13.366C2.08983 15.6815 5.32383 19.5663 10.9998 19.5663C16.6758 19.5663 19.9098 15.6815 21.3316 13.366C21.7711 12.6551 22.0039 11.8358 22.0039 11C22.0039 10.1643 21.7711 9.345 21.3316 8.63412C19.9098 6.31862 16.6758 2.43378 10.9998 2.43378C5.32383 2.43378 2.08983 6.31862 0.66808 8.63412C0.228564 9.345 -0.00424528 10.1643 -0.00424528 11C-0.00424528 11.8358 0.228564 12.6551 0.66808 13.366ZM2.231 9.59387C3.452 7.60837 6.21575 4.26712 10.9998 4.26712C15.7839 4.26712 18.5477 7.60837 19.7687 9.59387C20.0298 10.0164 20.1681 10.5033 20.1681 11C20.1681 11.4968 20.0298 11.9837 19.7687 12.4062C18.5477 14.3917 15.7839 17.733 10.9998 17.733C6.21575 17.733 3.452 14.3954 2.231 12.4062C1.96987 11.9837 1.83156 11.4968 1.83156 11C1.83156 10.5033 1.96987 10.0164 2.231 9.59387Z" fill="black"/>
<path d="M11.0002 15.5834C11.9067 15.5834 12.7928 15.3146 13.5465 14.8109C14.3002 14.3073 14.8877 13.5915 15.2346 12.754C15.5815 11.9165 15.6723 10.995 15.4954 10.1059C15.3186 9.2168 14.8821 8.40012 14.2411 7.75913C13.6001 7.11814 12.7834 6.68162 11.8943 6.50477C11.0052 6.32792 10.0837 6.41869 9.24619 6.76559C8.4087 7.11249 7.69288 7.69995 7.18926 8.45368C6.68563 9.2074 6.41683 10.0935 6.41683 11C6.41828 12.2152 6.90164 13.3801 7.76086 14.2393C8.62009 15.0986 9.78503 15.5819 11.0002 15.5834ZM11.0002 8.25004C11.5441 8.25004 12.0757 8.41132 12.528 8.7135C12.9802 9.01567 13.3327 9.44516 13.5408 9.94766C13.749 10.4502 13.8034 11.0031 13.6973 11.5365C13.5912 12.07 13.3293 12.56 12.9447 12.9446C12.5601 13.3292 12.0701 13.5911 11.5367 13.6972C11.0032 13.8033 10.4503 13.7489 9.94778 13.5407C9.44528 13.3326 9.01579 12.9801 8.71362 12.5279C8.41145 12.0756 8.25016 11.5439 8.25016 11C8.25016 10.2707 8.53989 9.57122 9.05562 9.0555C9.57134 8.53977 10.2708 8.25004 11.0002 8.25004Z" fill="black"/>
</g>
<defs>
<clipPath id="clip0_143_646">
<rect width="22" height="22" fill="white" transform="matrix(-1 0 0 -1 22 22)"/>
</clipPath>
</defs>
</svg>
