<svg width="22" height="22" viewBox="0 0 22 22" fill="none" xmlns="http://www.w3.org/2000/svg">
<path d="M13.3191 8.68088L8.68076 13.3192C8.08493 12.7234 7.71826 11.9076 7.71826 11.0001C7.71826 9.18505 9.18493 7.71838 10.9999 7.71838C11.9074 7.71838 12.7233 8.08505 13.3191 8.68088Z" stroke="black" stroke-opacity="0.75" stroke-width="1.5" stroke-linecap="round" stroke-linejoin="round"/>
<path d="M16.3349 5.28919C14.7307 4.07919 12.8974 3.41919 10.9999 3.41919C7.76402 3.41919 4.74819 5.32586 2.64902 8.62586C1.82402 9.91836 1.82402 12.0909 2.64902 13.3834C3.37319 14.52 4.21652 15.5009 5.13319 16.2892" stroke="black" stroke-opacity="0.75" stroke-width="1.5" stroke-linecap="round" stroke-linejoin="round"/>
<path d="M7.71826 17.9025C8.76326 18.3425 9.87243 18.5808 10.9999 18.5808C14.2358 18.5808 17.2516 16.6742 19.3508 13.3742C20.1758 12.0817 20.1758 9.90916 19.3508 8.61666C19.0483 8.14 18.7183 7.69083 18.3791 7.26917" stroke="black" stroke-opacity="0.75" stroke-width="1.5" stroke-linecap="round" stroke-linejoin="round"/>
<path d="M14.2173 11.6417C13.979 12.9342 12.9248 13.9884 11.6323 14.2267" stroke="black" stroke-opacity="0.75" stroke-width="1.5" stroke-linecap="round" stroke-linejoin="round"/>
<path d="M8.681 13.3192L1.8335 20.1667" stroke="black" stroke-opacity="0.75" stroke-width="1.5" stroke-linecap="round" stroke-linejoin="round"/>
<path d="M20.1668 1.83337L13.3193 8.68087" stroke="black" stroke-opacity="0.75" stroke-width="1.5" stroke-linecap="round" stroke-linejoin="round"/>
</svg>
