<svg width="23" height="22" viewBox="0 0 23 22" fill="none" xmlns="http://www.w3.org/2000/svg">
<path d="M16.794 8.06667C18.444 8.06667 19.7274 9.44167 19.7274 11H21.1024C21.1024 8.61667 19.1774 6.60001 16.7024 6.60001V8.06667H16.794ZM13.8607 11C13.8607 9.35001 15.2357 8.06667 16.794 8.06667V6.60001C14.4107 6.60001 12.394 8.52501 12.394 11H13.8607ZM16.794 13.9333C15.144 13.9333 13.8607 12.5583 13.8607 11H12.4857C12.4857 13.3833 14.4107 15.4 16.8857 15.4V13.9333H16.794ZM16.794 15.4C19.1774 15.4 21.194 13.475 21.194 11H19.819C19.819 12.65 18.444 13.9333 16.8857 13.9333V15.4H16.794Z" fill="black" fill-opacity="0.75"/>
<path d="M3.96038 10.2667C3.59372 10.2667 3.22705 10.5417 3.22705 11C3.22705 11.4583 3.50205 11.7333 3.96038 11.7333V10.2667ZM9.46038 11.7333C9.82705 11.7333 10.1937 11.4583 10.1937 11C10.1937 10.5417 9.91872 10.2667 9.46038 10.2667V11.7333ZM3.96038 11.7333H9.46038V10.3583H3.96038V11.7333Z" fill="black" fill-opacity="0.75"/>
<path d="M6.7105 3.66667L7.35216 3.39167C7.2605 3.11667 6.9855 2.93333 6.7105 2.93333C6.4355 2.93333 6.1605 3.11667 6.06883 3.39167L6.7105 3.66667ZM1.4855 14.3917C1.30216 14.7583 1.4855 15.125 1.85216 15.3083C2.21883 15.4917 2.5855 15.3083 2.76883 14.9417L1.4855 14.3917ZM10.6522 14.9417C10.8355 15.3083 11.2022 15.4917 11.5688 15.3083C11.9355 15.125 12.1188 14.7583 11.9355 14.3917L10.6522 14.9417ZM6.06883 3.39167L1.4855 14.3917L2.76883 14.9417L7.35216 3.94167L6.06883 3.39167ZM11.9355 14.3917L7.35216 3.39167L6.06883 3.94167L10.6522 14.9417L11.9355 14.3917Z" fill="black" fill-opacity="0.75"/>
<path d="M20.4604 15.4C20.0937 15.4 19.7271 15.125 19.7271 14.6667V7.33334C19.7271 6.96667 20.0021 6.60001 20.4604 6.60001C20.9187 6.60001 21.1937 6.87501 21.1937 7.33334V14.6667C21.1937 15.0333 20.8271 15.4 20.4604 15.4Z" fill="black" fill-opacity="0.75"/>
</svg>
