<svg width="22" height="22" viewBox="0 0 22 22" fill="none" xmlns="http://www.w3.org/2000/svg">
<g clip-path="url(#clip0_97_1488)">
<path d="M19.9835 17.6892V10.9239H20.531C21.3417 10.9239 22.0001 10.3752 22.0001 9.69962C22.0001 9.25174 21.7067 8.84 21.2338 8.62488L12.9917 4.87884C12.8092 4.79565 12.6166 4.73935 12.421 4.70154V3.91502L15.4248 2.66214C15.7535 2.47307 15.9501 2.1546 15.9501 1.80756C15.9501 1.46052 15.7535 1.14121 15.4248 0.952139C15.3996 0.937854 13.0764 0.0782309 12.9302 0.0420981C12.5762 -0.0469733 12.2001 0.00848628 11.8997 0.195032C11.5951 0.384099 11.4126 0.684925 11.4126 1.00004V4.70154C11.216 4.73935 11.0234 4.79565 10.8419 4.87884L2.5998 8.62488C2.1279 8.84 1.83447 9.25174 1.83447 9.69962C1.83447 10.3752 2.49392 10.9239 3.30361 10.9239H3.85114V17.6892C2.70164 17.8841 1.83447 18.7328 1.83447 19.747C1.83447 19.979 2.06034 20.1672 2.33864 20.1672C2.61694 20.1672 2.84281 19.979 2.84281 19.747C2.84281 19.0521 3.52141 18.4866 4.35531 18.4866C4.11633 18.4866 19.683 18.4866 19.4803 18.4866C20.3142 18.4866 20.9928 19.0521 20.9928 19.747C20.9928 19.979 21.2187 20.1672 21.497 20.1672C21.7753 20.1672 22.0011 19.979 22.0011 19.747C22.0011 18.732 21.133 17.8841 19.9835 17.6892ZM12.421 0.999195C12.421 0.92609 12.4764 0.883235 12.5006 0.86895C12.5228 0.854665 12.6246 0.8429 12.6398 0.847102C12.7436 0.872311 12.8455 0.903402 12.9463 0.941215L14.8763 1.66051C14.9368 1.71009 14.9408 1.78319 14.9408 1.80672C14.9408 1.83193 14.9347 1.92184 14.9126 1.93865L12.42 2.97473V0.999195H12.421ZM6.87513 17.6463H4.85846V10.9239H6.87513V17.6463ZM9.90013 17.6463H7.88346V10.9239H9.90013V17.6463ZM12.9251 17.6463H10.9085V10.9239H12.9251V17.6463ZM15.9501 17.6463H13.9335V10.9239H15.9501V17.6463ZM16.9585 17.6463V10.9239H18.9751V17.6463H16.9585ZM3.30261 10.0836C3.04851 10.0836 2.8418 9.91138 2.8418 9.69962C2.8418 9.55845 2.93356 9.42989 3.08178 9.36182L11.3239 5.61578C11.695 5.44856 12.1386 5.44856 12.5097 5.61578L20.7518 9.36182C20.899 9.42989 20.9918 9.55845 20.9918 9.69962C20.9918 9.91138 20.7851 10.0836 20.531 10.0836H3.30261Z" fill="black" fill-opacity="0.75"/>
<path d="M10.8002 4.78794L2.55842 8.53384L2.55832 8.53389C2.05785 8.76203 1.73447 9.20534 1.73447 9.69962C1.73447 10.4468 2.45659 11.0239 3.30361 11.0239H3.75114V17.6059C2.6085 17.8328 1.73447 18.6961 1.73447 19.747C1.73447 20.0505 2.02296 20.2672 2.33864 20.2672C2.65432 20.2672 2.94281 20.0505 2.94281 19.747C2.94281 19.1236 3.5588 18.5866 4.35531 18.5866H4.35556H4.35718H4.35916H4.36148H4.36414H4.36715H4.37051H4.37421H4.37824H4.38262H4.38734H4.39239H4.39777H4.40349H4.40954H4.41592H4.42264H4.42967H4.43704H4.44473H4.45275H4.46108H4.46974H4.47872H4.48801H4.49762H4.50755H4.51779H4.52834H4.53921H4.55038H4.56186H4.57365H4.58574H4.59814H4.61084H4.62384H4.63714H4.65074H4.66464H4.67883H4.69331H4.70809H4.72316H4.73852H4.75416H4.7701H4.78632H4.80282H4.81961H4.83668H4.85402H4.87165H4.88955H4.90773H4.92618H4.94491H4.96391H4.98317H5.00271H5.02251H5.04258H5.06291H5.08351H5.10437H5.12549H5.14686H5.1685H5.19039H5.21253H5.23493H5.25758H5.28048H5.30362H5.32702H5.35066H5.37455H5.39868H5.42305H5.44766H5.47251H5.4976H5.52292H5.54848H5.57427H5.6003H5.62655H5.65304H5.67975H5.70668H5.73385H5.76123H5.78884H5.81667H5.84472H5.87298H5.90146H5.93016H5.95907H5.98819H6.01753H6.04707H6.07682H6.10678H6.13694H6.1673H6.19787H6.22864H6.25961H6.29078H6.32214H6.3537H6.38545H6.41739H6.44953H6.48185H6.51437H6.54707H6.57995H6.61302H6.64627H6.6797H6.71332H6.74711H6.78107H6.81522H6.84953H6.88402H6.91868H6.95351H6.98851H7.02368H7.05901H7.0945H7.13016H7.16598H7.20196H7.2381H7.27439H7.31085H7.34745H7.38421H7.42112H7.45818H7.49539H7.53274H7.57024H7.60789H7.64568H7.68361H7.72168H7.75988H7.79823H7.83671H7.87533H7.91408H7.95296H7.99197H8.03111H8.07038H8.10977H8.14929H8.18893H8.2287H8.26858H8.30859H8.34871H8.38894H8.42929H8.46976H8.51034H8.55102H8.59182H8.63272H8.67373H8.71485H8.75607H8.79739H8.83881H8.88033H8.92195H8.96366H9.00547H9.04738H9.08937H9.13146H9.17363H9.2159H9.25825H9.30068H9.3432H9.3858H9.42848H9.47125H9.51409H9.557H9.59999H9.64306H9.6862H9.7294H9.77268H9.81603H9.85944H9.90292H9.94646H9.99007H10.0337H10.0775H10.1212H10.1651H10.209H10.2529H10.2969H10.341H10.3851H10.4292H10.4734H10.5177H10.562H10.6063H10.6507H10.6951H10.7395H10.784H10.8286H10.8731H10.9177H10.9623H11.007H11.0517H11.0964H11.1411H11.1859H11.2307H11.2755H11.3203H11.3651H11.41H11.4549H11.4998H11.5447H11.5896H11.6345H11.6794H11.7244H11.7693H11.8143H11.8592H11.9042H11.9492H11.9941H12.0391H12.084H12.129H12.1739H12.2188H12.2638H12.3087H12.3536H12.3984H12.4433H12.4882H12.533H12.5778H12.6226H12.6674H12.7121H12.7569H12.8016H12.8462H12.8909H12.9355H12.9801H13.0246H13.0691H13.1136H13.158H13.2024H13.2468H13.2911H13.3354H13.3796H13.4238H13.4679H13.512H13.556H13.6H13.6439H13.6878H13.7316H13.7754H13.8191H13.8627H13.9063H13.9498H13.9933H14.0367H14.08H14.1232H14.1664H14.2095H14.2526H14.2955H14.3384H14.3812H14.4239H14.4666H14.5092H14.5516H14.594H14.6364H14.6786H14.7207H14.7628H14.8047H14.8466H14.8884H14.93H14.9716H15.0131H15.0545H15.0958H15.1369H15.178H15.219H15.2598H15.3006H15.3412H15.3818H15.4222H15.4625H15.5027H15.5427H15.5827H15.6225H15.6622H15.7018H15.7413H15.7806H15.8199H15.8589H15.8979H15.9367H15.9754H16.014H16.0524H16.0907H16.1289H16.1669H16.2047H16.2425H16.2801H16.3175H16.3548H16.3919H16.4289H16.4658H16.5025H16.539H16.5754H16.6116H16.6477H16.6836H16.7194H16.755H16.7904H16.8257H16.8608H16.8957H16.9304H16.965H16.9995H17.0337H17.0678H17.1017H17.1354H17.1689H17.2023H17.2355H17.2685H17.3013H17.3339H17.3663H17.3986H17.4306H17.4625H17.4942H17.5256H17.5569H17.588H17.6189H17.6496H17.6801H17.7103H17.7404H17.7703H17.8H17.8294H17.8587H17.8877H17.9165H17.9451H17.9735H18.0017H18.0297H18.0574H18.0849H18.1122H18.1393H18.1661H18.1927H18.2191H18.2453H18.2712H18.2969H18.3224H18.3476H18.3726H18.3973H18.4219H18.4461H18.4702H18.4939H18.5175H18.5408H18.5638H18.5866H18.6092H18.6315H18.6535H18.6753H18.6968H18.7181H18.7391H18.7598H18.7803H18.8006H18.8205H18.8402H18.8596H18.8788H18.8977H18.9163H18.9346H18.9527H18.9705H18.988H19.0052H19.0222H19.0389H19.0552H19.0713H19.0872H19.1027H19.1179H19.1329H19.1475H19.1619H19.176H19.1897H19.2032H19.2164H19.2293H19.2418H19.2541H19.2661H19.2778H19.2891H19.3001H19.3109H19.3213H19.3314H19.3412H19.3507H19.3599H19.3687H19.3772H19.3854H19.3933H19.4009H19.4081H19.415H19.4216H19.4278H19.4338H19.4393H19.4446H19.4495H19.4541H19.4583H19.4622H19.4658H19.469H19.4718H19.4744H19.4765H19.4784H19.4799H19.4803C20.2768 18.5866 20.8928 19.1236 20.8928 19.747C20.8928 20.0505 21.1813 20.2672 21.497 20.2672C21.8127 20.2672 22.1011 20.0505 22.1011 19.747C22.1011 18.6952 21.2261 17.8328 20.0835 17.6059V11.0239H20.531C21.3791 11.0239 22.1001 10.4467 22.1001 9.69962C22.1001 9.2053 21.7767 8.76198 21.2752 8.53386L21.2752 8.53385L13.0332 4.78785L10.8002 4.78794ZM12.52 1.0992H12.521V0.999195C12.521 0.989663 12.5242 0.981733 12.5305 0.973546C12.5361 0.966431 12.5429 0.960855 12.5478 0.957458C12.549 0.957118 12.5506 0.956708 12.5526 0.956243C12.5615 0.954127 12.5736 0.951958 12.5867 0.950135C12.5996 0.948325 12.6119 0.947099 12.6209 0.946548C12.6223 0.946459 12.6236 0.946395 12.6246 0.946349C12.7218 0.970263 12.817 0.999517 12.9112 1.03485L12.9114 1.03492L14.8221 1.74703C14.8284 1.75478 14.8328 1.76365 14.8358 1.77322C14.8402 1.78738 14.8408 1.80046 14.8408 1.80672C14.8408 1.8145 14.8396 1.83816 14.8362 1.86056C14.8361 1.86112 14.836 1.86167 14.8359 1.86221L12.52 2.82487V1.0992ZM6.77513 17.5463H4.95846V11.0239H6.77513V17.5463ZM9.80013 17.5463H7.98346V11.0239H9.80013V17.5463ZM12.8251 17.5463H11.0085V11.0239H12.8251V17.5463ZM15.8501 17.5463H14.0335V11.0239H15.8501V17.5463ZM17.0585 17.5463V11.0239H18.8751V17.5463H17.0585ZM3.30261 9.98364C3.08589 9.98364 2.9418 9.83985 2.9418 9.69962C2.9418 9.6049 3.00356 9.50783 3.12337 9.45276C3.12342 9.45274 3.12346 9.45272 3.12351 9.4527L11.365 5.70695C11.365 5.70693 11.3651 5.70691 11.3651 5.70689C11.71 5.55153 12.1236 5.55153 12.4685 5.70689C12.4685 5.70691 12.4686 5.70693 12.4686 5.70695L20.7098 9.45259C20.7099 9.45261 20.7099 9.45263 20.71 9.45265C20.8293 9.50788 20.8918 9.6052 20.8918 9.69962C20.8918 9.83985 20.7477 9.98364 20.531 9.98364H3.30261Z" stroke="black" stroke-opacity="0.75" stroke-width="0.2"/>
</g>
<defs>
<clipPath id="clip0_97_1488">
<rect width="22" height="22" fill="white"/>
</clipPath>
</defs>
</svg>
