<svg width="40" height="40" viewBox="0 0 40 40" fill="none" xmlns="http://www.w3.org/2000/svg">
<rect width="40" height="40" rx="20" fill="black" fill-opacity="0.04"/>
<g clip-path="url(#clip0_152_2079)">
<path d="M20 8C17.6266 8 15.3066 8.70379 13.3332 10.0224C11.3598 11.3409 9.8217 13.2151 8.91345 15.4078C8.0052 17.6005 7.76756 20.0133 8.23058 22.3411C8.6936 24.6689 9.83649 26.8071 11.5147 28.4853C13.193 30.1635 15.3311 31.3064 17.6589 31.7694C19.9867 32.2324 22.3995 31.9948 24.5922 31.0866C26.7849 30.1783 28.6591 28.6402 29.9776 26.6668C31.2962 24.6935 32 22.3734 32 20C31.9966 16.8185 30.7312 13.7682 28.4815 11.5185C26.2318 9.26883 23.1815 8.00344 20 8ZM20 30C18.0222 30 16.0888 29.4135 14.4443 28.3147C12.7998 27.2159 11.5181 25.6541 10.7612 23.8268C10.0043 21.9996 9.8063 19.9889 10.1922 18.0491C10.578 16.1093 11.5304 14.3275 12.9289 12.9289C14.3275 11.5304 16.1093 10.578 18.0491 10.1921C19.9889 9.8063 21.9996 10.0043 23.8268 10.7612C25.6541 11.5181 27.2159 12.7998 28.3147 14.4443C29.4135 16.0888 30 18.0222 30 20C29.9971 22.6513 28.9426 25.1931 27.0679 27.0679C25.1931 28.9426 22.6513 29.9971 20 30Z" fill="#404040"/>
<path d="M20.717 13.0631C20.1403 12.958 19.5476 12.981 18.9808 13.1303C18.414 13.2797 17.8869 13.5518 17.4369 13.9274C16.9869 14.303 16.6249 14.7729 16.3766 15.3039C16.1283 15.8349 15.9997 16.4139 16 17.0001C16 17.2653 16.1054 17.5196 16.2929 17.7072C16.4804 17.8947 16.7348 18.0001 17 18.0001C17.2652 18.0001 17.5196 17.8947 17.7071 17.7072C17.8946 17.5196 18 17.2653 18 17.0001C17.9997 16.7059 18.0644 16.4152 18.1894 16.1488C18.3144 15.8825 18.4966 15.647 18.723 15.4591C18.9495 15.2712 19.2146 15.1357 19.4994 15.062C19.7843 14.9884 20.0819 14.9785 20.371 15.0331C20.766 15.1098 21.1293 15.3025 21.4142 15.5866C21.6992 15.8707 21.8931 16.2333 21.971 16.6281C22.0497 17.0425 21.9954 17.4712 21.8158 17.8528C21.6362 18.2345 21.3405 18.5496 20.971 18.7531C20.3592 19.1075 19.8536 19.6196 19.5069 20.2359C19.1603 20.8522 18.9852 21.5501 19 22.2571V23.0001C19 23.2653 19.1054 23.5196 19.2929 23.7072C19.4804 23.8947 19.7348 24.0001 20 24.0001C20.2652 24.0001 20.5196 23.8947 20.7071 23.7072C20.8946 23.5196 21 23.2653 21 23.0001V22.2571C20.9875 21.9091 21.0668 21.5639 21.2301 21.2564C21.3933 20.9488 21.6347 20.6897 21.93 20.5051C22.6545 20.1071 23.238 19.4945 23.6001 18.7515C23.9622 18.0084 24.0853 17.1714 23.9523 16.3556C23.8193 15.5398 23.4368 14.7852 22.8575 14.1956C22.2782 13.606 21.5304 13.2103 20.717 13.0631Z" fill="#404040"/>
<path d="M21 26C21 25.4477 20.5523 25 20 25C19.4477 25 19 25.4477 19 26C19 26.5523 19.4477 27 20 27C20.5523 27 21 26.5523 21 26Z" fill="#404040"/>
</g>
<defs>
<clipPath id="clip0_152_2079">
<rect width="24" height="24" fill="white" transform="translate(8 8)"/>
</clipPath>
</defs>
</svg>
