<svg width="22" height="22" viewBox="0 0 22 22" fill="none" xmlns="http://www.w3.org/2000/svg">
<g clip-path="url(#clip0_97_1468)">
<path d="M16.9583 0H5.04167C3.7785 0 2.75 1.0285 2.75 2.29167V22H9.16667V15.5833H12.8333V22H19.25V2.29167C19.25 1.0285 18.2215 0 16.9583 0ZM18.3333 21.0833H13.75V15.5833H15.5833V14.6667H6.41667V15.5833H8.25V21.0833H3.66667V2.29167C3.66667 1.53358 4.28358 0.916667 5.04167 0.916667H16.9583C17.7164 0.916667 18.3333 1.53358 18.3333 2.29167V21.0833ZM6.41667 11H8.25V11.9167H6.41667V11ZM13.75 11H15.5833V11.9167H13.75V11ZM6.41667 3.66667H8.25V4.58333H6.41667V3.66667ZM13.75 3.66667H15.5833V4.58333H13.75V3.66667ZM6.41667 7.33333H8.25V8.25H6.41667V7.33333ZM13.75 7.33333H15.5833V8.25H13.75V7.33333ZM10.0833 11H11.9167V11.9167H10.0833V11ZM10.0833 3.66667H11.9167V4.58333H10.0833V3.66667ZM10.0833 7.33333H11.9167V8.25H10.0833V7.33333Z" fill="black" fill-opacity="0.75"/>
<path d="M2.65 22V22.1H2.75H9.16667H9.26667V22V15.6833H12.7333V22V22.1H12.8333H19.25H19.35V22V2.29167C19.35 0.973271 18.2767 -0.1 16.9583 -0.1H5.04167C3.72327 -0.1 2.65 0.973271 2.65 2.29167V22ZM6.41667 15.6833H8.15V20.9833H3.76667V2.29167C3.76667 1.58881 4.33881 1.01667 5.04167 1.01667H16.9583C17.6612 1.01667 18.2333 1.58881 18.2333 2.29167V20.9833H13.85V15.6833H15.5833H15.6833V15.5833V14.6667V14.5667H15.5833H6.41667H6.31667V14.6667V15.5833V15.6833H6.41667ZM6.41667 10.9H6.31667V11V11.9167V12.0167H6.41667H8.25H8.35V11.9167V11V10.9H8.25H6.41667ZM13.75 10.9H13.65V11V11.9167V12.0167H13.75H15.5833H15.6833V11.9167V11V10.9H15.5833H13.75ZM6.41667 3.56667H6.31667V3.66667V4.58333V4.68333H6.41667H8.25H8.35V4.58333V3.66667V3.56667H8.25H6.41667ZM13.75 3.56667H13.65V3.66667V4.58333V4.68333H13.75H15.5833H15.6833V4.58333V3.66667V3.56667H15.5833H13.75ZM6.41667 7.23333H6.31667V7.33333V8.25V8.35H6.41667H8.25H8.35V8.25V7.33333V7.23333H8.25H6.41667ZM13.75 7.23333H13.65V7.33333V8.25V8.35H13.75H15.5833H15.6833V8.25V7.33333V7.23333H15.5833H13.75ZM10.0833 10.9H9.98333V11V11.9167V12.0167H10.0833H11.9167H12.0167V11.9167V11V10.9H11.9167H10.0833ZM10.0833 3.56667H9.98333V3.66667V4.58333V4.68333H10.0833H11.9167H12.0167V4.58333V3.66667V3.56667H11.9167H10.0833ZM10.0833 7.23333H9.98333V7.33333V8.25V8.35H10.0833H11.9167H12.0167V8.25V7.33333V7.23333H11.9167H10.0833Z" stroke="black" stroke-opacity="0.75" stroke-width="0.2"/>
</g>
<defs>
<clipPath id="clip0_97_1468">
<rect width="22" height="22" fill="white"/>
</clipPath>
</defs>
</svg>
