<svg width="64" height="64" viewBox="0 0 64 64" fill="none" xmlns="http://www.w3.org/2000/svg">
<circle cx="31.6338" cy="32" r="31.6279" fill="white"/>
<mask id="mask0_71_6867" style="mask-type:luminance" maskUnits="userSpaceOnUse" x="18" y="10" width="26" height="45">
<path d="M43.265 10.493H18.9814V54.5072H43.265V10.493Z" fill="white"/>
</mask>
<g mask="url(#mask0_71_6867)">
<path d="M25.5769 35.4349L22.3851 30.806C21.815 29.9788 21.5451 28.9622 21.6711 27.9557C21.696 27.7547 21.7312 27.5971 21.7786 27.5262L26.0991 23.4322L30.5668 23.1763C31.0751 23.1473 31.5622 22.9796 31.9838 22.6831C32.4668 22.3433 32.7927 21.8632 33.1444 21.3874C33.6106 20.7569 34.0629 20.1163 34.5008 19.4655C34.8075 19.0086 35.1744 18.5631 35.376 18.0411C35.4193 17.9269 35.4528 17.7909 35.3915 17.6853C35.3396 17.5971 35.2345 17.5581 35.1363 17.5407C34.7989 17.48 34.4239 17.5378 34.0837 17.5494C33.7128 17.561 33.3402 17.5711 32.9677 17.5566C32.4136 17.5364 31.8591 17.5031 31.3045 17.4814C30.0434 17.4337 29.0758 17.428 27.8142 17.3889C26.6213 17.3498 25.3376 17.2428 24.1448 17.2038C21.6555 17.1199 19.4072 13.0245 18.9814 10.4967C22.5532 10.4967 26.1245 10.4967 29.6974 10.4967C31.9388 10.4967 34.179 10.4967 36.4204 10.4967C37.6145 10.4967 38.6001 10.4201 39.7271 10.9074C40.7675 11.3571 41.7068 12.0715 42.3664 13.0231C43.6444 14.8683 43.4052 16.7512 42.6143 18.7034C42.1186 19.9268 41.567 21.1271 40.9691 22.2999C40.1806 23.8443 39.3407 25.6419 38.1326 26.8754C35.3956 29.6708 31.9907 29.6375 28.4248 29.8183C29.3866 31.221 30.9393 32.7655 30.8412 34.5921C30.7643 36.0467 30.0405 37.1516 29.3052 38.3069C28.4276 39.6879 27.5512 41.0677 26.6732 42.4487L20.2933 52.489L19.0121 54.5064" fill="#2B5AF3"/>
<path opacity="0.54" d="M26.0643 23.4341C26.0643 23.4341 25.3405 27.0204 28.3883 29.8187L31.6112 29.6249C31.6112 29.6249 36.4359 29.4644 38.6663 26.2207L35.6418 24.1524L32.6418 22.1022C32.6418 22.1022 31.8828 23.0141 30.9046 23.1535C29.6471 23.2302 26.0643 23.4341 26.0643 23.4341Z" fill="url(#paint0_linear_71_6867)"/>
<path opacity="0.62" d="M34.9313 17.5138C34.9313 17.5138 41.2062 17.025 42.1107 19.8956C42.1107 19.8956 39.8718 24.8399 38.7014 26.2209C37.1932 25.2907 32.6772 22.1024 32.6772 22.1024C32.6772 22.1024 34.9649 18.9874 35.4323 17.8942C35.5137 17.7062 35.1608 17.5066 34.9313 17.5138Z" fill="url(#paint1_linear_71_6867)"/>
</g>
<defs>
<linearGradient id="paint0_linear_71_6867" x1="29.3146" y1="30.3494" x2="33.8248" y2="22.7854" gradientUnits="userSpaceOnUse">
<stop/>
<stop offset="0.24" stop-color="#121619"/>
<stop offset="0.5" stop-color="#23282F"/>
<stop offset="0.76" stop-color="#2C343C"/>
<stop offset="1" stop-color="#303841"/>
</linearGradient>
<linearGradient id="paint1_linear_71_6867" x1="39.316" y1="17.5283" x2="34.9763" y2="24.8049" gradientUnits="userSpaceOnUse">
<stop/>
<stop offset="0.04" stop-color="#020304"/>
<stop offset="0.44" stop-color="#1B2025"/>
<stop offset="0.78" stop-color="#2A3139"/>
<stop offset="1" stop-color="#303841"/>
</linearGradient>
</defs>
</svg>
