<svg width="24" height="24" viewBox="0 0 24 24" fill="none" xmlns="http://www.w3.org/2000/svg">
<path d="M13.1942 19.1653H3.6405C2.92397 19.1653 2.44629 18.6876 2.44629 17.9711C2.44629 17.2545 2.92397 16.7769 3.6405 16.7769H13.1942C13.9107 16.7769 14.3884 17.2545 14.3884 17.9711C14.3884 18.6876 13.9107 19.1653 13.1942 19.1653Z" fill="white"/>
<path d="M20.3595 13.1942H3.6405C2.92397 13.1942 2.44629 12.7165 2.44629 12C2.44629 11.2835 2.92397 10.8058 3.6405 10.8058H20.3595C21.076 10.8058 21.5537 11.2835 21.5537 12C21.5537 12.7165 21.076 13.1942 20.3595 13.1942Z" fill="white"/>
<path d="M20.3593 7.22314H10.8055C10.089 7.22314 9.61133 6.74546 9.61133 6.02893C9.61133 5.3124 10.089 4.83472 10.8055 4.83472H20.3593C21.0758 4.83472 21.5535 5.3124 21.5535 6.02893C21.5535 6.74546 21.0758 7.22314 20.3593 7.22314Z" fill="white"/>
</svg>
