<svg width="230" height="70" viewBox="0 0 230 70" fill="none" xmlns="http://www.w3.org/2000/svg">
<rect width="230" height="70" rx="35" fill="#2B5AF3"/>
<path d="M50.1554 40.2941H44.2173L49.4219 15.843H59.5168C61.9619 15.843 63.9645 16.5415 65.5248 17.9388C67.1082 19.3127 67.9 21.001 67.9 23.0037C67.9 25.8912 66.8754 28.2432 64.8261 30.0596C62.8002 31.8759 60.1804 32.7841 56.9668 32.7841H51.7622L50.1554 40.2941ZM54.2423 21.0825L52.88 27.5446H57.6654C58.7832 27.5446 59.738 27.1487 60.5297 26.357C61.3448 25.5652 61.7523 24.6221 61.7523 23.5276C61.7523 22.7824 61.5078 22.1886 61.0188 21.7462C60.5297 21.3037 59.8661 21.0825 59.0277 21.0825H54.2423ZM73.7211 40.2941H68.1322L73.6163 14.4457H79.2051L73.7211 40.2941ZM80.4195 31.841L82.4455 22.1304H88.0343L85.8335 32.5396C85.6472 33.4478 85.7755 34.1813 86.2178 34.7402C86.6837 35.2758 87.3939 35.5436 88.3488 35.5436C89.257 35.5436 90.0602 35.2642 90.759 34.7053C91.4806 34.1464 91.9347 33.4245 92.1209 32.5396L94.3217 22.1304H99.9108L97.5704 33.2382C97.0813 35.6135 95.9402 37.4415 94.1472 38.7223C92.3774 40.003 90.1998 40.6434 87.6151 40.6434C85.0304 40.6434 83.0509 39.8168 81.677 38.1634C80.3031 36.51 79.8839 34.4026 80.4195 31.841ZM105.878 27.0206H102.385L103.433 22.1304H106.926L107.974 17.2402L113.912 15.4937L112.515 22.1304H116.881L115.833 27.0206H111.467L110.14 33.3081C109.86 34.7053 110.408 35.4039 111.781 35.4039H114.052L113.004 40.2941H111.118C108.603 40.2941 106.775 39.6072 105.633 38.2332C104.493 36.8593 104.178 34.9847 104.691 32.6095L105.878 27.0206ZM117.799 32.7143C117.799 29.7335 118.893 27.172 121.083 25.0296C123.295 22.8639 125.938 21.7811 129.012 21.7811C131.55 21.7811 133.611 22.503 135.194 23.9468C136.778 25.3673 137.57 27.2884 137.57 29.7102C137.57 32.691 136.475 35.2642 134.286 37.4299C132.097 39.5722 129.477 40.6434 126.427 40.6434C123.865 40.6434 121.781 39.9332 120.174 38.5127C118.591 37.0689 117.799 35.1361 117.799 32.7143ZM123.597 32.2602C123.597 33.2382 123.877 34.03 124.436 34.6354C125.018 35.2409 125.786 35.5436 126.741 35.5436C128.115 35.5436 129.291 35.008 130.269 33.9368C131.27 32.8423 131.771 31.5848 131.771 30.1644C131.771 29.1863 131.48 28.3946 130.898 27.7891C130.339 27.1836 129.582 26.8809 128.627 26.8809C127.253 26.8809 126.066 27.4282 125.064 28.5226C124.086 29.5938 123.597 30.8397 123.597 32.2602ZM176.333 21.7811C179.43 21.7811 181.723 22.9221 183.214 25.2043C184.728 27.4631 184.96 30.1411 183.912 33.2382H170.674C170.837 34.0998 171.221 34.7635 171.826 35.2292C172.432 35.6717 173.177 35.8929 174.062 35.8929C175.832 35.8929 177.287 35.2176 178.428 33.867L182.795 35.9628C181.863 37.3134 180.583 38.4312 178.952 39.3161C177.346 40.201 175.611 40.6434 173.748 40.6434C171.186 40.6434 169.102 39.9332 167.495 38.5127C165.912 37.0689 165.12 35.1361 165.12 32.7143C165.12 29.7335 166.214 27.172 168.403 25.0296C170.615 22.8639 173.259 21.7811 176.333 21.7811ZM177.87 27.2652C177.287 26.7761 176.589 26.5316 175.773 26.5316C174.959 26.5316 174.155 26.7528 173.363 27.1953C172.595 27.6377 171.966 28.2548 171.477 29.0466H178.952C178.813 28.3247 178.452 27.7309 177.87 27.2652Z" fill="white"/>
<mask id="mask0_71_6828" style="mask-type:luminance" maskUnits="userSpaceOnUse" x="138" y="22" width="25" height="43">
<path d="M162.282 22.4651H138.995V64.6725H162.282V22.4651Z" fill="white"/>
</mask>
<g mask="url(#mask0_71_6828)">
<path d="M145.32 46.3832L142.259 41.9443C141.712 41.1511 141.454 40.1762 141.574 39.211C141.598 39.0183 141.632 38.8671 141.677 38.7992L145.821 34.8732L150.105 34.6278C150.592 34.6001 151.059 34.4392 151.464 34.1549C151.927 33.829 152.239 33.3686 152.577 32.9124C153.024 32.3077 153.457 31.6934 153.877 31.0694C154.172 30.6312 154.523 30.204 154.717 29.7034C154.758 29.5939 154.79 29.4635 154.732 29.3623C154.682 29.2777 154.581 29.2402 154.487 29.2236C154.163 29.1654 153.804 29.2208 153.477 29.2319C153.122 29.243 152.765 29.2527 152.407 29.2388C151.876 29.2194 151.344 29.1875 150.812 29.1667C149.603 29.121 148.675 29.1154 147.465 29.078C146.321 29.0405 145.09 28.9379 143.946 28.9004C141.559 28.82 139.403 24.8927 138.995 22.4687C142.42 22.4687 145.845 22.4687 149.271 22.4687C151.421 22.4687 153.569 22.4687 155.718 22.4687C156.863 22.4687 157.808 22.3952 158.889 22.8625C159.887 23.2938 160.788 23.9788 161.42 24.8914C162.646 26.6608 162.416 28.4664 161.658 30.3385C161.183 31.5117 160.654 32.6628 160.08 33.7874C159.324 35.2684 158.519 36.9922 157.36 38.1751C154.736 40.8557 151.47 40.8238 148.051 40.9972C148.973 42.3423 150.462 43.8234 150.368 45.575C150.294 46.9699 149.6 48.0295 148.895 49.1374C148.054 50.4617 147.213 51.7848 146.371 53.1091L140.253 62.7374L139.025 64.6719" fill="white"/>
<path opacity="0.54" d="M145.786 34.8751C145.786 34.8751 145.092 38.3143 148.015 40.9977L151.106 40.8118C151.106 40.8118 155.732 40.6579 157.871 37.5474L154.971 35.5639L152.094 33.5979C152.094 33.5979 151.366 34.4724 150.428 34.6061C149.222 34.6796 145.786 34.8751 145.786 34.8751Z" fill="url(#paint0_linear_71_6828)"/>
<path opacity="0.62" d="M154.291 29.1979C154.291 29.1979 160.308 28.7291 161.176 31.4819C161.176 31.4819 159.029 36.2231 157.906 37.5475C156.46 36.6555 152.129 33.5981 152.129 33.5981C152.129 33.5981 154.323 30.611 154.771 29.5626C154.849 29.3823 154.511 29.1909 154.291 29.1979Z" fill="url(#paint1_linear_71_6828)"/>
</g>
<defs>
<linearGradient id="paint0_linear_71_6828" x1="148.903" y1="41.5066" x2="153.228" y2="34.2531" gradientUnits="userSpaceOnUse">
<stop/>
<stop offset="0.24" stop-color="#121619"/>
<stop offset="0.5" stop-color="#23282F"/>
<stop offset="0.76" stop-color="#2C343C"/>
<stop offset="1" stop-color="#303841"/>
</linearGradient>
<linearGradient id="paint1_linear_71_6828" x1="158.496" y1="29.2117" x2="154.334" y2="36.1896" gradientUnits="userSpaceOnUse">
<stop/>
<stop offset="0.04" stop-color="#020304"/>
<stop offset="0.44" stop-color="#1B2025"/>
<stop offset="0.78" stop-color="#2A3139"/>
<stop offset="1" stop-color="#303841"/>
</linearGradient>
</defs>
</svg>
