<svg width="18" height="22" viewBox="0 0 18 22" fill="none" xmlns="http://www.w3.org/2000/svg">
<path fill-rule="evenodd" clip-rule="evenodd" d="M15.9308 9.14238H2.31278C2.06597 9.14238 1.86591 9.34244 1.86591 9.58926C1.86591 9.83607 2.06597 10.0361 2.31278 10.0361H8.54291V12.8707C8.16134 12.9291 7.80591 13.1072 7.52953 13.3836C7.18784 13.7253 6.99603 14.1886 6.99603 14.6713V19.25C6.99603 19.7333 7.18784 20.1967 7.52953 20.5384C7.87122 20.8801 8.33459 21.0719 8.81791 21.0719H9.16166C9.64428 21.0719 10.1077 20.8801 10.4493 20.5384C10.791 20.1967 10.9835 19.7333 10.9835 19.25C10.9835 17.941 10.9835 15.9809 10.9835 14.6713C10.9835 14.1886 10.791 13.7253 10.4493 13.3836C10.1737 13.1072 9.81753 12.9291 9.43666 12.8707V10.0361H15.9308C16.1776 10.0361 16.3777 9.83607 16.3777 9.58926C16.3777 9.34244 16.1776 9.14238 15.9308 9.14238ZM9.16166 20.1781H8.81791C8.57178 20.1781 8.33597 20.0805 8.16134 19.9066C7.98741 19.7319 7.88978 19.4961 7.88978 19.25V14.6713C7.88978 14.4251 7.98741 14.1893 8.16134 14.0154C8.33597 13.8414 8.57178 13.7431 8.81791 13.7431H9.16166C9.40778 13.7431 9.64359 13.8414 9.81753 14.0154C9.99147 14.1893 10.0898 14.4251 10.0898 14.6713V19.25C10.0898 19.4961 9.99147 19.7319 9.81753 19.9066C9.64359 20.0805 9.40778 20.1781 9.16166 20.1781ZM17.6702 2.75001C17.6702 1.74351 16.8541 0.928131 15.8483 0.928131C12.7676 0.928131 5.34328 0.928131 2.26328 0.928131C1.25747 0.928131 0.441406 1.74351 0.441406 2.75001V6.61376C0.441406 7.62026 1.25747 8.43563 2.26328 8.43563H15.8483C16.8541 8.43563 17.6702 7.62026 17.6702 6.61376V2.75001ZM16.7764 2.75001V6.61376C16.7764 7.12663 16.3605 7.54188 15.8483 7.54188C12.7676 7.54188 5.34328 7.54188 2.26328 7.54188C1.75109 7.54188 1.33516 7.12663 1.33516 6.61376V2.75001C1.33516 2.23713 1.75109 1.82188 2.26328 1.82188H15.8483C16.3605 1.82188 16.7764 2.23713 16.7764 2.75001Z" fill="black" fill-opacity="0.75"/>
<path d="M15.9308 9.09238H2.31278C2.03835 9.09238 1.81591 9.31483 1.81591 9.58926C1.81591 9.86368 2.03835 10.0861 2.31278 10.0861H8.49291V12.8283C8.11702 12.8947 7.76787 13.0745 7.49418 13.3482C7.14311 13.6993 6.94603 14.1754 6.94603 14.6713V19.25C6.94603 19.7466 7.1431 20.2227 7.49418 20.5737C7.84525 20.9248 8.32134 21.1219 8.81791 21.1219H9.16166C9.65754 21.1219 10.1336 20.9248 10.4847 20.5737C10.8357 20.2227 11.0335 19.7466 11.0335 19.25V19.2423V19.2346V19.2269V19.2192V19.2115V19.2037V19.196V19.1882V19.1804V19.1726V19.1647V19.1569V19.1491V19.1412V19.1333V19.1254V19.1175V19.1096V19.1017V19.0937V19.0857V19.0778V19.0698V19.0618V19.0538V19.0457V19.0377V19.0296V19.0215V19.0135V19.0054V18.9973V18.9891V18.981V18.9728V18.9647V18.9565V18.9483V18.9401V18.9319V18.9237V18.9154V18.9072V18.8989V18.8907V18.8824V18.8741V18.8658V18.8574V18.8491V18.8407V18.8324V18.824V18.8156V18.8072V18.7988V18.7904V18.782V18.7735V18.7651V18.7566V18.7481V18.7397V18.7312V18.7226V18.7141V18.7056V18.697V18.6885V18.6799V18.6714V18.6628V18.6542V18.6456V18.6369V18.6283V18.6197V18.611V18.6024V18.5937V18.585V18.5763V18.5676V18.5589V18.5502V18.5415V18.5327V18.524V18.5152V18.5064V18.4977V18.4889V18.4801V18.4713V18.4624V18.4536V18.4448V18.4359V18.4271V18.4182V18.4093V18.4004V18.3916V18.3827V18.3737V18.3648V18.3559V18.347V18.338V18.3291V18.3201V18.3111V18.3022V18.2932V18.2842V18.2752V18.2662V18.2571V18.2481V18.2391V18.23V18.221V18.2119V18.2029V18.1938V18.1847V18.1756V18.1665V18.1574V18.1483V18.1392V18.1301V18.1209V18.1118V18.1026V18.0935V18.0843V18.0751V18.066V18.0568V18.0476V18.0384V18.0292V18.02V18.0108V18.0016V17.9923V17.9831V17.9738V17.9646V17.9553V17.9461V17.9368V17.9275V17.9183V17.909V17.8997V17.8904V17.8811V17.8718V17.8625V17.8532V17.8438V17.8345V17.8252V17.8158V17.8065V17.7971V17.7878V17.7784V17.7691V17.7597V17.7503V17.7409V17.7316V17.7222V17.7128V17.7034V17.694V17.6846V17.6752V17.6657V17.6563V17.6469V17.6375V17.628V17.6186V17.6091V17.5997V17.5903V17.5808V17.5713V17.5619V17.5524V17.543V17.5335V17.524V17.5145V17.505V17.4956V17.4861V17.4766V17.4671V17.4576V17.4481V17.4386V17.4291V17.4196V17.4101V17.4005V17.391V17.3815V17.372V17.3625V17.3529V17.3434V17.3339V17.3243V17.3148V17.3053V17.2957V17.2862V17.2766V17.2671V17.2575V17.248V17.2384V17.2289V17.2193V17.2098V17.2002V17.1906V17.1811V17.1715V17.1619V17.1524V17.1428V17.1332V17.1237V17.1141V17.1045V17.095V17.0854V17.0758V17.0662V17.0567V17.0471V17.0375V17.0279V17.0184V17.0088V16.9992V16.9896V16.98V16.9705V16.9609V16.9513V16.9417V16.9322V16.9226V16.913V16.9034V16.8938V16.8843V16.8747V16.8651V16.8555V16.846V16.8364V16.8268V16.8172V16.8077V16.7981V16.7885V16.779V16.7694V16.7598V16.7503V16.7407V16.7311V16.7216V16.712V16.7025V16.6929V16.6834V16.6738V16.6642V16.6547V16.6451V16.6356V16.6261V16.6165V16.607V16.5974V16.5879V16.5784V16.5688V16.5593V16.5498V16.5403V16.5307V16.5212V16.5117V16.5022V16.4927V16.4832V16.4737V16.4642V16.4547V16.4452V16.4357V16.4262V16.4167V16.4072V16.3977V16.3883V16.3788V16.3693V16.3599V16.3504V16.3409V16.3315V16.322V16.3126V16.3032V16.2937V16.2843V16.2748V16.2654V16.256V16.2466V16.2372V16.2278V16.2184V16.209V16.1996V16.1902V16.1808V16.1714V16.162V16.1527V16.1433V16.1339V16.1246V16.1152V16.1059V16.0965V16.0872V16.0779V16.0685V16.0592V16.0499V16.0406V16.0313V16.022V16.0127V16.0034V15.9941V15.9849V15.9756V15.9663V15.9571V15.9478V15.9386V15.9294V15.9201V15.9109V15.9017V15.8925V15.8833V15.8741V15.8649V15.8557V15.8465V15.8374V15.8282V15.819V15.8099V15.8007V15.7916V15.7825V15.7734V15.7642V15.7551V15.746V15.7369V15.7279V15.7188V15.7097V15.7007V15.6916V15.6826V15.6735V15.6645V15.6555V15.6465V15.6374V15.6284V15.6195V15.6105V15.6015V15.5925V15.5836V15.5746V15.5657V15.5568V15.5479V15.5389V15.53V15.5211V15.5123V15.5034V15.4945V15.4857V15.4768V15.468V15.4591V15.4503V15.4415V15.4327V15.4239V15.4151V15.4064V15.3976V15.3888V15.3801V15.3714V15.3626V15.3539V15.3452V15.3365V15.3278V15.3192V15.3105V15.3019V15.2932V15.2846V15.276V15.2673V15.2587V15.2502V15.2416V15.233V15.2245V15.2159V15.2074V15.1988V15.1903V15.1818V15.1733V15.1649V15.1564V15.1479V15.1395V15.1311V15.1226V15.1142V15.1058V15.0974V15.0891V15.0807V15.0723V15.064V15.0557V15.0474V15.0391V15.0308V15.0225V15.0142V15.006V14.9977V14.9895V14.9813V14.9731V14.9649V14.9567V14.9485V14.9404V14.9323V14.9241V14.916V14.9079V14.8998V14.8917V14.8837V14.8756V14.8676V14.8596V14.8516V14.8436V14.8356V14.8276V14.8197V14.8117V14.8038V14.7959V14.788V14.7801V14.7723V14.7644V14.7566V14.7487V14.7409V14.7331V14.7253V14.7176V14.7098V14.7021V14.6943V14.6866V14.6789V14.6713C11.0335 14.1753 10.8357 13.6993 10.4847 13.3483C10.2117 13.0745 9.86192 12.8947 9.48666 12.8283V10.0861H15.9308C16.2052 10.0861 16.4277 9.86368 16.4277 9.58926C16.4277 9.31483 16.2052 9.09238 15.9308 9.09238ZM9.16166 20.1281H8.81791C8.58511 20.1281 8.36204 20.0358 8.19677 19.8713C8.03214 19.706 7.93978 19.4829 7.93978 19.25V14.6713C7.93978 14.4384 8.03212 14.2154 8.19663 14.0508C8.36198 13.8861 8.58514 13.7931 8.81791 13.7931H9.16166C9.39444 13.7931 9.61755 13.8861 9.78218 14.0507C9.94679 14.2154 10.0398 14.4385 10.0398 14.6713V19.25C10.0398 19.4828 9.9468 19.7059 9.78211 19.8713C9.61756 20.0358 9.3945 20.1281 9.16166 20.1281ZM17.7202 2.75001C17.7202 1.71588 16.8817 0.878131 15.8483 0.878131H15.8302H15.812H15.7937H15.7753H15.7568H15.7382H15.7195H15.7007H15.6818H15.6629H15.6438H15.6246H15.6054H15.586H15.5666H15.547H15.5274H15.5076H15.4878H15.4679H15.4479H15.4278H15.4076H15.3873H15.367H15.3465H15.3259H15.3053H15.2846H15.2638H15.2429H15.2219H15.2008H15.1796H15.1584H15.137H15.1156H15.0941H15.0725H15.0509H15.0291H15.0073H14.9853H14.9633H14.9412H14.9191H14.8968H14.8745H14.8521H14.8296H14.807H14.7843H14.7616H14.7388H14.7159H14.6929H14.6699H14.6467H14.6235H14.6003H14.5769H14.5535H14.53H14.5064H14.4827H14.459H14.4352H14.4113H14.3874H14.3633H14.3393H14.3151H14.2908H14.2665H14.2422H14.2177H14.1932H14.1686H14.1439H14.1192H14.0944H14.0696H14.0446H14.0196H13.9946H13.9694H13.9442H13.919H13.8936H13.8682H13.8428H13.8173H13.7917H13.766H13.7403H13.7145H13.6887H13.6628H13.6369H13.6108H13.5848H13.5586H13.5324H13.5061H13.4798H13.4535H13.427H13.4005H13.374H13.3474H13.3207H13.294H13.2672H13.2404H13.2135H13.1865H13.1595H13.1325H13.1054H13.0782H13.051H13.0237H12.9964H12.9691H12.9416H12.9142H12.8867H12.8591H12.8315H12.8038H12.7761H12.7483H12.7205H12.6926H12.6647H12.6368H12.6088H12.5807H12.5526H12.5245H12.4963H12.4681H12.4398H12.4115H12.3831H12.3547H12.3263H12.2978H12.2692H12.2407H12.212H12.1834H12.1547H12.126H12.0972H12.0684H12.0395H12.0106H11.9817H11.9527H11.9237H11.8947H11.8656H11.8365H11.8073H11.7781H11.7489H11.7197H11.6904H11.6611H11.6317H11.6023H11.5729H11.5434H11.514H11.4844H11.4549H11.4253H11.3957H11.3661H11.3364H11.3067H11.277H11.2472H11.2174H11.1876H11.1578H11.1279H11.098H11.0681H11.0382H11.0082H10.9782H10.9482H10.9181H10.8881H10.858H10.8279H10.7977H10.7676H10.7374H10.7072H10.677H10.6468H10.6165H10.5862H10.5559H10.5256H10.4953H10.4649H10.4345H10.4041H10.3737H10.3433H10.3129H10.2824H10.2519H10.2214H10.1909H10.1604H10.1299H10.0993H10.0688H10.0382H10.0076H9.97704H9.94643H9.91582H9.88519H9.85455H9.8239H9.79324H9.76257H9.73189H9.70121H9.67051H9.63981H9.6091H9.57839H9.54766H9.51694H9.4862H9.45546H9.42472H9.39397H9.36321H9.33245H9.30169H9.27093H9.24016H9.20939H9.17862H9.14785H9.11707H9.0863H9.05552H9.02475H8.99397H8.9632H8.93243H8.90165H8.87088H8.84012H8.80935H8.77859H8.74784H8.71708H8.68633H8.65559H8.62485H8.59411H8.56338H8.53266H8.50195H8.47124H8.44054H8.40984H8.37916H8.34848H8.31781H8.28715H8.2565H8.22587H8.19524H8.16462H8.13401H8.10342H8.07284H8.04227H8.01171H7.98117H7.95064H7.92012H7.88962H7.85913H7.82866H7.7982H7.76776H7.73734H7.70693H7.67654H7.64617H7.61581H7.58547H7.55516H7.52486H7.49458H7.46432H7.43408H7.40386H7.37366H7.34348H7.31333H7.2832H7.25309H7.223H7.19293H7.16289H7.13288H7.10289H7.07292H7.04298H7.01306H6.98317H6.95331H6.92347H6.89366H6.86388H6.83412H6.8044H6.7747H6.74503H6.7154H6.68579H6.65621H6.62666H6.59715H6.56766H6.53821H6.50879H6.4794H6.45004H6.42072H6.39143H6.36218H6.33296H6.30378H6.27463H6.24551H6.21644H6.1874H6.15839H6.12943H6.1005H6.07161H6.04276H6.01394H5.98517H5.95644H5.92774H5.89909H5.87047H5.8419H5.81337H5.78488H5.75644H5.72803H5.69967H5.67136H5.64308H5.61486H5.58667H5.55853H5.53044H5.50239H5.47439H5.44644H5.41853H5.39067H5.36286H5.33509H5.30738H5.27971H5.25209H5.22452H5.19701H5.16954H5.14212H5.11476H5.08744H5.06018H5.03297H5.00582H4.97871H4.95166H4.92467H4.89773H4.87084H4.84401H4.81724H4.79052H4.76385H4.73725H4.7107H4.68421H4.65777H4.6314H4.60508H4.57882H4.55262H4.52648H4.50041H4.47439H4.44843H4.42254H4.3967H4.37093H4.34522H4.31957H4.29399H4.26847H4.24302H4.21763H4.1923H4.16704H4.14185H4.11672H4.09165H4.06666H4.04173H4.01687H3.99208H3.96735H3.9427H3.91811H3.89359H3.86915H3.84477H3.82046H3.79623H3.77206H3.74797H3.72395H3.70001H3.67613H3.65233H3.6286H3.60495H3.58137H3.55787H3.53444H3.51109H3.48782H3.46462H3.4415H3.41845H3.39548H3.37259H3.34978H3.32705H3.3044H3.28183H3.25933H3.23692H3.21459H3.19234H3.17017H3.14808H3.12608H3.10415H3.08232H3.06056H3.03889H3.0173H2.9958H2.97438H2.95305H2.9318H2.91064H2.88957H2.86858H2.84768H2.82687H2.80615H2.78552H2.76497H2.74451H2.72415H2.70387H2.68369H2.66359H2.64359H2.62368H2.60386H2.58413H2.56449H2.54495H2.5255H2.50615H2.48689H2.46773H2.44866H2.42968H2.41081H2.39202H2.37334H2.35475H2.33626H2.31787H2.29957H2.28138H2.26328C1.22987 0.878131 0.391406 1.71588 0.391406 2.75001V6.61376C0.391406 7.64788 1.22987 8.48563 2.26328 8.48563H15.8483C16.8817 8.48563 17.7202 7.64788 17.7202 6.61376V2.75001ZM16.7264 2.75001V6.61376C16.7264 7.09899 16.3329 7.49188 15.8483 7.49188H15.8302H15.812H15.7937H15.7753H15.7568H15.7382H15.7195H15.7007H15.6818H15.6629H15.6438H15.6246H15.6054H15.586H15.5666H15.547H15.5274H15.5076H15.4878H15.4679H15.4479H15.4278H15.4076H15.3873H15.367H15.3465H15.3259H15.3053H15.2846H15.2638H15.2429H15.2219H15.2008H15.1796H15.1584H15.137H15.1156H15.0941H15.0725H15.0509H15.0291H15.0073H14.9853H14.9633H14.9412H14.9191H14.8968H14.8745H14.8521H14.8296H14.807H14.7843H14.7616H14.7388H14.7159H14.6929H14.6699H14.6467H14.6235H14.6003H14.5769H14.5535H14.53H14.5064H14.4827H14.459H14.4352H14.4113H14.3874H14.3633H14.3393H14.3151H14.2908H14.2665H14.2422H14.2177H14.1932H14.1686H14.1439H14.1192H14.0944H14.0696H14.0446H14.0196H13.9946H13.9694H13.9442H13.919H13.8936H13.8682H13.8428H13.8173H13.7917H13.766H13.7403H13.7145H13.6887H13.6628H13.6369H13.6108H13.5848H13.5586H13.5324H13.5061H13.4798H13.4535H13.427H13.4005H13.374H13.3474H13.3207H13.294H13.2672H13.2404H13.2135H13.1865H13.1595H13.1325H13.1054H13.0782H13.051H13.0237H12.9964H12.9691H12.9416H12.9142H12.8867H12.8591H12.8315H12.8038H12.7761H12.7483H12.7205H12.6926H12.6647H12.6368H12.6088H12.5807H12.5526H12.5245H12.4963H12.4681H12.4398H12.4115H12.3831H12.3547H12.3263H12.2978H12.2692H12.2407H12.212H12.1834H12.1547H12.126H12.0972H12.0684H12.0395H12.0106H11.9817H11.9527H11.9237H11.8947H11.8656H11.8365H11.8073H11.7781H11.7489H11.7197H11.6904H11.6611H11.6317H11.6023H11.5729H11.5434H11.514H11.4844H11.4549H11.4253H11.3957H11.3661H11.3364H11.3067H11.277H11.2472H11.2174H11.1876H11.1578H11.1279H11.098H11.0681H11.0382H11.0082H10.9782H10.9482H10.9181H10.8881H10.858H10.8279H10.7977H10.7676H10.7374H10.7072H10.677H10.6468H10.6165H10.5862H10.5559H10.5256H10.4953H10.4649H10.4345H10.4041H10.3737H10.3433H10.3129H10.2824H10.2519H10.2214H10.1909H10.1604H10.1299H10.0993H10.0688H10.0382H10.0076H9.97704H9.94643H9.91582H9.88519H9.85455H9.8239H9.79324H9.76257H9.73189H9.70121H9.67051H9.63981H9.6091H9.57839H9.54766H9.51694H9.4862H9.45546H9.42472H9.39397H9.36321H9.33245H9.30169H9.27093H9.24016H9.20939H9.17862H9.14785H9.11707H9.0863H9.05552H9.02475H8.99397H8.9632H8.93243H8.90165H8.87088H8.84012H8.80935H8.77859H8.74784H8.71708H8.68633H8.65559H8.62485H8.59411H8.56338H8.53266H8.50195H8.47124H8.44054H8.40984H8.37916H8.34848H8.31781H8.28715H8.2565H8.22587H8.19524H8.16462H8.13401H8.10342H8.07284H8.04227H8.01171H7.98117H7.95064H7.92012H7.88962H7.85913H7.82866H7.7982H7.76776H7.73734H7.70693H7.67654H7.64617H7.61581H7.58547H7.55516H7.52486H7.49458H7.46432H7.43408H7.40386H7.37366H7.34348H7.31333H7.2832H7.25309H7.223H7.19293H7.16289H7.13288H7.10289H7.07292H7.04298H7.01306H6.98317H6.95331H6.92347H6.89366H6.86388H6.83412H6.8044H6.7747H6.74503H6.7154H6.68579H6.65621H6.62666H6.59715H6.56766H6.53821H6.50879H6.4794H6.45004H6.42072H6.39143H6.36218H6.33296H6.30378H6.27463H6.24551H6.21644H6.1874H6.15839H6.12943H6.1005H6.07161H6.04276H6.01394H5.98517H5.95644H5.92774H5.89909H5.87047H5.8419H5.81337H5.78488H5.75644H5.72803H5.69967H5.67136H5.64308H5.61486H5.58667H5.55853H5.53044H5.50239H5.47439H5.44644H5.41853H5.39067H5.36286H5.33509H5.30738H5.27971H5.25209H5.22452H5.19701H5.16954H5.14212H5.11476H5.08744H5.06018H5.03297H5.00582H4.97871H4.95166H4.92467H4.89773H4.87084H4.84401H4.81724H4.79052H4.76385H4.73725H4.7107H4.68421H4.65777H4.6314H4.60508H4.57882H4.55262H4.52648H4.50041H4.47439H4.44843H4.42254H4.3967H4.37093H4.34522H4.31957H4.29399H4.26847H4.24302H4.21763H4.1923H4.16704H4.14185H4.11672H4.09165H4.06666H4.04173H4.01687H3.99208H3.96735H3.9427H3.91811H3.89359H3.86915H3.84477H3.82046H3.79623H3.77206H3.74797H3.72395H3.70001H3.67613H3.65233H3.6286H3.60495H3.58137H3.55787H3.53444H3.51109H3.48782H3.46462H3.4415H3.41845H3.39548H3.37259H3.34978H3.32705H3.3044H3.28183H3.25933H3.23692H3.21459H3.19234H3.17017H3.14808H3.12608H3.10415H3.08232H3.06056H3.03889H3.0173H2.9958H2.97438H2.95305H2.9318H2.91064H2.88957H2.86858H2.84768H2.82687H2.80615H2.78552H2.76497H2.74451H2.72415H2.70387H2.68369H2.66359H2.64359H2.62368H2.60386H2.58413H2.56449H2.54495H2.5255H2.50615H2.48689H2.46773H2.44866H2.42968H2.41081H2.39202H2.37334H2.35475H2.33626H2.31787H2.29957H2.28138H2.26328C1.77868 7.49188 1.38516 7.09899 1.38516 6.61376V2.75001C1.38516 2.26477 1.77868 1.87188 2.26328 1.87188H15.8483C16.3329 1.87188 16.7264 2.26477 16.7264 2.75001Z" stroke="black" stroke-opacity="0.75" stroke-width="0.1"/>
</svg>
