<svg width="62" height="62" viewBox="0 0 62 62" fill="none" xmlns="http://www.w3.org/2000/svg">
<path fill-rule="evenodd" clip-rule="evenodd" d="M1.70166 11.0437H60.2989V6.85997C60.2989 5.96566 59.5709 5.23767 58.6766 5.23767H3.32396C2.42965 5.23767 1.70166 5.96566 1.70166 6.85997V11.0437Z" fill="#2B5AF3"/>
<path fill-rule="evenodd" clip-rule="evenodd" d="M1.70166 12.5774H60.2989V18.4154H1.70166V12.5774Z" fill="#37F097"/>
<path fill-rule="evenodd" clip-rule="evenodd" d="M60.2989 19.9521H1.70166V41.2954C1.70166 42.191 2.42965 42.9177 3.32396 42.9177H29.1336C30.28 36.9505 35.5396 32.429 41.8357 32.429C48.1317 32.429 53.3901 36.9517 54.5377 42.9177H58.6766C59.5722 42.9177 60.2989 42.1897 60.2989 41.2954V19.9521ZM15.0344 30.3883C16.8154 30.3883 18.265 31.8379 18.265 33.6189C18.265 35.3998 16.8154 36.8494 15.0344 36.8494H10.2226C8.44162 36.8494 6.99204 35.4011 6.99204 33.6189C6.99204 31.8379 8.44162 30.3883 10.2226 30.3883H15.0344ZM16.8627 24.6566C16.8627 25.08 16.5186 25.4242 16.0951 25.4242H15.4247C15.0012 25.4242 14.657 25.08 14.657 24.6566C14.657 24.2318 15.0012 23.8889 15.4247 23.8889H16.0951C16.5186 23.8889 16.8627 24.2318 16.8627 24.6566ZM12.3873 23.8889C12.8108 23.8889 13.155 24.2318 13.155 24.6566C13.155 25.08 12.8108 25.4242 12.3873 25.4242H5.5962C5.17271 25.4242 4.82855 25.08 4.82855 24.6566C4.82855 24.2318 5.17271 23.8889 5.5962 23.8889H12.3873Z" fill="#2B5AF3"/>
<path fill-rule="evenodd" clip-rule="evenodd" d="M16.7292 33.6175C16.7292 32.6836 15.9692 31.9236 15.034 31.9236H10.2221C9.28811 31.9236 8.52686 32.6836 8.52686 33.6175C8.52686 34.5528 9.28683 35.3128 10.2221 35.3128H15.034C15.9692 35.3128 16.7292 34.5528 16.7292 33.6175Z" fill="#37F097"/>
<path fill-rule="evenodd" clip-rule="evenodd" d="M41.8361 33.9645C35.5503 33.9645 30.4365 39.0783 30.4365 45.3641C30.4365 51.6498 35.5503 56.7624 41.8361 56.7624C48.1219 56.7624 53.2357 51.6498 53.2357 45.3641C53.2357 39.0783 48.1219 33.9645 41.8361 33.9645ZM35.8293 45.3359L37.916 43.2492C38.2154 42.9498 38.7015 42.9498 39.0009 43.2492C39.3003 43.5486 39.3003 44.0348 39.0009 44.3354L36.9142 46.4221C35.8484 47.4879 35.8484 49.2215 36.9142 50.2873C37.98 51.353 39.7136 51.353 40.7793 50.2873L42.866 48.2005C43.1654 47.9012 43.6516 47.9012 43.9523 48.2005C44.2517 48.4999 44.2517 48.9861 43.9523 49.2868L41.8655 51.3722C41.0339 52.2051 39.94 52.6209 38.8474 52.6209C37.7548 52.6209 36.6609 52.2051 35.8293 51.3722C34.1647 49.7077 34.1647 47.0004 35.8293 45.3359ZM39.0623 48.1391C38.763 47.8397 38.763 47.3536 39.0623 47.0542L43.5262 42.5903C43.8256 42.2909 44.3118 42.2909 44.6112 42.5903C44.9106 42.8897 44.9106 43.3759 44.6112 43.6752L40.1473 48.1391C39.9976 48.2888 39.8006 48.3643 39.6048 48.3643C39.4078 48.363 39.212 48.2888 39.0623 48.1391ZM41.808 39.3559C42.6114 38.5525 43.6836 38.1098 44.8261 38.1098C45.9686 38.1098 47.0408 38.5512 47.8442 39.3559C48.6477 40.1594 49.0904 41.2316 49.0904 42.3741C49.0904 43.5166 48.6477 44.5887 47.8442 45.3922L45.7575 47.4789C45.6078 47.6286 45.4108 47.7041 45.2151 47.7041C45.018 47.7041 44.8223 47.6299 44.6726 47.4789C44.3732 47.1796 44.3732 46.6934 44.6726 46.3927L46.7593 44.306C47.2724 43.7929 47.5551 43.1059 47.5551 42.3741C47.5551 41.641 47.2724 40.9552 46.7593 40.4409C46.2463 39.9278 45.5592 39.6451 44.8274 39.6451C44.0943 39.6451 43.4085 39.9278 42.8955 40.4409L40.8087 42.5276C40.5094 42.827 40.0232 42.827 39.7225 42.5276C39.4231 42.2282 39.4231 41.742 39.7225 41.4414L41.808 39.3559Z" fill="#37F097"/>
</svg>
