<svg width="63" height="62" viewBox="0 0 63 62" fill="none" xmlns="http://www.w3.org/2000/svg">
<path d="M56.3021 27.818C56.6855 26.3991 56.9087 24.9141 56.9087 23.3739C56.9087 21.8336 56.6855 20.3486 56.3021 18.9296L59.1888 16.806C59.6225 16.4869 59.7469 15.8927 59.4775 15.4263L56.569 10.3883C56.2998 9.92199 55.723 9.73269 55.2299 9.94883L51.96 11.3814C49.8636 9.27227 47.2119 7.72718 44.2496 6.94371L43.854 3.38103C43.7944 2.84578 43.3419 2.44092 42.8037 2.44092H36.9861C36.448 2.44092 35.9955 2.84578 35.9359 3.38103L35.5401 6.94371C32.5776 7.7273 29.9261 9.27239 27.8295 11.3814L24.56 9.94883C24.0668 9.7328 23.4899 9.92199 23.2208 10.3883L20.3123 15.4261C20.0428 15.8926 20.1672 16.4868 20.6009 16.8061L23.4876 18.9296C23.104 20.3486 22.881 21.8336 22.881 23.3739C22.881 24.9141 23.1039 26.3991 23.4876 27.818L20.6009 29.9417C20.1672 30.2608 20.0428 30.855 20.3123 31.3213L23.2208 36.3594C23.4901 36.8257 24.0668 37.015 24.56 36.799L27.8295 35.3664C29.9261 37.4755 32.5776 39.0203 35.5399 39.804L35.9357 43.3668C35.9954 43.902 36.4479 44.3069 36.986 44.3069H42.8036C43.3417 44.3069 43.7943 43.902 43.8539 43.3668L44.2494 39.804C47.2117 39.0204 49.8635 37.4755 51.9599 35.3664L55.2297 36.799C55.7229 37.015 56.2998 36.8256 56.5689 36.3594L59.4775 31.3213C59.7469 30.855 59.6225 30.2608 59.1888 29.9417L56.3021 27.818ZM39.8948 34.9749C33.4981 34.9749 28.2936 29.7708 28.2936 23.374C28.2936 16.9772 33.4979 11.7731 39.8948 11.7731C46.2917 11.7731 51.496 16.9772 51.496 23.374C51.496 29.7708 46.2917 34.9749 39.8948 34.9749Z" fill="#2B5AF3"/>
<path d="M39.8948 10.4297C32.7571 10.4297 26.9507 16.2366 26.9507 23.374C26.9507 30.5113 32.7571 36.3181 39.8948 36.3181C47.0325 36.3181 52.8389 30.5115 52.8389 23.374C52.8389 16.2366 47.0325 10.4297 39.8948 10.4297ZM39.8948 34.975C33.498 34.975 28.2936 29.7709 28.2936 23.3741C28.2936 16.9773 33.4979 11.7732 39.8948 11.7732C46.2916 11.7732 51.496 16.9773 51.496 23.3741C51.496 29.7709 46.2916 34.975 39.8948 34.975Z" fill="#6185FB"/>
<path d="M39.8953 31.131C44.1802 31.131 47.6539 27.6574 47.6539 23.3725C47.6539 19.0875 44.1802 15.6139 39.8953 15.6139C35.6103 15.6139 32.1367 19.0875 32.1367 23.3725C32.1367 27.6574 35.6103 31.131 39.8953 31.131Z" fill="#2B5AF3"/>
<path d="M22.2369 59.5591C33.1365 59.5591 41.9724 50.7179 41.9724 39.8116C41.9724 28.9054 33.1365 20.0642 22.2369 20.0642C11.3373 20.0642 2.50146 28.9054 2.50146 39.8116C2.50146 50.7179 11.3373 59.5591 22.2369 59.5591Z" fill="#27C679"/>
<path d="M22.2366 56.2646C31.3171 56.2646 38.6783 48.8983 38.6783 39.8116C38.6783 30.7249 31.3171 23.3586 22.2366 23.3586C13.1561 23.3586 5.79492 30.7249 5.79492 39.8116C5.79492 48.8983 13.1561 56.2646 22.2366 56.2646Z" fill="#37F097"/>
<path d="M21.5573 52.6153V50.3603C18.7361 50.0725 16.2038 48.95 13.9629 46.9943L16.2163 44.3069C17.9446 45.8101 19.7233 46.7052 21.5571 46.9943V41.0011C19.2309 40.4455 17.5275 39.714 16.4474 38.8077C15.3671 37.9014 14.827 36.5578 14.827 34.7767C14.827 32.9956 15.4476 31.5388 16.6935 30.405C17.9396 29.2724 19.5599 28.6554 21.5571 28.5523V27.0076H23.5317V28.5825C25.7952 28.7485 27.9356 29.5202 29.9529 30.9003L27.9456 33.7422C26.5866 32.7744 25.1169 32.1774 23.5317 31.9499V37.757H23.6247C25.9911 38.3138 27.7296 39.0655 28.84 40.012C29.9529 40.9598 30.508 42.3348 30.508 44.136C30.508 45.9385 29.8699 47.4066 28.5937 48.5379C27.3175 49.6716 25.6318 50.2888 23.5316 50.3918V52.6153H21.5573ZM19.3792 32.6764C18.8542 33.1389 18.5929 33.7159 18.5929 34.4059C18.5929 35.0959 18.799 35.6415 19.2109 36.0424C19.6204 36.4446 20.4043 36.8306 21.5573 37.2014V31.8569C20.6303 31.9399 19.9042 32.2126 19.3792 32.6764ZM25.8782 46.2213C26.4535 45.7487 26.7424 45.1516 26.7424 44.4302C26.7424 43.7099 26.5163 43.1381 26.0641 42.7156C25.6094 42.2933 24.7653 41.8973 23.5319 41.5266V47.0861C24.5192 46.9843 25.3004 46.6952 25.8782 46.2213Z" fill="white"/>
</svg>
