<svg width="40" height="41" viewBox="0 0 40 41" fill="none" xmlns="http://www.w3.org/2000/svg">
<rect y="0.762451" width="40" height="40" rx="20" fill="black" fill-opacity="0.04"/>
<path d="M17.5 21.5125H12C11.5367 21.5151 11.0931 21.7003 10.7655 22.0279C10.4378 22.3555 10.2526 22.7991 10.25 23.2625V28.7625C10.2526 29.2258 10.4378 29.6694 10.7655 29.997C11.0931 30.3246 11.5367 30.5098 12 30.5125H17.5C17.9633 30.5098 18.4069 30.3246 18.7345 29.997C19.0622 29.6694 19.2474 29.2258 19.25 28.7625V23.2625C19.2474 22.7991 19.0622 22.3555 18.7345 22.0279C18.4069 21.7003 17.9633 21.5151 17.5 21.5125ZM17.1 27.2625C17.1 27.4069 17.0715 27.5499 17.0163 27.6834C16.961 27.8169 16.88 27.9381 16.7778 28.0403C16.6757 28.1424 16.5544 28.2234 16.421 28.2787C16.2875 28.334 16.1445 28.3625 16 28.3625H13.5C13.3555 28.3625 13.2125 28.334 13.079 28.2787C12.9456 28.2234 12.8243 28.1424 12.7222 28.0403C12.62 27.9381 12.539 27.8169 12.4837 27.6834C12.4285 27.5499 12.4 27.4069 12.4 27.2625V24.7625C12.4 24.4707 12.5159 24.1909 12.7222 23.9846C12.9285 23.7783 13.2083 23.6625 13.5 23.6625H16C16.2917 23.6625 16.5715 23.7783 16.7778 23.9846C16.9841 24.1909 17.1 24.4707 17.1 24.7625V27.2625ZM13.6 14.3625H15.9V16.6625H13.6V14.3625ZM28 11.0125H22.5C22.0367 11.0151 21.5931 11.2003 21.2655 11.5279C20.9378 11.8555 20.7526 12.2991 20.75 12.7625V18.2625C20.7526 18.7258 20.9378 19.1694 21.2655 19.497C21.5931 19.8246 22.0367 20.0098 22.5 20.0125H28C28.4633 20.0098 28.9069 19.8246 29.2345 19.497C29.5622 19.1694 29.7474 18.7258 29.75 18.2625V12.7625C29.7474 12.2991 29.5622 11.8555 29.2345 11.5279C28.9069 11.2003 28.4633 11.0151 28 11.0125ZM27.6 16.7625C27.6 16.9069 27.5715 17.0499 27.5163 17.1834C27.461 17.3169 27.38 17.4381 27.2778 17.5403C27.1757 17.6424 27.0544 17.7234 26.921 17.7787C26.7875 17.834 26.6445 17.8625 26.5 17.8625H24C23.7083 17.8625 23.4285 17.7466 23.2222 17.5403C23.0159 17.334 22.9 17.0542 22.9 16.7625V14.2625C22.9 13.9707 23.0159 13.6909 23.2222 13.4846C23.4285 13.2783 23.7083 13.1625 24 13.1625H26.5C26.6445 13.1625 26.7875 13.1909 26.921 13.2462C27.0544 13.3015 27.1757 13.3825 27.2778 13.4846C27.38 13.5868 27.461 13.708 27.5163 13.8415C27.5715 13.975 27.6 14.118 27.6 14.2625V16.7625ZM13.6 24.8625H15.9V27.1625H13.6V24.8625ZM17.5 11.0125H12C11.5367 11.0151 11.0931 11.2003 10.7655 11.5279C10.4378 11.8555 10.2526 12.2991 10.25 12.7625V18.2625C10.2526 18.7258 10.4378 19.1694 10.7655 19.497C11.0931 19.8246 11.5367 20.0098 12 20.0125H17.5C17.9633 20.0098 18.4069 19.8246 18.7345 19.497C19.0622 19.1694 19.2474 18.7258 19.25 18.2625V12.7625C19.2474 12.2991 19.0622 11.8555 18.7345 11.5279C18.4069 11.2003 17.9633 11.0151 17.5 11.0125ZM17.1 16.7625C17.1 17.0542 16.9841 17.334 16.7778 17.5403C16.5715 17.7466 16.2917 17.8625 16 17.8625H13.5C13.2083 17.8625 12.9285 17.7466 12.7222 17.5403C12.5159 17.334 12.4 17.0542 12.4 16.7625V14.2625C12.4 13.9707 12.5159 13.6909 12.7222 13.4846C12.9285 13.2783 13.2083 13.1625 13.5 13.1625H16C16.2917 13.1625 16.5715 13.2783 16.7778 13.4846C16.9841 13.6909 17.1 13.9707 17.1 14.2625V16.7625ZM29.75 23.2625V26.2625C29.75 26.594 29.6183 26.9119 29.3839 27.1463C29.1495 27.3808 28.8315 27.5125 28.5 27.5125H25.5C25.1685 27.5125 24.8505 27.3808 24.6161 27.1463C24.3817 26.9119 24.25 26.594 24.25 26.2625V25.7625C24.25 25.5635 24.329 25.3728 24.4697 25.2321C24.6103 25.0915 24.8011 25.0125 25 25.0125C25.1989 25.0125 25.3897 25.0915 25.5303 25.2321C25.671 25.3728 25.75 25.5635 25.75 25.7625V26.0125H28.25V23.5125H27C26.8011 23.5125 26.6103 23.4334 26.4697 23.2928C26.329 23.1521 26.25 22.9614 26.25 22.7625C26.25 22.5635 26.329 22.3728 26.4697 22.2321C26.6103 22.0915 26.8011 22.0125 27 22.0125H28.5C28.8315 22.0125 29.1495 22.1441 29.3839 22.3786C29.6183 22.613 29.75 22.9309 29.75 23.2625ZM24.1 14.3625H26.4V16.6625H24.1V14.3625ZM29.75 29.7625C29.7474 29.9606 29.6676 30.1498 29.5275 30.2899C29.3874 30.43 29.1981 30.5099 29 30.5125H27C26.8011 30.5125 26.6103 30.4334 26.4697 30.2928C26.329 30.1521 26.25 29.9614 26.25 29.7625C26.25 29.5635 26.329 29.3728 26.4697 29.2321C26.6103 29.0915 26.8011 29.0125 27 29.0125H29C29.1981 29.015 29.3874 29.0949 29.5275 29.235C29.6676 29.3751 29.7474 29.5643 29.75 29.7625ZM21.25 22.7625C21.2526 22.5643 21.3324 22.3751 21.4725 22.235C21.6126 22.0949 21.8019 22.015 22 22.0125H24C24.1989 22.0125 24.3897 22.0915 24.5303 22.2321C24.671 22.3728 24.75 22.5635 24.75 22.7625C24.75 22.9614 24.671 23.1521 24.5303 23.2928C24.3897 23.4334 24.1989 23.5125 24 23.5125H22C21.8019 23.5099 21.6126 23.43 21.4725 23.2899C21.3324 23.1498 21.2526 22.9606 21.25 22.7625ZM24.75 29.7625C24.7474 29.9606 24.6676 30.1498 24.5275 30.2899C24.3874 30.43 24.1981 30.5099 24 30.5125H22.5C22.1685 30.5125 21.8505 30.3808 21.6161 30.1463C21.3817 29.9119 21.25 29.594 21.25 29.2625V25.7625C21.25 25.5635 21.329 25.3728 21.4697 25.2321C21.6103 25.0915 21.8011 25.0125 22 25.0125C22.1989 25.0125 22.3897 25.0915 22.5303 25.2321C22.671 25.3728 22.75 25.5635 22.75 25.7625V29.0125H24C24.1981 29.015 24.3874 29.0949 24.5275 29.235C24.6676 29.3751 24.7474 29.5643 24.75 29.7625Z" fill="black" fill-opacity="0.75"/>
</svg>
