<svg width="55" height="55" viewBox="0 0 62 62" fill="none" xmlns="http://www.w3.org/2000/svg">
<rect width="61.7143" height="61.7143" rx="30.8571" fill="#38FF8E"/>
<path d="M33.1881 34.694H27.1621" stroke="black" stroke-width="2.17361" stroke-miterlimit="10" stroke-linecap="round" stroke-linejoin="round"/>
<path d="M30.1753 31.7526V37.7786" stroke="black" stroke-width="2.17361" stroke-miterlimit="10" stroke-linecap="round" stroke-linejoin="round"/>
<path d="M31.2571 19.122L31.221 19.2064L27.7259 27.3174H24.291C23.4715 27.3174 22.6881 27.4861 21.9771 27.7874L24.0862 22.7497L24.1344 22.6292L24.2187 22.4363C24.2428 22.364 24.2669 22.2917 24.3031 22.2314C25.8819 18.5797 27.6656 17.7481 31.2571 19.122Z" stroke="black" stroke-width="2.17361" stroke-linecap="round" stroke-linejoin="round"/>
<path d="M37.7539 27.5586C37.2115 27.3899 36.633 27.3176 36.0545 27.3176H27.7266L31.2217 19.2066L31.2578 19.1222C31.4386 19.1825 31.6073 19.2668 31.7881 19.3391L34.4516 20.46C35.934 21.0746 36.9705 21.7134 37.5972 22.4847C37.7177 22.6293 37.8141 22.7619 37.8985 22.9186C38.007 23.0873 38.0913 23.256 38.1395 23.4368C38.1877 23.5453 38.2239 23.6538 38.248 23.7502C38.5734 24.7626 38.3806 26.0039 37.7539 27.5586Z" stroke="black" stroke-width="2.17361" stroke-linecap="round" stroke-linejoin="round"/>
<path d="M41.9384 33.1993V35.5494C41.9384 35.7905 41.9263 36.0315 41.9142 36.2725C41.6853 40.4787 39.3351 42.5999 34.8759 42.5999H25.4753C25.186 42.5999 24.8968 42.5758 24.6196 42.5396C20.787 42.2865 18.7382 40.2377 18.4851 36.4051C18.4489 36.1279 18.4248 35.8387 18.4248 35.5494V33.1993C18.4248 30.7768 19.8952 28.6918 21.9922 27.7879C22.7153 27.4866 23.4867 27.3179 24.3062 27.3179H36.069C36.6596 27.3179 37.2381 27.4022 37.7683 27.5589C40.1667 28.2941 41.9384 30.5358 41.9384 33.1993Z" stroke="black" stroke-width="2.17361" stroke-linecap="round" stroke-linejoin="round"/>
<path d="M24.0872 22.7498L21.9781 27.7875C19.881 28.6914 18.4106 30.7764 18.4106 33.1989V29.6676C18.4106 26.2449 20.8452 23.3885 24.0872 22.7498Z" stroke="black" stroke-width="2.17361" stroke-linecap="round" stroke-linejoin="round"/>
<path d="M41.9342 29.6671V33.1983C41.9342 30.5469 40.1746 28.2931 37.7642 27.57C38.3909 26.0032 38.5716 24.7739 38.2703 23.7495C38.2462 23.641 38.2101 23.5326 38.1619 23.4362C40.4036 24.5932 41.9342 26.9674 41.9342 29.6671Z" stroke="black" stroke-width="2.17361" stroke-linecap="round" stroke-linejoin="round"/>
</svg>
