<svg width="62" height="62" viewBox="0 0 62 62" fill="none" xmlns="http://www.w3.org/2000/svg">
<g clip-path="url(#clip0_60_6549)">
<path d="M48.4375 3.875H13.5625C10.9932 3.875 8.52916 4.89564 6.7124 6.7124C4.89564 8.52916 3.875 10.9932 3.875 13.5625V48.4375C3.875 51.0068 4.89564 53.4708 6.7124 55.2876C8.52916 57.1044 10.9932 58.125 13.5625 58.125H48.4375C51.0068 58.125 53.4708 57.1044 55.2876 55.2876C57.1044 53.4708 58.125 51.0068 58.125 48.4375V13.5625C58.125 10.9932 57.1044 8.52916 55.2876 6.7124C53.4708 4.89564 51.0068 3.875 48.4375 3.875ZM11.625 13.5625C11.625 13.0486 11.8291 12.5558 12.1925 12.1925C12.5558 11.8291 13.0486 11.625 13.5625 11.625H25.1875C25.7014 11.625 26.1942 11.8291 26.5575 12.1925C26.9209 12.5558 27.125 13.0486 27.125 13.5625V25.1875C27.125 25.7014 26.9209 26.1942 26.5575 26.5575C26.1942 26.9209 25.7014 27.125 25.1875 27.125H13.5625C13.0486 27.125 12.5558 26.9209 12.1925 26.5575C11.8291 26.1942 11.625 25.7014 11.625 25.1875V13.5625ZM11.625 31H15.5V36.8125H11.625V31ZM19.375 48.4375C19.375 48.9514 19.1709 49.4442 18.8075 49.8075C18.4442 50.1709 17.9514 50.375 17.4375 50.375H11.625V46.5H15.5V40.6875C15.5 40.1736 15.7041 39.6808 16.0675 39.3175C16.4308 38.9541 16.9236 38.75 17.4375 38.75H23.25V42.625H19.375V48.4375ZM31 48.4375C31 48.9514 30.7959 49.4442 30.4325 49.8075C30.0692 50.1709 29.5764 50.375 29.0625 50.375H23.25V46.5H27.125V42.625H31V48.4375ZM31 38.75H27.125V34.875H19.375V31H29.0625C29.5764 31 30.0692 31.2041 30.4325 31.5675C30.7959 31.9308 31 32.4236 31 32.9375V38.75ZM50.375 48.4375C50.375 48.9514 50.1709 49.4442 49.8075 49.8075C49.4442 50.1709 48.9514 50.375 48.4375 50.375H36.8125C36.2986 50.375 35.8058 50.1709 35.4425 49.8075C35.0791 49.4442 34.875 48.9514 34.875 48.4375V36.8125C34.875 36.2986 35.0791 35.8058 35.4425 35.4425C35.8058 35.0791 36.2986 34.875 36.8125 34.875H48.4375C48.9514 34.875 49.4442 35.0791 49.8075 35.4425C50.1709 35.8058 50.375 36.2986 50.375 36.8125V48.4375ZM50.375 29.0625C50.375 29.5764 50.1709 30.0692 49.8075 30.4325C49.4442 30.7959 48.9514 31 48.4375 31H32.9375C32.4236 31 31.9308 30.7959 31.5675 30.4325C31.2041 30.0692 31 29.5764 31 29.0625V13.5625C31 13.0486 31.2041 12.5558 31.5675 12.1925C31.9308 11.8291 32.4236 11.625 32.9375 11.625H48.4375C48.9514 11.625 49.4442 11.8291 49.8075 12.1925C50.1709 12.5558 50.375 13.0486 50.375 13.5625V29.0625Z" fill="#283B96"/>
<path d="M46.5 46.5H38.75V38.75H46.5V46.5Z" fill="#283B96"/>
<path d="M46.5 27.125H34.875V15.5H46.5V27.125Z" fill="#37F097"/>
<path d="M15.5 15.5H23.25V23.25H15.5V15.5Z" fill="#283B96"/>
</g>
<defs>
<clipPath id="clip0_60_6549">
<rect width="62" height="62" fill="white"/>
</clipPath>
</defs>
</svg>
