<svg width="55" height="54" viewBox="0 0 63 62" fill="none" xmlns="http://www.w3.org/2000/svg">
<path d="M0 30.8571C0 13.8152 13.8152 0 30.8571 0H32C49.042 0 62.8571 13.8152 62.8571 30.8571C62.8571 47.8991 49.0419 61.7143 32 61.7143H30.8571C13.8152 61.7143 0 47.8991 0 30.8571Z" fill="#38FF8E"/>
<g clip-path="url(#clip0_2060_645)">
<path d="M46.8114 30.2629C46.8114 38.1273 40.413 44.5257 32.5485 44.5257C24.684 44.5257 18.2856 38.1273 18.2856 30.2629C18.2856 29.7705 18.6844 29.3714 19.1771 29.3714C19.6697 29.3714 20.0685 29.7705 20.0685 30.2629C20.0685 37.1444 25.667 42.7429 32.5485 42.7429C39.43 42.7429 45.0285 37.1444 45.0285 30.2629C45.0285 23.3813 39.43 17.7829 32.5485 17.7829C29.2321 17.7829 26.1522 19.0722 23.8357 21.3486H27.1999C27.6926 21.3486 28.0914 21.7476 28.0914 22.24C28.0914 22.7324 27.6926 23.1314 27.1999 23.1314H21.8514C21.3587 23.1314 20.9599 22.7324 20.9599 22.24V16.8914C20.9599 16.3991 21.3587 16 21.8514 16C22.344 16 22.7428 16.3991 22.7428 16.8914V19.9321C25.3728 17.4218 28.8286 16 32.5485 16C40.413 16 46.8114 22.3984 46.8114 30.2629ZM33.4399 29.3714H31.6571C31.1653 29.3714 30.7656 28.9715 30.7656 28.48C30.7656 27.9885 31.1653 27.5886 31.6571 27.5886H35.2228C35.7154 27.5886 36.1142 27.1895 36.1142 26.6971C36.1142 26.2048 35.7154 25.8057 35.2228 25.8057H33.4399V24.9143C33.4399 24.4219 33.0412 24.0229 32.5485 24.0229C32.0558 24.0229 31.6571 24.4219 31.6571 24.9143V25.8057C30.1824 25.8057 28.9828 27.0053 28.9828 28.48C28.9828 29.9547 30.1824 31.1543 31.6571 31.1543H33.4399C33.9317 31.1543 34.3314 31.5542 34.3314 32.0457C34.3314 32.5372 33.9317 32.9371 33.4399 32.9371H29.8742C29.3816 32.9371 28.9828 33.3362 28.9828 33.8286C28.9828 34.3209 29.3816 34.72 29.8742 34.72H31.6571V35.6114C31.6571 36.1038 32.0558 36.5029 32.5485 36.5029C33.0412 36.5029 33.4399 36.1038 33.4399 35.6114V34.72C34.9146 34.72 36.1142 33.5204 36.1142 32.0457C36.1142 30.571 34.9146 29.3714 33.4399 29.3714Z" fill="black"/>
</g>
<defs>
<clipPath id="clip0_2060_645">
<rect width="29.7143" height="29.7143" fill="white" transform="translate(18.2856 16)"/>
</clipPath>
</defs>
</svg>
