<svg width="55" height="55" viewBox="0 0 64 64" fill="none" xmlns="http://www.w3.org/2000/svg">
<rect width="63.9888" height="63.9888" rx="31.9944" fill="#38FF8E"/>
<path d="M23.1382 21.5925C22.7284 21.5925 22.3353 21.7553 22.0455 22.0451C21.7557 22.3349 21.5928 22.728 21.5928 23.1379V26.847C21.5928 26.9688 21.5689 27.0893 21.5223 27.2018C21.4757 27.3143 21.4074 27.4166 21.3213 27.5027C21.2351 27.5888 21.1329 27.6571 21.0204 27.7037C20.9079 27.7503 20.7873 27.7743 20.6656 27.7743C20.5438 27.7743 20.4232 27.7503 20.3107 27.7037C20.1982 27.6571 20.096 27.5888 20.0099 27.5027C19.9238 27.4166 19.8555 27.3143 19.8089 27.2018C19.7623 27.0893 19.7383 26.9688 19.7383 26.847V23.1379C19.7383 21.2601 21.2605 19.7379 23.1382 19.7379H26.8474C26.9691 19.7379 27.0897 19.7619 27.2022 19.8085C27.3147 19.8551 27.4169 19.9234 27.503 20.0095C27.5891 20.0956 27.6574 20.1978 27.7041 20.3103C27.7507 20.4228 27.7746 20.5434 27.7746 20.6652C27.7746 20.787 27.7507 20.9076 27.7041 21.0201C27.6574 21.1326 27.5891 21.2348 27.503 21.3209C27.4169 21.407 27.3147 21.4753 27.2022 21.5219C27.0897 21.5685 26.9691 21.5925 26.8474 21.5925H23.1382ZM40.4477 41.9927C40.8576 41.9927 41.2506 41.8299 41.5404 41.5401C41.8303 41.2503 41.9931 40.8572 41.9931 40.4473V36.7382C41.9931 36.4923 42.0908 36.2564 42.2647 36.0825C42.4386 35.9086 42.6744 35.8109 42.9204 35.8109C43.1663 35.8109 43.4021 35.9086 43.576 36.0825C43.7499 36.2564 43.8476 36.4923 43.8476 36.7382V40.4473C43.8476 42.325 42.3254 43.8473 40.4477 43.8473H36.7386C36.4926 43.8473 36.2568 43.7496 36.0829 43.5757C35.909 43.4018 35.8113 43.1659 35.8113 42.92C35.8113 42.6741 35.909 42.4382 36.0829 42.2643C36.2568 42.0904 36.4926 41.9927 36.7386 41.9927H40.4477ZM41.9931 23.1379C41.9931 22.728 41.8303 22.3349 41.5404 22.0451C41.2506 21.7553 40.8576 21.5925 40.4477 21.5925H36.7386C36.6168 21.5925 36.4962 21.5685 36.3837 21.5219C36.2712 21.4753 36.169 21.407 36.0829 21.3209C35.9968 21.2348 35.9285 21.1326 35.8819 21.0201C35.8353 20.9076 35.8113 20.787 35.8113 20.6652C35.8113 20.5434 35.8353 20.4228 35.8819 20.3103C35.9285 20.1978 35.9968 20.0956 36.0829 20.0095C36.169 19.9234 36.2712 19.8551 36.3837 19.8085C36.4962 19.7619 36.6168 19.7379 36.7386 19.7379H40.4477C42.3254 19.7379 43.8476 21.2601 43.8476 23.1379V26.847C43.8476 27.0929 43.7499 27.3288 43.576 27.5027C43.4021 27.6766 43.1663 27.7743 42.9204 27.7743C42.6744 27.7743 42.4386 27.6766 42.2647 27.5027C42.0908 27.3288 41.9931 27.0929 41.9931 26.847V23.1379ZM23.1382 41.9927C22.7284 41.9927 22.3353 41.8299 22.0455 41.5401C21.7557 41.2503 21.5928 40.8572 21.5928 40.4473V36.7382C21.5928 36.6164 21.5689 36.4959 21.5223 36.3833C21.4757 36.2708 21.4074 36.1686 21.3213 36.0825C21.2351 35.9964 21.1329 35.9281 21.0204 35.8815C20.9079 35.8349 20.7873 35.8109 20.6656 35.8109C20.5438 35.8109 20.4232 35.8349 20.3107 35.8815C20.1982 35.9281 20.096 35.9964 20.0099 36.0825C19.9238 36.1686 19.8555 36.2708 19.8089 36.3833C19.7623 36.4959 19.7383 36.6164 19.7383 36.7382V40.4473C19.7383 42.325 21.2605 43.8473 23.1382 43.8473H26.8474C27.0933 43.8473 27.3291 43.7496 27.503 43.5757C27.6769 43.4018 27.7746 43.1659 27.7746 42.92C27.7746 42.6741 27.6769 42.4382 27.503 42.2643C27.3291 42.0904 27.0933 41.9927 26.8474 41.9927H23.1382ZM20.6656 30.8653C20.4196 30.8653 20.1838 30.963 20.0099 31.1369C19.836 31.3108 19.7383 31.5467 19.7383 31.7926C19.7383 32.0385 19.836 32.2744 20.0099 32.4483C20.1838 32.6222 20.4196 32.7199 20.6656 32.7199H42.9204C43.1663 32.7199 43.4021 32.6222 43.576 32.4483C43.7499 32.2744 43.8476 32.0385 43.8476 31.7926C43.8476 31.5467 43.7499 31.3108 43.576 31.1369C43.4021 30.963 43.1663 30.8653 42.9204 30.8653H20.6656Z" fill="black"/>
</svg>
