<svg width="40" height="40" viewBox="0 0 40 40" fill="none" xmlns="http://www.w3.org/2000/svg">
<rect width="40" height="40" rx="20" fill="black" fill-opacity="0.04"/>
<path d="M30.5872 18.2354C30.5872 18.171 30.5801 18.1068 30.566 18.044L29.4191 12.8668C29.206 11.8841 28.6615 11.0046 27.877 10.3757C27.0924 9.74686 26.1155 9.40683 25.11 9.41267H14.8898C13.8849 9.40764 12.9088 9.74804 12.125 10.3769C11.3412 11.0057 10.7972 11.8847 10.5843 12.8668L9.43377 18.044C9.41966 18.1068 9.41256 18.171 9.4126 18.2354V19.1177C9.41189 19.9767 9.72574 20.8062 10.2949 21.4496V26.1759C10.2963 27.3454 10.7615 28.4667 11.5885 29.2937C12.4155 30.1207 13.5367 30.5859 14.7062 30.5873H25.2936C26.4631 30.5859 27.5843 30.1207 28.4113 29.2937C29.2383 28.4667 29.7035 27.3454 29.7049 26.1759V21.4496C30.2741 20.8062 30.5879 19.9767 30.5872 19.1177V18.2354ZM11.1771 18.3316L12.3065 13.2497C12.4344 12.6605 12.7608 12.1332 13.2311 11.756C13.7013 11.3787 14.2869 11.1744 14.8898 11.1772H15.5885V13.824C15.5885 14.058 15.6815 14.2825 15.8469 14.4479C16.0124 14.6134 16.2368 14.7063 16.4708 14.7063C16.7048 14.7063 16.9292 14.6134 17.0947 14.4479C17.2601 14.2825 17.3531 14.058 17.3531 13.824V11.1772H22.6467V13.824C22.6467 14.058 22.7397 14.2825 22.9051 14.4479C23.0706 14.6134 23.295 14.7063 23.529 14.7063C23.763 14.7063 23.9874 14.6134 24.1529 14.4479C24.3183 14.2825 24.4113 14.058 24.4113 13.824V11.1772H25.11C25.7129 11.1744 26.2985 11.3787 26.7687 11.756C27.239 12.1332 27.5654 12.6605 27.6933 13.2497L28.8227 18.3316V19.1177C28.8227 19.5857 28.6367 20.0345 28.3058 20.3654C27.9749 20.6963 27.5261 20.8823 27.0581 20.8823H26.1758C25.7078 20.8823 25.259 20.6963 24.9281 20.3654C24.5972 20.0345 24.4113 19.5857 24.4113 19.1177C24.4113 18.8837 24.3183 18.6593 24.1529 18.4938C23.9874 18.3284 23.763 18.2354 23.529 18.2354C23.295 18.2354 23.0706 18.3284 22.9051 18.4938C22.7397 18.6593 22.6467 18.8837 22.6467 19.1177C22.6467 19.5857 22.4608 20.0345 22.1299 20.3654C21.799 20.6963 21.3502 20.8823 20.8822 20.8823H19.1176C18.6496 20.8823 18.2008 20.6963 17.8699 20.3654C17.539 20.0345 17.3531 19.5857 17.3531 19.1177C17.3531 18.8837 17.2601 18.6593 17.0947 18.4938C16.9292 18.3284 16.7048 18.2354 16.4708 18.2354C16.2368 18.2354 16.0124 18.3284 15.8469 18.4938C15.6815 18.6593 15.5885 18.8837 15.5885 19.1177C15.5885 19.5857 15.4026 20.0345 15.0717 20.3654C14.7408 20.6963 14.292 20.8823 13.824 20.8823H12.9417C12.4737 20.8823 12.0249 20.6963 11.694 20.3654C11.3631 20.0345 11.1771 19.5857 11.1771 19.1177V18.3316ZM25.2936 28.8227H14.7062C14.0043 28.8227 13.331 28.5439 12.8347 28.0475C12.3383 27.5511 12.0594 26.8779 12.0594 26.1759V22.5348C12.3476 22.6094 12.644 22.647 12.9417 22.6468H13.824C14.3249 22.6471 14.8202 22.5404 15.2766 22.3339C15.7331 22.1275 16.1402 21.826 16.4708 21.4496C16.8014 21.826 17.2085 22.1275 17.665 22.3339C18.1214 22.5404 18.6167 22.6471 19.1176 22.6468H20.8822C21.3831 22.6471 21.8784 22.5404 22.3348 22.3339C22.7913 22.1275 23.1984 21.826 23.529 21.4496C23.8596 21.826 24.2667 22.1275 24.7232 22.3339C25.1796 22.5404 25.6749 22.6471 26.1758 22.6468H27.0581C27.3558 22.647 27.6522 22.6094 27.9404 22.5348V26.1759C27.9404 26.8779 27.6615 27.5511 27.1651 28.0475C26.6688 28.5439 25.9955 28.8227 25.2936 28.8227Z" fill="#404040"/>
</svg>
