<svg width="146" height="151" viewBox="0 0 146 151" fill="none" xmlns="http://www.w3.org/2000/svg">
<circle cx="74.638" cy="75.638" r="37.638" fill="#2B5AF3"/>
<path d="M61.1097 74.5196C60.4194 74.5215 59.7437 74.7189 59.1608 75.0888C58.5779 75.4587 58.1117 75.9861 57.8161 76.61C57.5204 77.2338 57.4075 77.9286 57.4902 78.614C57.573 79.2994 57.8481 79.9473 58.2838 80.4828L67.5707 91.8593C67.9018 92.2704 68.3263 92.5967 68.8088 92.8108C69.2913 93.025 69.818 93.121 70.345 93.0907C71.4722 93.0302 72.4899 92.4272 73.1388 91.4357L92.4301 60.3671C92.4333 60.3619 92.4365 60.3568 92.4399 60.3517C92.6209 60.0738 92.5622 59.523 92.1886 59.177C92.086 59.082 91.965 59.009 91.8331 58.9625C91.7012 58.9161 91.5611 58.8971 91.4216 58.9068C91.2821 58.9164 91.146 58.9546 91.0218 59.0188C90.8975 59.0831 90.7878 59.1721 90.6992 59.2804C90.6923 59.2889 90.6852 59.2973 90.6778 59.3055L71.2223 81.2874C71.1483 81.371 71.0584 81.4391 70.9578 81.4877C70.8572 81.5363 70.748 81.5645 70.6365 81.5705C70.5249 81.5765 70.4133 81.5603 70.3081 81.5229C70.2028 81.4854 70.1061 81.4274 70.0235 81.3522L63.5665 75.4764C62.8959 74.8616 62.0194 74.5203 61.1097 74.5196Z" fill="white"/>
<circle cx="74.5876" cy="75.5902" r="48.9294" stroke="black" stroke-opacity="0.15" stroke-linecap="round" stroke-dasharray="5 5"/>
<circle cx="74.5887" cy="75.5902" r="61.4754" stroke="black" stroke-opacity="0.15" stroke-linecap="round" stroke-dasharray="5 5"/>
<path d="M109.835 135.426V146.902" stroke="#38FF8E" stroke-width="2" stroke-linecap="round" stroke-linejoin="round"/>
<path d="M104.098 141.164H115.573" stroke="#38FF8E" stroke-width="2" stroke-linecap="round" stroke-linejoin="round"/>
<path d="M46.7217 1V12.4754" stroke="#38FF8E" stroke-width="2" stroke-linecap="round" stroke-linejoin="round"/>
<path d="M40.9829 6.73767H52.4583" stroke="#38FF8E" stroke-width="2" stroke-linecap="round" stroke-linejoin="round"/>
<path d="M16.3052 88.9755L10.5675 98.9135" stroke="#2B5AF3" stroke-width="2" stroke-linecap="round" stroke-linejoin="round"/>
<path d="M8.46729 91.0757L18.4053 96.8134" stroke="#2B5AF3" stroke-width="2" stroke-linecap="round" stroke-linejoin="round"/>
<path d="M140.164 45.2623L130.328 55.0984" stroke="#2B5AF3" stroke-width="2" stroke-linecap="round" stroke-linejoin="round"/>
<path d="M130.328 45.2623L140.164 55.0984" stroke="#2B5AF3" stroke-width="2" stroke-linecap="round" stroke-linejoin="round"/>
</svg>
