<svg width="22" height="22" viewBox="0 0 22 22" fill="none" xmlns="http://www.w3.org/2000/svg">
<g clip-path="url(#clip0_97_1472)">
<path d="M17.5876 3.97309H16.2252C16.0039 2.00205 14.3464 0.459641 12.3174 0.459641H9.68229C7.65327 0.459641 5.9958 2.00205 5.77445 3.97309H4.41211C2.23289 3.97309 0.459473 5.74651 0.459473 7.92573V17.5877C0.459473 19.7669 2.23289 21.5404 4.41211 21.5404H17.5876C19.7668 21.5404 21.5402 19.7669 21.5402 17.5877V7.92573C21.5402 5.74651 19.7668 3.97309 17.5876 3.97309ZM9.68229 1.338H12.3174C13.8615 1.338 15.1317 2.4869 15.3469 3.97309H6.65281C6.86801 2.4869 8.13812 1.338 9.68229 1.338ZM20.6618 17.5877C20.6618 19.283 19.2828 20.662 17.5876 20.662H16.27V7.04737C16.27 6.80494 16.0733 6.60818 15.8308 6.60818C15.5884 6.60818 15.3916 6.80494 15.3916 7.04737V20.662H6.60802V7.04737C6.60802 6.80494 6.41126 6.60818 6.16883 6.60818C5.92641 6.60818 5.72965 6.80494 5.72965 7.04737V20.662H4.41211C2.71687 20.662 1.33784 19.283 1.33784 17.5877V7.92573C1.33784 6.23049 2.71687 4.85146 4.41211 4.85146H17.5876C19.2828 4.85146 20.6618 6.23049 20.6618 7.92573V17.5877Z" fill="black" fill-opacity="0.75"/>
<path d="M17.5876 3.87309H16.3136C16.0477 1.89553 14.3681 0.359641 12.3174 0.359641H9.68229C7.63154 0.359641 5.952 1.89553 5.68603 3.87309H4.41211C2.17766 3.87309 0.359473 5.69128 0.359473 7.92573V17.5877C0.359473 19.8222 2.17766 21.6404 4.41211 21.6404H17.5876C19.822 21.6404 21.6402 19.8222 21.6402 17.5877V7.92573C21.6402 5.69128 19.822 3.87309 17.5876 3.87309ZM9.68229 1.438H12.3174C13.7706 1.438 14.9739 2.49053 15.2291 3.87309H6.7706C7.02579 2.49053 8.22906 1.438 9.68229 1.438ZM20.5618 17.5877C20.5618 19.2277 19.2276 20.562 17.5876 20.562H16.37V7.04737C16.37 6.74971 16.1285 6.50818 15.8308 6.50818C15.5332 6.50818 15.2916 6.74971 15.2916 7.04737V20.562H6.70802V7.04737C6.70802 6.74971 6.46649 6.50818 6.16883 6.50818C5.87118 6.50818 5.62965 6.74971 5.62965 7.04737V20.562H4.41211C2.77209 20.562 1.43784 19.2277 1.43784 17.5877V7.92573C1.43784 6.28572 2.77209 4.95146 4.41211 4.95146H17.5876C19.2276 4.95146 20.5618 6.28572 20.5618 7.92573V17.5877Z" stroke="black" stroke-opacity="0.75" stroke-width="0.2"/>
</g>
<defs>
<clipPath id="clip0_97_1472">
<rect width="22" height="22" fill="white"/>
</clipPath>
</defs>
</svg>
