<svg width="20" height="20" viewBox="0 0 20 20" fill="none" xmlns="http://www.w3.org/2000/svg">
<g clip-path="url(#clip0_97_1470)">
<path d="M13.1332 1.38315C13.1332 0.950741 13.4841 0.5998 13.9166 0.5998C14.349 0.5998 14.6999 0.950741 14.6999 1.38315C14.6999 1.81556 14.349 2.1665 13.9166 2.1665C13.4841 2.1665 13.1332 1.81556 13.1332 1.38315ZM18.6167 5.2999C18.1842 5.2999 17.8333 5.65084 17.8333 6.08325C17.8333 6.51566 18.1842 6.8666 18.6167 6.8666C19.0491 6.8666 19.4 6.51566 19.4 6.08325C19.4 5.65084 19.0491 5.2999 18.6167 5.2999ZM14.837 6.8666L18.6167 0.5998H17.6962L13.9166 6.8666H14.837ZM17.8333 10.7833V17.0501C17.8333 18.3677 15.9407 19.4002 13.5249 19.4002C11.7529 19.4002 10.2701 18.8417 9.60186 18.0262C8.88745 18.8511 7.27453 19.4002 5.29971 19.4002C2.62065 19.4002 0.599609 18.3897 0.599609 17.0501V4.51655C0.599609 3.17702 2.62065 2.1665 5.29971 2.1665C7.97876 2.1665 9.99981 3.17702 9.99981 4.51655V9.42267C10.773 8.82184 12.0483 8.4333 13.5249 8.4333C15.9407 8.4333 17.8333 9.46575 17.8333 10.7833ZM1.38296 4.51655C1.38296 5.25603 3.05776 6.08325 5.29971 6.08325C7.54166 6.08325 9.21646 5.25603 9.21646 4.51655C9.21646 3.77707 7.54166 2.94985 5.29971 2.94985C3.05776 2.94985 1.38296 3.77707 1.38296 4.51655ZM1.38296 7.64995C1.38296 8.38943 3.05776 9.21665 5.29971 9.21665C7.54166 9.21665 9.21646 8.38943 9.21646 7.64995V5.85059C8.38846 6.47257 6.97294 6.8666 5.29971 6.8666C3.62647 6.8666 2.21096 6.47257 1.38296 5.85059V7.64995ZM1.38296 10.7833C1.38296 11.5228 3.05776 12.35 5.29971 12.35C7.54166 12.35 9.21646 11.5228 9.21646 10.7833V8.98399C8.38846 9.60597 6.97294 10 5.29971 10C3.62647 10 2.21096 9.60597 1.38296 8.98399V10.7833ZM1.38296 13.9167C1.38296 14.6562 3.05776 15.4834 5.29971 15.4834C7.54166 15.4834 9.21646 14.6562 9.21646 13.9167V12.1174C8.38846 12.7394 6.97294 13.1334 5.29971 13.1334C3.62647 13.1334 2.21096 12.7394 1.38296 12.1174V13.9167ZM9.21646 17.0501V15.2508C8.38846 15.8728 6.97294 16.2668 5.29971 16.2668C3.62647 16.2668 2.21096 15.8728 1.38296 15.2508V17.0501C1.38296 17.7896 3.05776 18.6168 5.29971 18.6168C7.54166 18.6168 9.21646 17.7896 9.21646 17.0501ZM17.05 17.0501V15.2774C16.2768 15.8783 15.0015 16.2668 13.5249 16.2668C12.0483 16.2668 10.773 15.8783 9.99981 15.2774V17.0501C9.99981 17.7912 11.4474 18.6168 13.5249 18.6168C15.6023 18.6168 17.05 17.7912 17.05 17.0501ZM17.05 13.9167V12.144C16.2768 12.7449 15.0015 13.1334 13.5249 13.1334C12.0483 13.1334 10.773 12.7449 9.99981 12.144V13.9167C9.99981 14.6578 11.4474 15.4834 13.5249 15.4834C15.6023 15.4834 17.05 14.6578 17.05 13.9167ZM17.05 10.7833C17.05 10.0423 15.6023 9.21665 13.5249 9.21665C11.4474 9.21665 9.99981 10.0423 9.99981 10.7833C9.99981 11.5244 11.4474 12.35 13.5249 12.35C15.6023 12.35 17.05 11.5244 17.05 10.7833Z" fill="black" fill-opacity="0.75"/>
<path d="M14.837 6.9666H14.8935L14.9226 6.91824L18.7023 0.651446L18.7937 0.4998H18.6167H17.6962H17.6398L17.6106 0.548154L13.8309 6.81495L13.7395 6.9666H13.9166H14.837ZM13.9166 0.4998C13.4289 0.4998 13.0332 0.895512 13.0332 1.38315C13.0332 1.87079 13.4289 2.2665 13.9166 2.2665C14.4042 2.2665 14.7999 1.87079 14.7999 1.38315C14.7999 0.895512 14.4042 0.4998 13.9166 0.4998ZM18.6167 5.1999C18.129 5.1999 17.7333 5.59561 17.7333 6.08325C17.7333 6.57089 18.129 6.9666 18.6167 6.9666C19.1043 6.9666 19.5 6.57089 19.5 6.08325C19.5 5.59561 19.1043 5.1999 18.6167 5.1999ZM13.5249 19.5002C14.7457 19.5002 15.8401 19.2395 16.6329 18.8071C17.4229 18.3762 17.9333 17.7617 17.9333 17.0501V10.7833C17.9333 10.0718 17.4229 9.45734 16.6329 9.02644C15.8401 8.59396 14.7457 8.3333 13.5249 8.3333C12.1306 8.3333 10.904 8.67593 10.0998 9.22611V4.51655C10.0998 3.79054 9.5528 3.1766 8.69913 2.74976C7.84162 2.32101 6.65034 2.0665 5.29971 2.0665C3.94907 2.0665 2.7578 2.32101 1.90029 2.74976C1.04661 3.1766 0.499609 3.79054 0.499609 4.51655V17.0501C0.499609 17.7762 1.04661 18.3901 1.90029 18.8169C2.7578 19.2457 3.94907 19.5002 5.29971 19.5002C6.29595 19.5002 7.20352 19.3617 7.95436 19.1176C8.65383 18.8902 9.22345 18.569 9.59979 18.1768C10.3256 18.9766 11.801 19.5002 13.5249 19.5002ZM5.29971 5.98325C4.19003 5.98325 3.22457 5.77838 2.53996 5.48528C2.19734 5.33859 1.92918 5.17156 1.74837 5.00065C1.56631 4.82854 1.48296 4.66267 1.48296 4.51655C1.48296 4.37043 1.56631 4.20456 1.74837 4.03245C1.92918 3.86153 2.19734 3.69451 2.53996 3.54782C3.22457 3.25472 4.19003 3.04985 5.29971 3.04985C6.40938 3.04985 7.37485 3.25472 8.05946 3.54782C8.40208 3.69451 8.67024 3.86153 8.85104 4.03245C9.0331 4.20456 9.11646 4.37043 9.11646 4.51655C9.11646 4.66267 9.0331 4.82854 8.85104 5.00065C8.67024 5.17156 8.40208 5.33859 8.05946 5.48528C7.37485 5.77838 6.40938 5.98325 5.29971 5.98325ZM5.29971 9.11665C4.19003 9.11665 3.22457 8.91178 2.53996 8.61868C2.19734 8.47199 1.92918 8.30496 1.74837 8.13404C1.56631 7.96194 1.48296 7.79607 1.48296 7.64995V6.04336C2.34884 6.61664 3.71599 6.9666 5.29971 6.9666C6.88343 6.9666 8.25057 6.61664 9.11646 6.04336V7.64995C9.11646 7.79607 9.0331 7.96194 8.85104 8.13404C8.67024 8.30496 8.40208 8.47199 8.05946 8.61868C7.37485 8.91178 6.40938 9.11665 5.29971 9.11665ZM5.29971 12.25C4.19003 12.25 3.22457 12.0452 2.53996 11.7521C2.19734 11.6054 1.92918 11.4384 1.74837 11.2674C1.56631 11.0953 1.48296 10.9295 1.48296 10.7833V9.17676C2.34884 9.75004 3.71599 10.1 5.29971 10.1C6.88343 10.1 8.25057 9.75004 9.11646 9.17676V10.7833C9.11646 10.9295 9.0331 11.0953 8.85104 11.2674C8.67024 11.4384 8.40208 11.6054 8.05946 11.7521C7.37485 12.0452 6.40938 12.25 5.29971 12.25ZM5.29971 15.3834C4.19003 15.3834 3.22457 15.1786 2.53996 14.8855C2.19734 14.7388 1.92918 14.5718 1.74837 14.4008C1.56631 14.2287 1.48296 14.0629 1.48296 13.9167V12.3102C2.34884 12.8834 3.71599 13.2334 5.29971 13.2334C6.88343 13.2334 8.25057 12.8834 9.11646 12.3102V13.9167C9.11646 14.0629 9.0331 14.2287 8.85104 14.4008C8.67024 14.5718 8.40208 14.7388 8.05946 14.8855C7.37485 15.1786 6.40938 15.3834 5.29971 15.3834ZM1.48296 17.0501V15.4436C2.34884 16.0168 3.71599 16.3668 5.29971 16.3668C6.88343 16.3668 8.25057 16.0168 9.11646 15.4436V17.0501C9.11646 17.1963 9.0331 17.3621 8.85104 17.5342C8.67024 17.7052 8.40208 17.8722 8.05946 18.0189C7.37485 18.312 6.40938 18.5168 5.29971 18.5168C4.19003 18.5168 3.22457 18.312 2.53996 18.0189C2.19734 17.8722 1.92918 17.7052 1.74837 17.5342C1.56631 17.3621 1.48296 17.1963 1.48296 17.0501ZM10.0998 15.474C10.904 16.0242 12.1306 16.3668 13.5249 16.3668C14.9192 16.3668 16.1458 16.0242 16.95 15.474V17.0501C16.95 17.2019 16.8756 17.3693 16.7179 17.5396C16.5606 17.7095 16.3262 17.8755 16.0231 18.0213C15.4173 18.3127 14.5513 18.5168 13.5249 18.5168C12.4984 18.5168 11.6325 18.3127 11.0267 18.0213C10.7236 17.8755 10.4891 17.7095 10.3318 17.5396C10.1741 17.3693 10.0998 17.2019 10.0998 17.0501V15.474ZM10.0998 12.3406C10.904 12.8908 12.1306 13.2334 13.5249 13.2334C14.9192 13.2334 16.1458 12.8908 16.95 12.3406V13.9167C16.95 14.0685 16.8756 14.2359 16.7179 14.4062C16.5606 14.5761 16.3262 14.7421 16.0231 14.8879C15.4173 15.1793 14.5513 15.3834 13.5249 15.3834C12.4984 15.3834 11.6325 15.1793 11.0267 14.8879C10.7236 14.7421 10.4891 14.5761 10.3318 14.4062C10.1741 14.2359 10.0998 14.0685 10.0998 13.9167V12.3406ZM13.5249 9.31665C14.5513 9.31665 15.4173 9.52077 16.0231 9.81222C16.3262 9.95803 16.5606 10.124 16.7179 10.2939C16.8756 10.4642 16.95 10.6316 16.95 10.7833C16.95 10.9351 16.8756 11.1025 16.7179 11.2728C16.5606 11.4427 16.3262 11.6087 16.0231 11.7545C15.4173 12.0459 14.5513 12.25 13.5249 12.25C12.4984 12.25 11.6325 12.0459 11.0267 11.7545C10.7236 11.6087 10.4891 11.4427 10.3318 11.2728C10.1741 11.1025 10.0998 10.9351 10.0998 10.7833C10.0998 10.6316 10.1741 10.4642 10.3318 10.2939C10.4891 10.124 10.7236 9.95803 11.0267 9.81222C11.6325 9.52077 12.4984 9.31665 13.5249 9.31665Z" stroke="black" stroke-opacity="0.75" stroke-width="0.2"/>
</g>
<defs>
<clipPath id="clip0_97_1470">
<rect width="20" height="20" fill="white"/>
</clipPath>
</defs>
</svg>
