<svg width="40" height="40" viewBox="0 0 40 40" fill="none" xmlns="http://www.w3.org/2000/svg">
<rect width="40" height="40" rx="20" fill="black" fill-opacity="0.04"/>
<g clip-path="url(#clip0_143_2018)">
<path d="M31.52 20C31.52 26.3521 26.3521 31.52 20 31.52C13.6479 31.52 8.47998 26.3521 8.47998 20C8.47998 19.6023 8.80206 19.28 9.19998 19.28C9.5979 19.28 9.91998 19.6023 9.91998 20C9.91998 25.5581 14.4418 30.08 20 30.08C25.5581 30.08 30.08 25.5581 30.08 20C30.08 14.4418 25.5581 9.91998 20 9.91998C17.3213 9.91998 14.8337 10.9613 12.9627 12.8H15.68C16.0779 12.8 16.4 13.1223 16.4 13.52C16.4 13.9177 16.0779 14.24 15.68 14.24H11.36C10.9621 14.24 10.64 13.9177 10.64 13.52V9.19998C10.64 8.8023 10.9621 8.47998 11.36 8.47998C11.7579 8.47998 12.08 8.8023 12.08 9.19998V11.6559C14.2042 9.62838 16.9954 8.47998 20 8.47998C26.3521 8.47998 31.52 13.6479 31.52 20ZM20.72 19.28H19.28C18.8828 19.28 18.56 18.9569 18.56 18.56C18.56 18.163 18.8828 17.84 19.28 17.84H22.16C22.5579 17.84 22.88 17.5177 22.88 17.12C22.88 16.7223 22.5579 16.4 22.16 16.4H20.72V15.68C20.72 15.2823 20.3979 14.96 20 14.96C19.6021 14.96 19.28 15.2823 19.28 15.68V16.4C18.0889 16.4 17.12 17.3689 17.12 18.56C17.12 19.7511 18.0889 20.72 19.28 20.72H20.72C21.1172 20.72 21.44 21.043 21.44 21.44C21.44 21.8369 21.1172 22.16 20.72 22.16H17.84C17.4421 22.16 17.12 22.4823 17.12 22.88C17.12 23.2777 17.4421 23.6 17.84 23.6H19.28V24.32C19.28 24.7177 19.6021 25.04 20 25.04C20.3979 25.04 20.72 24.7177 20.72 24.32V23.6C21.9111 23.6 22.88 22.6311 22.88 21.44C22.88 20.2489 21.9111 19.28 20.72 19.28Z" fill="#404040"/>
</g>
<defs>
<clipPath id="clip0_143_2018">
<rect width="24" height="24" fill="white" transform="translate(8 8)"/>
</clipPath>
</defs>
</svg>
